<svg width="50" height="45" viewBox="0 0 50 45" fill="none" xmlns="http://www.w3.org/2000/svg">
<path d="M26.5625 6.74325C18.8867 6.74325 12.3926 11.7958 10.1855 18.7613C13.4668 17.0935 17.168 16.1615 21.0938 16.1615H29.6875C30.5469 16.1615 31.25 16.8679 31.25 17.7312C31.25 18.5946 30.5469 19.3009 29.6875 19.3009H28.125H21.0938C19.4727 19.3009 17.9004 19.4873 16.3867 19.8307C13.8574 20.4095 11.5039 21.4397 9.41406 22.8426C3.74023 26.6393 0 33.1242 0 40.492V42.0617C0 43.3665 1.04492 44.4163 2.34375 44.4163C3.64258 44.4163 4.6875 43.3665 4.6875 42.0617V40.492C4.6875 35.7142 6.70898 31.4171 9.94141 28.4052C11.875 35.8123 18.584 41.2769 26.5625 41.2769H26.6602C39.5605 41.2082 50 28.4347 50 12.6885C50 8.50918 49.2676 4.53585 47.9395 0.954951C47.6855 0.278014 46.6992 0.307446 46.3574 0.94514C44.5215 4.3985 40.8887 6.74325 36.7188 6.74325H26.5625Z" fill="#007E3C"/>
</svg>
