<svg width="42" height="49" viewBox="0 0 42 49" fill="none" xmlns="http://www.w3.org/2000/svg">
<path d="M9 0.26123C4.03125 0.26123 0 4.28875 0 9.25289V39.2251C0 44.1892 4.03125 48.2168 9 48.2168H36H39C40.6594 48.2168 42 46.8774 42 45.2195C42 43.5617 40.6594 42.2223 39 42.2223V36.2279C40.6594 36.2279 42 34.8885 42 33.2307V3.25845C42 1.60061 40.6594 0.26123 39 0.26123H36H9ZM9 36.2279H33V42.2223H9C7.34062 42.2223 6 40.8829 6 39.2251C6 37.5673 7.34062 36.2279 9 36.2279ZM12 13.7487C12 12.9245 12.675 12.2501 13.5 12.2501H31.5C32.325 12.2501 33 12.9245 33 13.7487C33 14.573 32.325 15.2473 31.5 15.2473H13.5C12.675 15.2473 12 14.573 12 13.7487ZM13.5 18.2446H31.5C32.325 18.2446 33 18.9189 33 19.7432C33 20.5674 32.325 21.2418 31.5 21.2418H13.5C12.675 21.2418 12 20.5674 12 19.7432C12 18.9189 12.675 18.2446 13.5 18.2446Z" fill="#007E3C"/>
</svg>
