<svg width="48" height="49" viewBox="0 0 48 49" fill="none" xmlns="http://www.w3.org/2000/svg">
<path d="M24 0.26123C30.3652 0.26123 36.4697 2.78745 40.9706 7.28416C45.4714 11.7809 48 17.8797 48 24.239C48 30.5983 45.4714 36.6971 40.9706 41.1938C36.4697 45.6905 30.3652 48.2168 24 48.2168C17.6348 48.2168 11.5303 45.6905 7.02944 41.1938C2.52856 36.6971 0 30.5983 0 24.239C0 17.8797 2.52856 11.7809 7.02944 7.28416C11.5303 2.78745 17.6348 0.26123 24 0.26123ZM21.75 11.5008V24.239C21.75 24.9883 22.125 25.6908 22.7531 26.1123L31.7531 32.1067C32.7844 32.7998 34.1812 32.5188 34.875 31.4792C35.5688 30.4395 35.2875 29.0533 34.2469 28.3602L26.25 23.0401V11.5008C26.25 10.2551 25.2469 9.25289 24 9.25289C22.7531 9.25289 21.75 10.2551 21.75 11.5008Z" fill="#007E3C"/>
</svg>
