<svg width="50" height="54" viewBox="0 0 50 54" fill="none" xmlns="http://www.w3.org/2000/svg">
<path d="M25 0.457031C25.4792 0.457031 25.9583 0.56102 26.3958 0.758598L46.0104 9.06727C48.302 10.0344 50.0104 12.2909 50 15.0154C49.9479 25.3311 45.6979 44.205 27.75 52.784C26.0104 53.6159 23.9896 53.6159 22.25 52.784C4.30212 44.205 0.0521306 25.3311 4.738e-05 15.0154C-0.0103693 12.2909 1.69796 10.0344 3.98962 9.06727L23.6146 0.758598C24.0417 0.56102 24.5208 0.457031 25 0.457031ZM25 7.40346V46.7111C39.375 39.7646 43.2395 24.3848 43.3333 15.161L25 7.40346Z" fill="#007E3C"/>
</svg>
