<svg width="53" height="43" viewBox="0 0 53 43" fill="none" xmlns="http://www.w3.org/2000/svg">
<path d="M11.925 0C13.6821 0 15.3672 0.70721 16.6096 1.96605C17.852 3.2249 18.55 4.93225 18.55 6.71253C18.55 8.4928 17.852 10.2002 16.6096 11.459C15.3672 12.7178 13.6821 13.4251 11.925 13.4251C10.1679 13.4251 8.48285 12.7178 7.24042 11.459C5.99799 10.2002 5.3 8.4928 5.3 6.71253C5.3 4.93225 5.99799 3.2249 7.24042 1.96605C8.48285 0.70721 10.1679 0 11.925 0ZM42.4 0C44.1571 0 45.8422 0.70721 47.0846 1.96605C48.327 3.2249 49.025 4.93225 49.025 6.71253C49.025 8.4928 48.327 10.2002 47.0846 11.459C45.8422 12.7178 44.1571 13.4251 42.4 13.4251C40.6429 13.4251 38.9578 12.7178 37.7154 11.459C36.473 10.2002 35.775 8.4928 35.775 6.71253C35.775 4.93225 36.473 3.2249 37.7154 1.96605C38.9578 0.70721 40.6429 0 42.4 0ZM0 25.0629C0 20.1208 3.95844 16.1101 8.83609 16.1101H12.3722C13.6889 16.1101 14.9394 16.4037 16.0656 16.924C15.958 17.5281 15.9083 18.1574 15.9083 18.7951C15.9083 22.0003 17.2995 24.8783 19.4941 26.8501C19.4775 26.8501 19.4609 26.8501 19.4361 26.8501H1.76391C0.795 26.8501 0 26.0446 0 25.0629ZM33.5639 26.8501C33.5473 26.8501 33.5308 26.8501 33.5059 26.8501C35.7088 24.8783 37.0917 22.0003 37.0917 18.7951C37.0917 18.1574 37.0338 17.5365 36.9344 16.924C38.0606 16.3953 39.3111 16.1101 40.6278 16.1101H44.1639C49.0416 16.1101 53 20.1208 53 25.0629C53 26.053 52.205 26.8501 51.2361 26.8501H33.5639ZM18.55 18.7951C18.55 16.6587 19.3876 14.6099 20.8785 13.0993C22.3694 11.5887 24.3915 10.74 26.5 10.74C28.6085 10.74 30.6306 11.5887 32.1215 13.0993C33.6124 14.6099 34.45 16.6587 34.45 18.7951C34.45 20.9314 33.6124 22.9802 32.1215 24.4908C30.6306 26.0014 28.6085 26.8501 26.5 26.8501C24.3915 26.8501 22.3694 26.0014 20.8785 24.4908C19.3876 22.9802 18.55 20.9314 18.55 18.7951ZM10.6 40.7199C10.6 34.5443 15.5439 29.5351 21.6389 29.5351H31.3611C37.4561 29.5351 42.4 34.5443 42.4 40.7199C42.4 41.9533 41.4145 42.9602 40.1889 42.9602H12.8111C11.5938 42.9602 10.6 41.9617 10.6 40.7199Z" fill="#007E3C"/>
</svg>
