<svg width="59" height="60" viewBox="0 0 59 60" fill="none" xmlns="http://www.w3.org/2000/svg">
<path d="M24.3152 1.30447C23.6239 0.579285 22.587 0.303023 21.6192 0.556263C20.6514 0.809502 19.9025 1.58073 19.649 2.54765L17.8286 9.74195L10.6852 7.72755C9.71739 7.45129 8.68045 7.72755 7.97763 8.42971C7.27481 9.13188 6.9983 10.1679 7.27481 11.1348L9.29109 18.2715L2.09011 20.1018C1.1223 20.3435 0.361876 21.1032 0.0968799 22.0701C-0.168116 23.037 0.119923 24.0615 0.845782 24.7522L6.16874 29.9321L0.845782 35.112C0.119923 35.8026 -0.156595 36.8386 0.0968799 37.8055C0.350354 38.7724 1.1223 39.5206 2.09011 39.7739L9.29109 41.5926L7.27481 48.7293C6.9983 49.6963 7.27481 50.7322 7.97763 51.4344C8.68045 52.1366 9.71739 52.4128 10.6852 52.1366L17.8286 50.1222L19.649 57.3165C19.8909 58.2834 20.6514 59.0431 21.6192 59.3079C22.587 59.5726 23.6124 59.2848 24.3152 58.5712L29.4999 53.2531L34.6846 58.5712C35.3874 59.2848 36.4129 59.5726 37.3807 59.3079C38.3485 59.0431 39.0974 58.2834 39.3509 57.3165L41.1713 50.1222L48.3146 52.1366C49.2824 52.4128 50.3194 52.1366 51.0222 51.4344C51.725 50.7322 52.0015 49.6963 51.725 48.7293L49.7087 41.5926L56.9097 39.7739C57.8775 39.5321 58.638 38.7724 58.903 37.8055C59.1679 36.8386 58.8799 35.8141 58.1656 35.112L52.8426 29.9321L58.1656 24.7522C58.8799 24.05 59.1679 23.0255 58.903 22.0586C58.638 21.0917 57.8775 20.3435 56.9097 20.0902L49.7087 18.2715L51.725 11.1348C52.0015 10.1679 51.725 9.13188 51.0222 8.42971C50.3194 7.72755 49.2824 7.45129 48.3146 7.72755L41.1713 9.74195L39.3393 2.54765C39.0974 1.58073 38.337 0.821013 37.3691 0.556263C36.4013 0.291512 35.3759 0.579285 34.6846 1.30447L29.4999 6.6225L24.3152 1.30447Z" fill="white"/>
</svg>
