<svg width="122" height="119" viewBox="0 0 122 119" fill="none" xmlns="http://www.w3.org/2000/svg">
<g filter="url(#filter0_d_316_5)">
<ellipse cx="61.0884" cy="57.5" rx="58.6826" ry="57.5" fill="white"/>
<path d="M37.981 4.62988C20.3799 14.5564 8.52979 33.1723 8.52979 54.5C8.52979 86.2564 34.8029 112 67.2124 112C75.4169 112 83.2275 110.349 90.3188 107.369C81.7124 112.223 71.7315 115 61.0884 115C28.6789 115 2.40576 89.2564 2.40576 57.5C2.40576 33.783 17.0604 13.4201 37.981 4.62988Z" fill="#007E3C"/>
</g>
<path d="M67.3733 30.9154H78.8247C80.4083 30.9154 81.6876 32.171 81.6876 33.7253C81.6876 35.2795 80.4083 36.5352 78.8247 36.5352H68.6616C68.1964 38.8006 66.6128 40.671 64.5104 41.5666V67.444H78.8247C80.4083 67.444 81.6876 68.6997 81.6876 70.2539C81.6876 71.8081 80.4083 73.0638 78.8247 73.0638H61.6476H44.4704C42.8868 73.0638 41.6075 71.8081 41.6075 70.2539C41.6075 68.6997 42.8868 67.444 44.4704 67.444H58.7847V41.5666C56.6823 40.6622 55.0987 38.7918 54.6335 36.5352H44.4704C42.8868 36.5352 41.6075 35.2795 41.6075 33.7253C41.6075 32.171 42.8868 30.9154 44.4704 30.9154H55.9218C57.228 29.2119 59.3036 28.1055 61.6476 28.1055C63.9915 28.1055 66.0671 29.2119 67.3733 30.9154ZM72.3475 56.2044H85.302L78.8247 45.2985L72.3475 56.2044ZM78.8247 64.6341C73.1974 64.6341 68.5184 61.6486 67.5522 57.706C67.3196 56.7401 67.6417 55.7478 68.1516 54.8873L76.6687 40.5568C77.116 39.8017 77.939 39.345 78.8247 39.345C79.7104 39.345 80.5335 39.8104 80.9808 40.5568L89.4979 54.8873C90.0078 55.7478 90.3299 56.7401 90.0973 57.706C89.1311 61.6486 84.4521 64.6341 78.8247 64.6341ZM44.363 45.2985L37.8858 56.2044H50.8492L44.363 45.2985ZM33.0994 57.706C32.8668 56.7401 33.1889 55.7478 33.6988 54.8873L42.2158 40.5568C42.6632 39.8017 43.4862 39.345 44.3719 39.345C45.2576 39.345 46.0807 39.8104 46.528 40.5568L55.0451 54.8873C55.555 55.7478 55.8771 56.7401 55.6445 57.706C54.6693 61.6486 49.9903 64.6341 44.363 64.6341C38.7357 64.6341 34.0656 61.6486 33.0994 57.706Z" fill="#007E3C"/>
<defs>
<filter id="filter0_d_316_5" x="0.605762" y="0" width="120.965" height="118.8" filterUnits="userSpaceOnUse" color-interpolation-filters="sRGB">
<feFlood flood-opacity="0" result="BackgroundImageFix"/>
<feColorMatrix in="SourceAlpha" type="matrix" values="0 0 0 0 0 0 0 0 0 0 0 0 0 0 0 0 0 0 127 0" result="hardAlpha"/>
<feOffset dy="2"/>
<feGaussianBlur stdDeviation="0.9"/>
<feComposite in2="hardAlpha" operator="out"/>
<feColorMatrix type="matrix" values="0 0 0 0 0 0 0 0 0 0 0 0 0 0 0 0 0 0 0.25 0"/>
<feBlend mode="normal" in2="BackgroundImageFix" result="effect1_dropShadow_316_5"/>
<feBlend mode="normal" in="SourceGraphic" in2="effect1_dropShadow_316_5" result="shape"/>
</filter>
</defs>
</svg>
