<svg width="237" height="356" viewBox="0 0 237 356" fill="none" xmlns="http://www.w3.org/2000/svg">
<path d="M154.138 42.055C95.9083 61.4649 102.918 124.547 113.701 153.662C146.051 153.662 173.548 125.626 183.253 111.607C179.371 134.899 157.912 154.741 147.668 161.75C234.366 150.104 242.022 49.0641 235.013 0C232.317 5.93083 212.368 22.645 154.138 42.055Z" fill="#007E3C" fill-opacity="0.17"/>
<path d="M81.8379 121.959C104.914 129.723 102.136 154.956 97.8629 166.602C85.0429 166.602 74.146 155.388 70.3 149.78C71.8384 159.097 80.3423 167.034 84.4019 169.837C50.0444 165.179 47.0103 124.763 49.788 105.137C50.8563 107.51 58.762 114.195 81.8379 121.959Z" fill="#007E3C" fill-opacity="0.17"/>
<path d="M86.1955 304.486C145.889 290.197 144.376 226.745 136.157 196.804C103.929 194 74.1044 219.547 63.2205 232.671C69.1074 209.803 92.2056 191.897 103.019 185.802C15.6378 189.888 -0.749848 289.883 1.97899 339.37C5.17888 333.695 26.502 318.774 86.1955 304.486Z" fill="#007E3C" fill-opacity="0.17"/>
<path d="M165.152 231.151C142.836 221.415 147.791 196.518 153.058 185.286C165.83 186.398 175.713 198.515 179.058 204.435C178.334 195.02 170.55 186.376 166.749 183.231C200.573 190.85 200.091 231.377 195.623 250.688C194.764 248.232 187.468 240.886 165.152 231.151Z" fill="#007E3C" fill-opacity="0.17"/>
</svg>
