<svg width="122" height="119" viewBox="0 0 122 119" fill="none" xmlns="http://www.w3.org/2000/svg">
<g filter="url(#filter0_d_316_3)">
<ellipse cx="60.9321" cy="57.5" rx="58.6826" ry="57.5" fill="white"/>
<path d="M37.8247 4.62988C20.2235 14.5564 8.37354 33.1722 8.37354 54.5C8.37354 86.2564 34.6466 112 67.0562 112C75.2607 112 83.0713 110.349 90.1626 107.369C81.5562 112.223 71.5752 115 60.9321 115C28.5226 115 2.24951 89.2563 2.24951 57.5C2.24951 33.783 16.9042 13.4201 37.8247 4.62988Z" fill="#007E3C"/>
</g>
<path d="M38.5838 59.7973L58.3796 77.8893C59.2012 78.64 60.2857 79.0583 61.4141 79.0583C62.5425 79.0583 63.627 78.64 64.4487 77.8893L84.2445 59.7973C87.5748 56.7623 89.4591 52.5048 89.4591 48.0542V47.4322C89.4591 39.9358 83.9268 33.5441 76.3787 32.3108C71.3832 31.4958 66.3001 33.0937 62.7287 36.5898L61.4141 37.8768L60.0995 36.5898C56.5282 33.0937 51.445 31.4958 46.4495 32.3108C38.9014 33.5441 33.3691 39.9358 33.3691 47.4322V48.0542C33.3691 52.5048 35.2534 56.7623 38.5838 59.7973Z" fill="#007E3C"/>
<defs>
<filter id="filter0_d_316_3" x="0.449512" y="0" width="120.965" height="118.8" filterUnits="userSpaceOnUse" color-interpolation-filters="sRGB">
<feFlood flood-opacity="0" result="BackgroundImageFix"/>
<feColorMatrix in="SourceAlpha" type="matrix" values="0 0 0 0 0 0 0 0 0 0 0 0 0 0 0 0 0 0 127 0" result="hardAlpha"/>
<feOffset dy="2"/>
<feGaussianBlur stdDeviation="0.9"/>
<feComposite in2="hardAlpha" operator="out"/>
<feColorMatrix type="matrix" values="0 0 0 0 0 0 0 0 0 0 0 0 0 0 0 0 0 0 0.25 0"/>
<feBlend mode="normal" in2="BackgroundImageFix" result="effect1_dropShadow_316_3"/>
<feBlend mode="normal" in="SourceGraphic" in2="effect1_dropShadow_316_3" result="shape"/>
</filter>
</defs>
</svg>
