<svg width="21" height="21" viewBox="0 0 21 21" fill="none" xmlns="http://www.w3.org/2000/svg">
<path d="M10.5 21C13.2848 21 15.9555 19.8938 17.9246 17.9246C19.8938 15.9555 21 13.2848 21 10.5C21 7.71523 19.8938 5.04451 17.9246 3.07538C15.9555 1.10625 13.2848 0 10.5 0C7.71523 0 5.04451 1.10625 3.07538 3.07538C1.10625 5.04451 0 7.71523 0 10.5C0 13.2848 1.10625 15.9555 3.07538 17.9246C5.04451 19.8938 7.71523 21 10.5 21ZM15.1348 8.57227L9.88477 13.8223C9.49922 14.2078 8.87578 14.2078 8.49434 13.8223L5.86934 11.1973C5.48379 10.8117 5.48379 10.1883 5.86934 9.80684C6.25488 9.42539 6.87832 9.42129 7.25977 9.80684L9.1875 11.7346L13.7402 7.17773C14.1258 6.79219 14.7492 6.79219 15.1307 7.17773C15.5121 7.56328 15.5162 8.18672 15.1307 8.56816L15.1348 8.57227Z" fill="#007E3C"/>
</svg>
