<svg width="91" height="91" viewBox="0 0 91 91" fill="none" xmlns="http://www.w3.org/2000/svg">
<path d="M85.6917 90.8975C75.1592 90.8975 64.7532 88.6229 54.4736 84.0737C44.194 79.5246 34.8412 73.0732 26.4153 64.7197C17.9893 56.3662 11.4812 47.0975 6.89072 36.9137C2.30028 26.7298 0.00337037 16.4174 0 5.97632C0 4.47329 0.505555 3.22076 1.51667 2.21874C2.52778 1.21673 3.79167 0.715716 5.30833 0.715716H25.7833C26.963 0.715716 28.0162 1.11318 28.9431 1.90812C29.8699 2.70305 30.4176 3.64161 30.5861 4.72379L33.8722 22.2591C34.0407 23.5952 33.9986 24.7224 33.7458 25.6409C33.493 26.5595 33.0296 27.3527 32.3555 28.0207L20.0958 40.2955C21.781 43.385 23.7813 46.3694 26.0968 49.2485C28.4122 52.1277 30.9619 54.9049 33.7458 57.5803C36.3579 60.1689 39.0963 62.5704 41.9611 64.7848C44.8259 66.9993 47.8592 69.0234 51.0611 70.8571L62.9417 59.0834C63.7 58.3318 64.6909 57.769 65.9143 57.395C67.1378 57.0209 68.3376 56.9156 69.5139 57.0793L86.9555 60.5864C88.1352 60.9204 89.1041 61.5266 89.8625 62.405C90.6208 63.2835 91 64.2638 91 65.346V85.6369C91 87.1399 90.4944 88.3924 89.4833 89.3944C88.4722 90.3965 87.2083 90.8975 85.6917 90.8975ZM65.7222 25.7662H55.6111C54.1787 25.7662 52.9788 25.2852 52.0115 24.3233C51.0442 23.3614 50.5589 22.1723 50.5555 20.7561C50.5522 19.3399 51.0375 18.1509 52.0115 17.1889C52.9856 16.227 54.1854 15.746 55.6111 15.746H65.7222V5.72581C65.7222 4.30629 66.2075 3.11722 67.1782 2.15862C68.1489 1.20003 69.3487 0.719056 70.7778 0.715716C72.2068 0.712375 73.4083 1.19335 74.3824 2.15862C75.3564 3.1239 75.8401 4.31297 75.8333 5.72581V15.746H85.9444C87.3768 15.746 88.5784 16.227 89.549 17.1889C90.5197 18.1509 91.0033 19.3399 91 20.7561C90.9966 22.1723 90.5113 23.363 89.544 24.3283C88.5767 25.2936 87.3768 25.7729 85.9444 25.7662H75.8333V35.7864C75.8333 37.2059 75.348 38.3967 74.3773 39.3586C73.4066 40.3205 72.2068 40.7998 70.7778 40.7965C69.3487 40.7932 68.1489 40.3122 67.1782 39.3536C66.2075 38.395 65.7222 37.2059 65.7222 35.7864V25.7662Z" fill="#007E3C"/>
</svg>
