<svg width="114" height="91" viewBox="0 0 114 91" fill="none" xmlns="http://www.w3.org/2000/svg">
<path d="M102.6 23.2611L57 51.4429L11.4 23.2611V11.9884L57 40.1702L102.6 11.9884M102.6 0.715698H11.4C5.073 0.715698 0 5.73206 0 11.9884V79.6247C0 82.6145 1.20107 85.4817 3.33898 87.5958C5.4769 89.7098 8.37653 90.8975 11.4 90.8975H102.6C105.623 90.8975 108.523 89.7098 110.661 87.5958C112.799 85.4817 114 82.6145 114 79.6247V11.9884C114 8.99871 112.799 6.13145 110.661 4.0174C108.523 1.90336 105.623 0.715698 102.6 0.715698Z" fill="#007E3C"/>
</svg>
