<svg width="188" height="169" viewBox="0 0 188 169" fill="none" xmlns="http://www.w3.org/2000/svg">
<path d="M82.4526 41.8476C140.395 61.1619 133.421 123.933 122.691 152.905C90.5002 152.905 63.1383 125.006 53.4812 111.057C57.3441 134.234 78.6971 153.978 88.8907 160.952C2.62025 149.364 -4.99817 48.8222 1.97644 0C4.65897 5.90159 24.5097 22.5333 82.4526 41.8476Z" fill="#007E3C" fill-opacity="0.17"/>
<path d="M154.397 121.358C131.435 129.084 134.199 154.192 138.451 165.781C151.208 165.781 162.051 154.622 165.878 149.042C164.348 158.313 155.886 166.21 151.846 169C186.034 164.365 189.053 124.148 186.289 104.619C185.226 106.98 177.36 113.632 154.397 121.358Z" fill="#007E3C" fill-opacity="0.17"/>
</svg>
