<svg width="176" height="176" viewBox="0 0 176 176" fill="none" xmlns="http://www.w3.org/2000/svg">
<g clip-path="url(#clip0_829_215)">
<path d="M88 0C99.9167 0 111.275 2.3776 121.659 6.67448L121.816 6.74609C132.516 11.2005 142.155 17.7174 150.219 25.7956C158.326 33.888 164.857 43.5846 169.326 54.3698C173.637 64.7396 176 76.112 176 88.0143C176 99.931 173.622 111.289 169.326 121.673L169.254 121.831C164.785 132.53 158.283 142.169 150.204 150.233C142.112 158.34 132.415 164.871 121.63 169.34C111.26 173.651 99.888 176.014 87.9857 176.014C76.0833 176.014 64.7109 173.637 54.3268 169.34L54.1693 169.268C43.4701 164.814 33.8307 158.297 25.7669 150.233L25.7813 150.204C17.6745 142.098 11.1432 132.415 6.67448 121.659C2.3776 111.275 0 99.9167 0 88C0 76.0833 2.3776 64.7253 6.67448 54.3411L6.74609 54.1836C11.2005 43.4844 17.7174 33.8451 25.7813 25.7812H25.7956C33.9023 17.6745 43.5846 11.1432 54.3555 6.67448C64.7253 2.3776 76.0833 0 88 0ZM24.3346 135.309L24.6784 135.108C33.1289 130.396 55.1289 128.835 64.2669 122.461C64.9401 121.458 65.6563 119.997 66.3581 118.408C67.4037 116.016 68.3633 113.395 68.9649 111.618C66.4154 108.611 64.224 105.216 62.1328 101.879L55.2148 90.8646C52.694 87.0833 51.3763 83.6458 51.2904 80.8099C51.2474 79.4779 51.4766 78.2747 51.9779 77.2005C52.4935 76.0833 53.2813 75.1523 54.3555 74.4362C54.8568 74.0924 55.4154 73.806 56.0312 73.5911C55.5729 67.6185 55.4154 60.099 55.7018 53.7969C55.8451 52.3073 56.1458 50.8034 56.5469 49.3138C58.3229 42.9974 62.7487 37.9128 68.2344 34.418C71.2565 32.4844 74.5794 31.0378 78.0312 30.0638C80.237 29.4336 76.155 22.4154 78.4323 22.1719C89.418 21.0404 107.193 31.0807 114.87 39.3737C118.708 43.5273 121.129 49.0417 121.645 56.332L121.215 74.293C123.134 74.8802 124.366 76.0977 124.853 78.0599C125.411 80.2513 124.81 83.3164 122.948 87.513C122.919 87.5846 122.876 87.6706 122.833 87.7422L114.941 100.733C112.048 105.503 109.098 110.301 105.273 114.068C105.632 114.583 105.99 115.085 106.333 115.586C107.895 117.878 109.47 120.169 111.49 122.217C111.561 122.289 111.618 122.361 111.661 122.432C120.742 128.849 142.842 130.41 151.322 135.137L151.665 135.337C161.505 122.132 167.32 105.76 167.32 88.0286C167.32 66.1289 158.44 46.2917 144.089 31.9544C129.766 17.5885 109.928 8.70833 88.0286 8.70833C66.1289 8.70833 46.2917 17.5885 31.9544 31.9401C17.5742 46.263 8.69401 66.1003 8.69401 88C8.69401 105.732 14.5091 122.103 24.3346 135.309Z" fill="#007E3C"/>
</g>
<defs>
<clipPath id="clip0_829_215">
<rect width="176" height="176" fill="white"/>
</clipPath>
</defs>
</svg>
