<svg width="251" height="238" viewBox="0 0 251 238" fill="none" xmlns="http://www.w3.org/2000/svg">
<g opacity="0.42">
<path d="M138.417 63.0274C60.3892 84.2979 64.99 167.801 77.0439 206.894C119.603 209.263 157.831 174.393 171.626 156.661C164.813 187.02 135.129 211.551 121.138 220.022C236.049 211.05 253.522 78.6852 247.894 13.6242C243.913 21.2292 216.445 41.7569 138.417 63.0274Z" fill="#007E3C"/>
<path d="M37.7074 162.852C67.497 174.756 61.9947 207.749 55.5198 222.757C38.6541 221.818 25.1396 206.266 20.4906 198.608C21.8322 210.977 32.4384 222.041 37.5739 226.027C-7.28495 217.382 -8.31639 163.99 -3.22474 138.374C-1.99303 141.573 7.91779 150.948 37.7074 162.852Z" fill="#007E3C"/>
</g>
</svg>
