<svg width="177" height="177" viewBox="0 0 177 177" fill="none" xmlns="http://www.w3.org/2000/svg">
<mask id="mask0_829_224" style="mask-type:alpha" maskUnits="userSpaceOnUse" x="25" y="38" width="128" height="133">
<rect x="25" y="38" width="128" height="133" rx="47" fill="#D9D9D9"/>
</mask>
<g mask="url(#mask0_829_224)">
<path fill-rule="evenodd" clip-rule="evenodd" d="M106.764 118.879C99.9632 131.081 79.6037 132.024 70.2022 119.72C73.1376 118.694 75.279 117.228 75.9789 115.29C79.4102 117.756 83.5311 119.127 87.783 119.217C92.5882 119.217 97.3412 117.259 101.614 114.09C102.094 116.141 104.027 117.751 106.837 118.93L106.764 118.879ZM60.2993 121.463C53.3213 122.98 46.803 124.908 42.2798 127.482C31.8337 133.48 32.4083 147.754 29.8907 159.269C29.1804 162.519 28.4701 165.76 28 169.01H51.9111V161.125C51.8894 160.801 51.9356 160.477 52.0467 160.172C52.1579 159.867 52.3317 159.587 52.5575 159.35C52.7832 159.114 53.056 158.925 53.359 158.796C53.662 158.667 53.9887 158.601 54.3189 158.601C54.6492 158.601 54.9759 158.667 55.2789 158.796C55.5819 158.925 55.8547 159.114 56.0804 159.35C56.3062 159.587 56.48 159.867 56.5912 160.172C56.7023 160.477 56.7485 160.801 56.7268 161.125V169H121.211V161.125C121.211 160.497 121.465 159.894 121.917 159.45C122.37 159.006 122.984 158.756 123.624 158.756C124.264 158.756 124.877 159.006 125.33 159.45C125.782 159.894 126.037 160.497 126.037 161.125V169H150C149.593 166.888 149.123 164.806 148.767 162.653C146.803 150.625 146.793 133.532 135.187 127.554C130.027 124.888 122.569 122.806 115.34 120.971C126.047 122.283 139.366 120.263 141.1 115.393C125.358 114.142 120.417 90.4242 120.521 73.1567C117.951 47.7577 94.7297 38.1601 76.7624 45.2865C54.1152 54.2792 57.1133 73.8847 54.9718 92.3315C53.5616 104.39 49.3727 114.49 37.9865 115.393C39.5847 119.812 50.5218 121.986 60.2993 121.463ZM95.5236 61.7646C84.9521 72.2646 73.8061 76.3764 62.0961 79.2885C61.9728 79.8992 61.9341 80.5235 61.9812 81.1445C61.9812 97.0175 74.1822 116.069 87.7935 116.069C101.405 116.069 115.12 97.0175 115.12 81.1445C115.141 78.7297 114.752 76.3284 113.971 74.0385C103.692 73.9257 99.6916 68.85 95.5236 61.7338V61.7646Z" fill="#007E3C"/>
</g>
<circle cx="88.5" cy="88.5" r="83" stroke="#007E3C" stroke-width="11"/>
</svg>
