<svg width="188" height="170" viewBox="0 0 188 170" fill="none" xmlns="http://www.w3.org/2000/svg">
<path d="M105.138 42.055C46.9083 61.4649 53.9175 124.547 64.7008 153.662C97.0508 153.662 124.548 125.626 134.253 111.607C130.371 134.899 108.912 154.741 98.6682 161.75C185.366 150.104 193.022 49.0641 186.013 0C183.317 5.93083 163.368 22.645 105.138 42.055Z" fill="#007E3C" fill-opacity="0.17"/>
<path d="M32.8379 121.959C55.9139 129.723 53.1362 154.956 48.8629 166.602C36.0429 166.602 25.146 155.388 21.3 149.78C22.8384 159.097 31.3423 167.034 35.4019 169.837C1.0444 165.179 -1.98966 124.763 0.788006 105.137C1.85633 107.51 9.76197 114.195 32.8379 121.959Z" fill="#007E3C" fill-opacity="0.17"/>
</svg>
