<svg width="298" height="768" viewBox="0 0 298 768" fill="none" xmlns="http://www.w3.org/2000/svg">
<path d="M132.468 159C86.5 216.286 59 289.026 59 368.189C59 552.929 208.761 702.689 393.5 702.689C478.705 702.689 556.469 670.831 615.531 618.378C554.227 694.777 460.076 743.689 354.5 743.689C169.761 743.689 20 593.929 20 409.189C20 309.655 63.473 220.275 132.468 159Z" fill="#F8D78D"/>
<path d="M112.468 183C66.5 240.286 39 313.026 39 392.189C39 576.929 188.761 726.689 373.5 726.689C458.705 726.689 536.469 694.831 595.531 642.378C534.227 718.777 440.076 767.689 334.5 767.689C149.761 767.689 0 617.929 0 433.189C0 333.655 43.473 244.275 112.468 183Z" fill="#AFDCB4"/>
<path d="M162.621 41.8476C104.678 61.1619 111.652 123.933 122.383 152.905C154.573 152.905 181.935 125.006 191.592 111.057C187.729 134.234 166.376 153.978 156.183 160.952C242.453 149.364 250.071 48.8222 243.097 0C240.414 5.90159 220.564 22.5333 162.621 41.8476Z" fill="#007E3C" fill-opacity="0.17"/>
<path d="M90.6759 121.358C113.638 129.084 110.874 154.192 106.622 165.781C93.865 165.781 83.0218 154.622 79.1948 149.042C80.7256 158.313 89.1876 166.21 93.2272 169C59.0391 164.365 56.02 124.148 58.7839 104.619C59.847 106.98 67.7137 113.632 90.6759 121.358Z" fill="#007E3C" fill-opacity="0.17"/>
</svg>
