<svg width="70" height="51" viewBox="0 0 70 51" fill="none" xmlns="http://www.w3.org/2000/svg">
<path d="M0 19.3503C0 9.07658 8.32893 0.755371 18.6121 0.755371H19.8529C22.5982 0.755371 24.8162 2.97126 24.8162 5.71401C24.8162 8.45676 22.5982 10.6726 19.8529 10.6726H18.6121C13.8195 10.6726 9.92647 14.5621 9.92647 19.3503V20.5899H19.8529C25.328 20.5899 29.7794 25.0372 29.7794 30.5072V40.4245C29.7794 45.8945 25.328 50.3417 19.8529 50.3417H9.92647C4.4514 50.3417 0 45.8945 0 40.4245V35.4658V30.5072V19.3503ZM39.7059 19.3503C39.7059 9.07658 48.0348 0.755371 58.318 0.755371H59.5588C62.3041 0.755371 64.5221 2.97126 64.5221 5.71401C64.5221 8.45676 62.3041 10.6726 59.5588 10.6726H58.318C53.5254 10.6726 49.6324 14.5621 49.6324 19.3503V20.5899H59.5588C65.0339 20.5899 69.4853 25.0372 69.4853 30.5072V40.4245C69.4853 45.8945 65.0339 50.3417 59.5588 50.3417H49.6324C44.1573 50.3417 39.7059 45.8945 39.7059 40.4245V35.4658V30.5072V19.3503Z" fill="#007E3C" fill-opacity="0.27"/>
</svg>
