<svg width="96" height="84" viewBox="0 0 96 84" fill="none" xmlns="http://www.w3.org/2000/svg">
<rect width="96" height="84" rx="42" fill="#007E3C" fill-opacity="0.29"/>
<path d="M50.8275 18.9407C51.1175 18.7572 51.4256 18.6378 51.7338 18.5644C52.1597 18.4726 52.6037 18.4818 53.0116 18.5736C53.7094 18.7388 54.3528 19.1702 54.7697 19.8218L65.6356 36.3237C66.4331 37.526 66.85 38.9486 66.85 40.3987V47.1445C66.85 47.7778 67.2488 48.3376 67.8378 48.5395L75.0153 50.9625C76.2025 51.3572 77 52.4769 77 53.7434V62.5542C77 63.4628 76.5831 64.3256 75.8672 64.8854C75.1513 65.4453 74.2269 65.6288 73.3569 65.3902L58.0594 61.2601C52.9844 59.8926 49.45 55.2302 49.45 49.907V39.0587C49.45 37.4342 50.7459 36.1218 52.35 36.1218C53.9541 36.1218 55.25 37.4342 55.25 39.0587V46.4011C55.25 47.2087 55.9025 47.8695 56.7 47.8695C57.4975 47.8695 58.15 47.2087 58.15 46.4011V38.609C58.15 37.9666 57.9869 37.3425 57.6697 36.7918L49.8397 22.9148C49.6856 22.6394 49.5769 22.3549 49.5134 22.0612C49.4228 21.6298 49.4228 21.1801 49.5225 20.7671C49.6947 20.0329 50.1388 19.3721 50.8184 18.9407H50.8275ZM45.1725 18.9407C45.8522 19.3629 46.2963 20.0329 46.4684 20.7671C46.5681 21.1893 46.5772 21.6298 46.4775 22.0612C46.4141 22.3549 46.3053 22.6394 46.1513 22.9148L38.3303 36.7918C38.0131 37.3425 37.85 37.9757 37.85 38.609V46.4011C37.85 47.2087 38.5025 47.8695 39.3 47.8695C40.0975 47.8695 40.75 47.2087 40.75 46.4011V39.0587C40.75 37.4342 42.0459 36.1218 43.65 36.1218C45.2541 36.1218 46.55 37.4342 46.55 39.0587V49.9162C46.55 55.2394 43.0156 59.8926 37.9406 61.2693L22.6522 65.3994C21.7822 65.638 20.8488 65.4453 20.1419 64.8946C19.435 64.3439 19 63.472 19 62.5542V53.7434C19 52.4769 19.7975 51.3572 20.9847 50.9533L28.1622 48.5304C28.7513 48.3284 29.15 47.7686 29.15 47.1353V40.3895C29.15 38.9394 29.5759 37.526 30.3644 36.3145L41.2213 19.831C41.6381 19.1793 42.2816 18.748 42.9794 18.5828C43.3963 18.4818 43.8313 18.4726 44.2572 18.5736C44.5744 18.647 44.8825 18.7663 45.1634 18.9499L45.1725 18.9407Z" fill="#007E3C"/>
</svg>
