<svg width="59" height="53" viewBox="0 0 59 53" fill="none" xmlns="http://www.w3.org/2000/svg">
<path d="M32.5003 13.5C14.5003 19.5 16.6669 39 20.0003 48C30.0003 48 38.5003 39.3333 41.5002 35C40.3002 42.2 33.6669 48.3333 30.5002 50.5C57.3002 46.9 59.6669 15.6667 57.5002 0.5C56.6669 2.33333 50.5003 7.5 32.5003 13.5Z" fill="white"/>
<path d="M10.1507 38.2C17.284 40.6 16.4253 48.4 15.1044 52C11.1415 52 7.773 48.5333 6.58414 46.8C7.05969 49.68 9.68841 52.1333 10.9433 53C0.322751 51.56 -0.615137 39.0667 0.243492 33C0.573732 33.7333 3.01752 35.8 10.1507 38.2Z" fill="white"/>
</svg>
