<svg width="54" height="59" viewBox="0 0 54 59" fill="none" xmlns="http://www.w3.org/2000/svg">
<path d="M25.4018 0.468872C23.8158 0.622019 21.9391 1.17334 20.6248 1.86556C16.9725 3.7952 14.5777 7.07864 13.9269 11.0543C13.7879 11.8813 13.7752 13.7313 13.8953 14.5767C14.4324 18.2705 16.644 21.5601 19.9171 23.5326C21.1303 24.2616 22.6468 24.8436 24.138 25.1437C25.1111 25.3459 27.1395 25.4194 28.1631 25.303C32.5673 24.7823 36.3333 22.1727 38.2542 18.3073C39.9603 14.883 39.9603 10.9318 38.2668 7.50133C36.3522 3.62367 32.5104 0.977316 28.0873 0.487249C27.5565 0.432117 25.9073 0.419867 25.4018 0.468872Z" fill="#007E3C"/>
<path d="M17.2882 25.8484C16.353 26.1976 16.2392 26.2711 15.3862 27.1042C13.9518 28.5009 12.8271 30.2774 12.1004 32.2805C11.5949 33.6956 11.1905 35.7539 11.1653 37.0832L11.1526 37.7509L11.5633 37.8305C14.1288 38.3451 16.2772 41.0834 16.9343 44.6731C17.086 45.5062 17.1997 46.9642 17.1239 47.1051C17.0923 47.1602 16.8079 47.4175 16.4983 47.6809C15.9802 48.1097 15.9296 48.1648 15.9928 48.2812C16.1065 48.4834 16.0307 49.0776 15.8664 49.2981C15.4178 49.9107 14.4447 49.8617 14.0529 49.2123C13.6675 48.5752 14.0845 47.7238 14.8175 47.6502C14.9249 47.638 15.1398 47.6502 15.3041 47.6748C15.5884 47.7238 15.6137 47.7115 16.075 47.3991C16.6247 47.0315 16.5994 47.1173 16.492 45.9718C16.1318 42.2473 14.1856 39.3191 11.6581 38.682C11.2095 38.5718 10.2806 38.5534 9.79408 38.6575C9.33913 38.7494 8.50505 39.1231 8.08169 39.4294C7.26657 40.0175 6.38194 41.114 5.87644 42.1615C5.22561 43.5092 4.80225 45.3102 4.80225 46.7007V47.0989L5.26984 47.4052C5.52259 47.5767 5.75007 47.6993 5.76902 47.6809C5.83853 47.6074 6.44513 47.6502 6.61574 47.7421C7.05805 47.9627 7.3108 48.465 7.20338 48.906C7.13388 49.2185 6.96327 49.4329 6.65997 49.5983C5.78798 50.0822 4.78329 49.2185 5.14978 48.2935C5.20665 48.1403 5.25088 48.0117 5.23825 48.0055C5.16874 47.9627 4.25883 47.1847 4.2146 47.1357C4.1451 47.0499 4.2146 45.8002 4.33466 45.0529C4.87807 41.6408 6.7042 38.9148 9.03583 38.045C9.31386 37.9408 9.56661 37.855 9.5982 37.855C9.6298 37.855 9.67403 37.5978 9.6993 37.2853C10.0026 33.1994 11.2095 30.0446 13.4147 27.5453C13.5854 27.3554 13.7054 27.1961 13.6801 27.1961C13.5727 27.1961 12.2774 27.9435 11.418 28.5009C5.28879 32.4643 1.2511 38.8474 0.126353 46.3393C-0.0695287 47.6686 -0.0821663 47.5951 0.511799 48.4037C1.25741 49.4084 2.08517 50.3395 3.04563 51.2461C5.6616 53.7026 8.81467 55.5036 12.7639 56.79C16.0497 57.8559 19.4555 58.4501 23.5943 58.689C25.2435 58.7809 29.7867 58.7257 31.2147 58.5971C34.8544 58.2602 37.6346 57.7272 40.4718 56.8145C44.6232 55.4791 47.7573 53.6658 50.487 51.0256C51.5486 50.0026 52.1489 49.3165 52.9134 48.2751C53.4063 47.5951 53.4 47.638 53.1725 46.2291C52.1741 40.042 49.0084 34.5532 44.0671 30.4367C42.6644 29.2728 40.7435 27.9986 39.3028 27.288C39.0879 27.1777 39.0879 27.1777 39.1764 27.3002C39.227 27.3676 39.505 27.6984 39.7956 28.0292C41.3437 29.8118 42.5001 32.0233 43.1446 34.4246L43.3152 35.0617L43.7765 35.1658C45.154 35.466 46.2218 36.3849 46.7463 37.7203C46.8979 38.094 46.9106 38.2103 46.9106 38.9883C46.9106 39.7663 46.8979 39.8827 46.7463 40.2564C46.3545 41.261 45.6658 42.0267 44.7875 42.4433C44.0229 42.8047 43.5932 42.8966 42.7528 42.866C41.9567 42.8353 41.4638 42.7006 40.8698 42.3453C38.8921 41.1875 38.2981 38.7127 39.5492 36.8627C40.0168 36.1704 40.655 35.662 41.4701 35.3373C41.8429 35.1964 41.8429 35.1964 41.805 34.9698C41.6786 34.2041 41.1415 32.7645 40.5349 31.5761C39.3596 29.2666 37.483 27.141 35.3915 25.7382L35.0502 25.5115L34.9491 25.6585C34.8923 25.7443 32.9714 29.0339 30.6713 32.9789C28.1501 37.316 26.463 40.1522 26.4062 40.1522C26.3556 40.1522 24.7822 37.3711 22.2926 32.8625C20.0747 28.8501 18.2297 25.5666 18.1854 25.5605C18.1412 25.5544 17.7368 25.683 17.2882 25.8484ZM34.9428 43.4847C34.9807 43.5582 35.006 44.085 35.006 44.7711V45.9411H36.2571C37.1481 45.9411 37.5272 45.9595 37.5841 46.0147C37.6346 46.0637 37.6599 46.3945 37.6599 47.1051C37.6599 47.8156 37.6346 48.1464 37.5841 48.1954C37.5272 48.2506 37.1481 48.269 36.2571 48.269H35.006V49.4145C35.006 50.0516 34.9871 50.6274 34.9681 50.707C34.9302 50.8418 34.9239 50.8418 33.7802 50.8296L32.6365 50.8112L32.6049 49.5554L32.5733 48.2996L31.3095 48.2812C30.2101 48.269 30.0331 48.2567 29.9699 48.1648C29.8688 48.0362 29.8562 46.2352 29.951 46.0575C30.0142 45.9473 30.0963 45.9411 31.3095 45.9411H32.6049V44.6976C32.6049 44.0115 32.6238 43.4296 32.6491 43.4112C32.6681 43.3867 33.1799 43.3683 33.7802 43.3683C34.7975 43.3683 34.8796 43.3744 34.9428 43.4847Z" fill="#007E3C"/>
<path d="M42.1398 36.6481C41.0972 36.9911 40.4527 37.7997 40.3895 38.835C40.3263 39.907 40.8634 40.7769 41.8871 41.2486C42.2662 41.4201 42.361 41.4385 42.936 41.4385C43.5173 41.4385 43.6058 41.4201 43.9912 41.2425C45.5141 40.5441 45.9564 38.7064 44.9075 37.4261C44.2566 36.6297 43.1382 36.3173 42.1398 36.6481Z" fill="#007E3C"/>
</svg>
