<svg width="49" height="68" viewBox="0 0 49 68" fill="none" xmlns="http://www.w3.org/2000/svg">
<path d="M37.6073 24.9177C34.9176 24.9177 32.475 25.8418 30.5339 27.3194C29.7109 26.7116 29.0967 26.0202 28.816 25.1775C33.9482 23.3249 37.6073 18.6774 37.6073 13.1963C37.6073 6.09291 31.4913 0.338379 23.9476 0.338379C16.4063 0.338379 10.2927 6.09516 10.2927 13.1963C10.2927 18.6164 13.8702 23.2322 18.9137 25.1255C16.4495 29.3279 0.743164 30.0441 0.743164 39.6327C0.743164 45.0642 2.85942 51.1418 6.34333 56.1937C5.82986 58.8778 6.26895 61.4014 7.81175 63.4348C9.68807 65.9111 12.9128 67.2689 16.8862 67.2689C18.2899 67.2689 19.7631 67.0791 21.2627 66.7515C22.1457 66.8961 23.0358 66.9933 23.9452 66.9933C36.1509 66.9933 46.1323 53.1232 47.0585 41.3815C48.2318 39.705 48.9324 37.7146 48.9324 35.5795C48.9372 29.7075 43.8529 24.9177 37.6073 24.9177ZM37.7849 43.4872C40.7553 47.6782 37.1802 55.0708 29.6677 60.1226C22.0737 65.2287 13.3567 65.9969 10.1967 61.8352C7.03915 57.6735 10.6358 50.159 18.2323 45.0484C22.6351 42.0841 27.3835 40.6314 31.2417 40.7014C29.9869 39.3209 29.2023 37.5474 29.2023 35.5863C29.2023 31.2145 32.9645 27.6741 37.6049 27.6741C42.2453 27.6741 46.0075 31.2145 46.0075 35.5863C46.0123 39.9039 42.3389 43.3945 37.7849 43.4872Z" fill="#007E3C"/>
<path d="M26.2849 48.6882C26.2849 48.6882 25.3924 44.0543 22.5947 45.3918C19.797 46.7384 21.7045 52.0817 25.5219 55.4345C32.137 52.4387 34.81 48.8463 32.377 46.8378C29.944 44.8292 26.2849 48.6882 26.2849 48.6882Z" fill="#007E3C"/>
</svg>
