<svg width="69" height="59" viewBox="0 0 69 59" fill="none" xmlns="http://www.w3.org/2000/svg">
<g clip-path="url(#clip0_38_209)">
<path d="M32.6416 19.4669C36.2634 11.5581 45.5623 8.4948 50.1724 3.09131C45.1748 12.9702 41.0869 13.8072 32.6416 19.4669Z" fill="#4CA71E"/>
<path d="M37.7963 49.9063H49.9028C50.8742 48.927 51.9411 47.9078 53.0248 46.8715C55.2934 44.6907 57.6686 42.4189 60.1057 39.5719C62.8908 36.315 63.1884 35.1876 64.0363 31.9991C64.1992 31.4012 64.3732 30.7293 64.6035 29.8923L66.0522 24.7337L66.069 24.6767C66.8439 22.3764 66.9057 20.8618 66.5856 19.985C66.4846 19.7174 66.361 19.5352 66.2094 19.4441C66.0915 19.3643 65.9399 19.3359 65.777 19.353C65.4008 19.3928 64.9741 19.632 64.5866 20.0647L60.2853 30.4503C60.246 30.5471 60.1899 30.6325 60.1281 30.7122C59.8754 31.1791 59.5329 31.629 59.0893 32.0617L51.4694 40.6879C51.0539 41.1605 50.3408 41.2004 49.8859 40.779C49.4199 40.3577 49.3806 39.6346 49.7961 39.1734L57.4272 30.5471C57.4609 30.5073 57.4946 30.4674 57.5339 30.4332C58.3256 29.6703 58.5727 28.8447 58.4323 28.2468C58.3874 28.0646 58.3088 27.9052 58.2021 27.797C58.0954 27.7002 57.9606 27.6319 57.7866 27.6205C57.1071 27.5464 56.1076 28.0589 54.8835 29.5222C54.8498 29.5621 54.8105 29.6019 54.7712 29.6418L51.812 32.2894L51.7951 32.3065C48.5944 35.3755 47.2187 36.1044 44.7087 37.4367C44.1865 37.7157 43.6081 38.0175 42.895 38.4104C42.6142 38.5698 42.3391 38.7577 42.0639 38.9627C41.7775 39.1847 41.5024 39.4182 41.2385 39.6403C39.9133 40.7733 39.217 41.69 38.8183 42.7036C38.4028 43.7569 38.2568 45.0381 38.049 46.7975C37.9648 47.5092 37.903 48.2095 37.8581 48.9099C37.83 49.2401 37.8132 49.5761 37.7963 49.9063ZM31.204 49.9063H19.092C18.1206 48.927 17.0537 47.9078 15.9699 46.8715C13.6957 44.6907 11.3261 42.4189 8.88911 39.5719C6.10395 36.315 5.80634 35.1876 4.95844 31.9991C4.80122 31.4012 4.62714 30.7293 4.39692 29.8923L2.94819 24.7337L2.93134 24.6767C2.15644 22.3764 2.09467 20.8618 2.41474 19.985C2.51581 19.7174 2.63935 19.5352 2.79096 19.4441C2.90888 19.3643 3.06049 19.3359 3.22333 19.353C3.60517 19.3871 4.03193 19.632 4.41938 20.059L8.72065 30.4446C8.75996 30.5414 8.81611 30.6268 8.87788 30.7066C9.13056 31.1734 9.47309 31.6233 9.91669 32.056L17.5422 40.6822C17.9577 41.1548 18.6708 41.1947 19.1257 40.7733C19.5917 40.352 19.6311 39.6289 19.2155 39.1677L11.5788 30.53C11.5451 30.4902 11.5114 30.4503 11.4721 30.4162C10.6804 29.6532 10.4333 28.8276 10.5737 28.2297C10.6186 28.0475 10.6972 27.8881 10.8039 27.7799C10.9106 27.6831 11.0454 27.6148 11.2194 27.6034C11.8989 27.5294 12.904 28.0418 14.1225 29.5051C14.1562 29.545 14.1955 29.5849 14.2348 29.6247L17.194 32.2724L17.2109 32.2894C20.4116 35.3584 21.7873 36.0873 24.2973 37.4196C24.8195 37.6986 25.3979 38.0004 26.111 38.3933C26.3918 38.5527 26.6669 38.7406 26.9421 38.9456C27.2285 39.1677 27.5036 39.4011 27.7675 39.6232C29.0927 40.7563 29.789 41.673 30.1877 42.6865C30.6032 43.7398 30.7492 45.021 30.957 46.7804C31.0412 47.4921 31.103 48.1925 31.1479 48.8928C31.1704 49.2401 31.1872 49.5761 31.204 49.9063ZM16.2731 50.2992C16.0991 50.4985 15.998 50.7661 15.998 51.0508V57.855C15.998 58.487 16.509 58.9994 17.1267 58.9994H32.3664C32.9897 58.9994 33.4951 58.4813 33.4951 57.855C33.4951 54.8543 33.6074 51.7341 33.3996 48.7505C33.3491 48.0046 33.2817 47.2644 33.2031 46.5298C32.9841 44.6053 32.8156 43.1989 32.2878 41.8495C31.7431 40.4659 30.8615 39.2701 29.2331 37.8751C28.9355 37.6189 28.6323 37.357 28.3122 37.1179C27.9753 36.8616 27.6103 36.6111 27.2004 36.3834C26.5378 36.0189 25.9201 35.6887 25.353 35.3869C23.0339 34.1514 21.7592 33.4795 18.7719 30.6098C18.7495 30.587 18.7214 30.5642 18.6989 30.5471L15.8127 27.9621C14.0495 25.8724 12.3256 25.1778 11.006 25.3201H11.0004C10.3547 25.3885 9.79877 25.6447 9.36078 26.0376L6.44086 19.0056H6.43525C6.39033 18.9031 6.33417 18.812 6.26118 18.7209C5.45258 17.7416 4.43061 17.1665 3.45356 17.0697C2.78535 17.0014 2.13959 17.1494 1.57246 17.5195C1.03901 17.8725 0.595404 18.4192 0.320258 19.1764C-0.168268 20.4917 -0.157037 22.5358 0.797553 25.3657L2.23505 30.4959C2.44282 31.2361 2.62812 31.9478 2.79658 32.5741C3.73432 36.1328 4.06562 37.3912 7.19892 41.0466C9.68085 43.9448 12.1066 46.2736 14.437 48.5113C15.0434 49.1149 15.6498 49.6956 16.2731 50.2992ZM31.2321 52.1953V56.7105H18.2497V52.1953C22.5678 52.1953 26.9084 52.1953 31.2321 52.1953ZM52.7272 50.2992C52.8957 50.4985 53.0024 50.7661 53.0024 51.0508V57.855C53.0024 58.487 52.497 58.9994 51.8737 58.9994H36.6396C36.0163 58.9994 35.5109 58.4813 35.5109 57.855C35.5109 54.8486 35.4099 51.7511 35.6064 48.7505C35.6569 48.0046 35.7243 47.2644 35.8029 46.5298C36.0219 44.6053 36.1904 43.1989 36.7182 41.8495C37.2629 40.4659 38.1445 39.2701 39.7729 37.8751C40.0705 37.6189 40.3737 37.357 40.6938 37.1179C41.0307 36.8616 41.3957 36.6111 41.8056 36.3834C42.4682 36.0189 43.0859 35.6887 43.653 35.3869C45.9721 34.1514 47.2468 33.4795 50.2341 30.6098C50.2565 30.587 50.2846 30.5642 50.3071 30.5471L53.1933 27.9621C54.9565 25.8724 56.6804 25.1778 57.9999 25.3201H58.0056C58.6513 25.3885 59.2072 25.6447 59.6452 26.0376L62.5595 18.9999H62.5651C62.6101 18.8974 62.6662 18.8063 62.7392 18.7152C63.5478 17.7359 64.5698 17.1608 65.5468 17.064C66.215 16.9957 66.8608 17.1437 67.4279 17.5138C67.9614 17.8668 68.405 18.4135 68.6801 19.1707C69.1686 20.486 69.1574 22.5301 68.2028 25.36L66.7653 30.4902C66.5576 31.2304 66.3723 31.9421 66.2038 32.5684C65.2661 36.1271 64.9348 37.3855 61.8015 41.0409C59.3195 43.9391 56.8937 46.2679 54.5634 48.5056C53.957 49.1149 53.3449 49.6956 52.7272 50.2992ZM37.7683 52.1953V56.7105H50.7507V52.1953C46.4269 52.1953 42.0976 52.1953 37.7683 52.1953Z" fill="#007E3C"/>
<path d="M29.9458 21.6533C28.8452 23.1394 27.9019 24.375 27.3909 25.7985C26.8911 27.1821 26.689 27.8141 27.8232 26.3793C28.8789 25.0412 29.8672 23.743 31.3103 22.5131C31.4114 22.5416 31.5237 22.5587 31.636 22.5814C44.6914 25.212 54.2036 19.2562 52.5303 -0.000488281C42.479 3.53541 28.2275 2.09486 29.7044 20.1957C29.7605 20.8676 29.811 21.3288 29.9458 21.6533ZM33.0398 19.0512C36.4539 11.5923 45.2305 9.0357 49.5823 3.93398C44.8655 13.2606 41.0078 13.7161 33.0398 19.0512Z" fill="#007E3C"/>
</g>
<defs>
<clipPath id="clip0_38_209">
<rect width="69" height="59" fill="white"/>
</clipPath>
</defs>
</svg>
