<svg width="73" height="70" viewBox="0 0 73 70" fill="none" xmlns="http://www.w3.org/2000/svg">
<g clip-path="url(#clip0_38_214)">
<path fill-rule="evenodd" clip-rule="evenodd" d="M39.4525 60.268H52.4687C53.5142 59.2186 54.6608 58.1273 55.8252 57.018C58.2668 54.6855 60.8154 52.251 63.4353 49.2049C66.4294 45.7211 66.7502 44.5159 67.6592 41.104C67.8315 40.4624 68.0216 39.7429 68.2711 38.8494L69.8276 33.3269L69.8454 33.267C70.6771 30.8085 70.7424 29.1835 70.3979 28.2481C70.2909 27.9603 70.1543 27.7684 69.9939 27.6665C69.8691 27.5825 69.7028 27.5525 69.5305 27.5705C69.1265 27.6125 68.6691 27.8703 68.2533 28.3321L63.6313 39.4431C63.5898 39.545 63.5304 39.6409 63.465 39.7249C63.1917 40.2226 62.8234 40.7083 62.3481 41.17L54.1499 50.3982C53.7043 50.9019 52.938 50.9438 52.4449 50.4941C51.9459 50.0444 51.9043 49.2709 52.3499 48.7732L60.554 39.545C60.5897 39.503 60.6253 39.4611 60.6669 39.4251C61.5164 38.6096 61.7838 37.7281 61.6353 37.0866C61.5877 36.8887 61.5046 36.7208 61.3857 36.6069C61.2729 36.5049 61.1244 36.433 60.9402 36.415C60.2095 36.337 59.1342 36.8827 57.8213 38.4477C57.7856 38.4897 57.7441 38.5316 57.7025 38.5736L54.5242 41.4038L54.5063 41.4218C51.0667 44.7078 49.5874 45.4873 46.8903 46.9084C46.3259 47.2082 45.7081 47.532 44.9417 47.9517C44.6388 48.1196 44.3417 48.3235 44.0506 48.5454C43.7417 48.7852 43.4447 49.031 43.1655 49.2709C41.7397 50.4821 40.9911 51.4655 40.5634 52.5508C40.1178 53.6781 39.9574 55.0513 39.7376 56.9341C39.6485 57.6956 39.5832 58.4451 39.5297 59.1947C39.4881 59.5544 39.4703 59.9142 39.4525 60.268ZM12.9032 28.8837C12.9032 18.6002 22.5213 24.2966 23.258 17.9886C23.3411 17.299 21.7312 14.6846 21.3688 13.4314C20.5846 12.1662 20.2995 10.1575 21.1609 8.81432C21.5055 8.28066 21.3569 6.34388 21.3569 5.61234C21.3569 3.54364 22.3253 2.35638 23.6322 1.25308C24.1134 0.85133 24.1966 0.365635 24.8917 0.191744C28.3433 -0.653724 33.9929 1.26507 33.9929 5.61234C33.9929 6.53576 33.785 8.22669 34.2781 8.95224C34.7593 9.6538 34.8187 10.6732 34.6464 11.6266C34.4563 11.7765 34.2721 11.9324 34.088 12.0943C33.6781 12.46 33.2682 12.8738 32.8642 13.3115C32.8464 13.3295 32.8285 13.3475 32.8107 13.3655L32.8048 13.3715C32.6087 13.5633 32.4661 13.8152 32.3889 14.097C32.2285 14.7026 32.4305 15.3262 32.8642 15.722C32.3533 16.6814 31.8958 17.5868 31.9731 17.9886C32.0978 18.6362 32.5731 19.2298 33.2563 19.7814V19.7934C33.2563 19.8294 33.2622 19.8594 33.2622 19.8954C33.286 20.1292 33.3216 20.3571 33.3751 20.5549C33.4345 20.7768 33.5177 20.9987 33.6246 21.2085C33.8028 21.5683 34.0464 21.8801 34.3553 22.132C34.5098 22.2579 34.6761 22.3658 34.8543 22.4498C34.9019 22.5037 34.9494 22.5577 34.991 22.6117L35.0682 22.7016C33.6602 22.9714 32.686 23.2293 31.8661 24.0507C30.9572 24.9622 30.6067 26.2394 30.6067 28.5479C30.6067 28.6618 30.6186 28.7758 30.6364 28.8837H12.9032ZM42.4882 11.2728C44.217 0.983246 54.1796 1.22909 55.6767 12.0103C56.6628 19.1099 60.8748 18.852 54.2925 18.852H51.6667C51.6548 20.6569 51.3756 21.5803 53.235 22.5997C55.0885 23.613 60.0966 24.1347 60.0966 26.7011V28.344C60.0966 28.476 59.9897 28.5839 59.859 28.5839H48.3101V28.5479C48.3101 26.2394 47.9596 24.9622 47.0507 24.0507C46.3319 23.3312 45.5002 23.0494 44.3595 22.8095C44.5853 22.7076 44.7992 22.5937 45.0011 22.4737C46.6348 21.4844 46.3556 20.495 46.3438 18.858H45.6368C45.6249 18.7741 45.613 18.6961 45.5952 18.6182C45.518 18.2584 45.3932 17.9106 45.2091 17.5988C45.1794 17.5448 45.1437 17.4909 45.1081 17.4369V17.1971C45.3279 16.3756 45.3814 15.4761 45.2447 14.6367C45.0843 13.6953 44.6803 12.8138 43.9853 12.1542C43.6288 11.8124 43.2308 11.5606 42.7971 11.3867C42.6902 11.3387 42.5892 11.3028 42.4882 11.2728ZM33.9395 14.5167C36.4108 11.7645 39.2624 10.2714 41.401 12.7179C41.9595 12.7419 42.4644 12.9337 42.8803 13.3295C43.7595 14.163 43.8962 15.728 43.4922 16.9632V18.0485C43.7655 18.2284 43.9377 18.5702 44.0209 18.954C44.0744 19.1998 44.0863 19.4756 44.0625 19.7395C44.0387 20.0093 43.9674 20.2671 43.8605 20.483C43.7061 20.7888 43.4744 21.0047 43.1595 21.0466C42.8506 21.3764 42.5476 21.7362 42.2803 22.078C41.9832 22.4557 41.7337 22.8095 41.5555 23.0973C41.4189 23.3192 41.4604 23.4691 41.5139 23.637C41.5377 23.721 41.5614 23.8109 41.5793 23.9008C42.1199 24.0208 42.607 24.1107 43.0466 24.1947C45.8328 24.7223 46.7002 24.8842 46.7002 28.5419C46.7002 28.7278 46.5517 28.8777 46.3675 28.8777H32.5553C32.3711 28.8777 32.2226 28.7278 32.2226 28.5419C32.2226 24.8842 33.084 24.7163 35.8761 24.1947C36.3158 24.1107 36.8148 24.0148 37.3554 23.9008C37.3732 23.8289 37.397 23.7629 37.4207 23.691C37.4801 23.5291 37.5336 23.3672 37.3673 23.0973C37.189 22.8035 36.9395 22.4498 36.6425 22.078C36.3752 21.7362 36.0722 21.3824 35.7633 21.0466C35.4484 20.9987 35.2167 20.7828 35.0623 20.483C34.9553 20.2731 34.89 20.0093 34.8603 19.7395C34.8365 19.4756 34.8484 19.2058 34.9019 18.954C34.9791 18.5702 35.1514 18.2344 35.4246 18.0545L35.0623 17.8387C34.9613 16.7533 35.2464 14.8765 33.9395 14.5167ZM33.5474 60.268H20.5252C19.4797 59.2186 18.3331 58.1273 17.1687 57.018C14.7271 54.6855 12.1785 52.251 9.55859 49.2049C6.56445 45.7211 6.24365 44.5159 5.33472 41.104C5.16244 40.4624 4.97233 39.7429 4.72282 38.8494L3.16634 33.3269L3.14852 33.267C2.31681 30.8085 2.25147 29.1835 2.59603 28.2481C2.70296 27.9603 2.8396 27.7684 3 27.6665C3.12476 27.5825 3.2911 27.5525 3.46338 27.5705C3.86735 27.6125 4.32479 27.8703 4.74064 28.3321L9.36255 39.4431C9.40414 39.545 9.46354 39.6409 9.52889 39.7249C9.80217 40.2226 10.1705 40.7083 10.6458 41.17L18.844 50.3982C19.2896 50.9019 20.0559 50.9438 20.549 50.4941C21.0421 50.0444 21.0896 49.2709 20.644 48.7732L12.4517 39.533C12.4161 39.491 12.3805 39.4491 12.3389 39.4131C11.4893 38.5976 11.222 37.7162 11.3705 37.0746C11.4181 36.8767 11.5012 36.7088 11.62 36.5949C11.7329 36.4929 11.8814 36.421 12.0656 36.403C12.7963 36.325 13.8775 36.8707 15.1845 38.4357C15.1845 38.4357 15.2974 38.5496 15.3092 38.5616L18.4876 41.3918L18.5054 41.4098C21.9451 44.6958 23.4243 45.4753 26.1214 46.8964C26.6858 47.1962 27.3036 47.52 28.07 47.9397C28.373 48.1076 28.67 48.3115 28.9611 48.5334C29.27 48.7732 29.5671 49.0191 29.8463 49.2589C31.2721 50.4701 32.0206 51.4535 32.4483 52.5388C32.8939 53.6661 33.0543 55.0393 33.2741 56.9221C33.3632 57.6836 33.4286 58.4331 33.482 59.1827C33.5117 59.5544 33.5295 59.9142 33.5474 60.268ZM17.4954 60.6877C17.3113 60.9036 17.1984 61.1854 17.1984 61.4912V68.7706C17.1984 69.4482 17.745 69.9939 18.4103 69.9939H34.7949C35.4662 69.9939 36.0068 69.4422 36.0068 68.7706V61.4193C36.0068 60.6397 35.9593 59.8003 35.9058 59.0208C35.8524 58.2233 35.7811 57.4318 35.692 56.6463C35.4543 54.5896 35.2761 53.0845 34.7058 51.6394C34.1177 50.1583 33.1731 48.8811 31.4206 47.3881C31.0998 47.1123 30.773 46.8364 30.4285 46.5786C30.0661 46.3028 29.674 46.0389 29.2344 45.7931C28.5215 45.4033 27.8561 45.0495 27.2502 44.7257C24.755 43.4066 23.3887 42.687 20.1747 39.617C20.151 39.593 20.1213 39.569 20.0975 39.551L16.9964 36.7867C15.1013 34.5501 13.2478 33.8066 11.828 33.9625H11.822C11.127 34.0345 10.5329 34.3103 10.0576 34.73L6.92684 27.1988H6.9209C6.87337 27.0908 6.81397 26.9889 6.73674 26.893C5.86939 25.8436 4.77035 25.232 3.71883 25.1241C3 25.0521 2.30493 25.208 1.69898 25.6038C1.12272 25.9815 0.647463 26.5692 0.350425 27.3787C-0.172361 28.7878 -0.16048 30.9764 0.86133 34.0045L2.40593 39.491C2.63168 40.2825 2.82772 41.0441 3.01188 41.7156C4.02181 45.5233 4.37826 46.8724 7.74667 50.7819C10.4141 53.882 13.0221 56.3764 15.5291 58.7689C16.1766 59.4165 16.8301 60.0461 17.4954 60.6877ZM19.8123 62.7144C19.9727 62.7504 20.1391 62.7504 20.3054 62.7144H33.5771V67.5474H19.6222V62.7144H19.8123ZM55.5044 60.6877C55.6886 60.9036 55.8014 61.1854 55.8014 61.4912V68.7706C55.8014 69.4482 55.2608 69.9939 54.5895 69.9939H38.2109C37.5396 69.9939 36.9989 69.4422 36.9989 68.7706V61.4193C36.9989 61.3773 36.9989 61.3293 37.0049 61.2873C37.0227 60.5018 37.0524 59.7403 37.0999 59.0208C37.1534 58.2233 37.2247 57.4318 37.3138 56.6463C37.5514 54.5896 37.7297 53.0845 38.3 51.6394C38.8881 50.1583 39.8327 48.8811 41.5852 47.3881C41.906 47.1123 42.2327 46.8364 42.5773 46.5786C42.9397 46.3028 43.3318 46.0389 43.7714 45.7931C44.4843 45.4033 45.1497 45.0495 45.7556 44.7257C48.2507 43.4066 49.6171 42.687 52.8311 39.617C52.8548 39.593 52.8845 39.569 52.9083 39.551L56.0094 36.7867C57.9045 34.5501 59.758 33.8066 61.1778 33.9625H61.1838C61.8788 34.0345 62.4729 34.3103 62.9482 34.73L66.0789 27.1988H66.0849C66.1324 27.0908 66.1918 26.9889 66.269 26.893C67.1364 25.8436 68.2354 25.232 69.2869 25.1241C70.0058 25.0521 70.7008 25.208 71.3068 25.6038C71.8831 25.9815 72.3583 26.5692 72.6554 27.3787C73.1781 28.7878 73.1663 30.9764 72.1445 34.0045L70.5999 39.491C70.3741 40.2825 70.1781 41.0441 69.9939 41.7156C68.984 45.5233 68.6275 46.8724 65.2591 50.7819C62.5917 53.882 59.9837 56.3764 57.4767 58.7689C56.8232 59.4165 56.1698 60.0461 55.5044 60.6877ZM53.1875 62.7144C53.0271 62.7504 52.8608 62.7504 52.6944 62.7144H39.4228V67.5474H53.3776V62.7144H53.1875Z" fill="#007E3C"/>
</g>
<defs>
<clipPath id="clip0_38_214">
<rect width="73" height="70" fill="white"/>
</clipPath>
</defs>
</svg>
