<svg width="57" height="48" viewBox="0 0 57 48" fill="none" xmlns="http://www.w3.org/2000/svg">
<path d="M25.0908 21.8271L24.6523 21.9912C24.7015 22.375 24.7643 22.7252 24.7871 23.0859C24.838 23.8941 24.4737 24.6453 23.8809 25.248C23.4522 25.6703 22.9511 25.9443 22.4082 26.1953C21.8745 26.442 21.2772 26.6754 20.7266 27.0049C18.5036 28.3351 17.3688 31.1902 18.3018 33.625L18.3037 33.6279C18.5912 34.3483 18.8057 34.8024 18.9502 35.0791C19.0225 35.2175 19.077 35.3125 19.1152 35.374C19.1344 35.4048 19.1493 35.4275 19.1602 35.4434C19.1656 35.4512 19.1704 35.4572 19.1738 35.4619C19.1755 35.4643 19.1775 35.4662 19.1787 35.4678L19.1797 35.4697L19.1807 35.4707V35.4717L19.2266 35.5312L19.2979 35.5537H19.2988L19.2998 35.5547H19.3018C19.3031 35.5551 19.3047 35.556 19.3066 35.5566C19.3109 35.5579 19.3172 35.5596 19.3242 35.5615C19.3381 35.5654 19.3573 35.5704 19.3818 35.5762C19.4317 35.5879 19.5036 35.6033 19.5967 35.6172C19.7833 35.6449 20.0561 35.6683 20.4121 35.6582C21.1246 35.638 22.1682 35.4806 23.5244 34.9434C23.9624 34.7699 24.3586 34.5463 24.6436 34.3672C24.7656 34.2905 24.8676 34.2201 24.9453 34.166C25.4513 34.6491 26.6321 35.7046 28.1963 36.2568C30.6432 37.1198 33.2612 36.6422 35.2529 35.0195C37.39 33.2795 38.384 30.7518 39.0176 28.2666L38.6025 28.0498C37.7855 28.9987 37.0835 29.6959 35.8047 29.7363C35.1478 29.757 34.5654 29.5956 33.9746 29.3789C33.396 29.1667 32.7769 28.8866 32.1182 28.7148C30.5957 28.318 28.9352 28.5827 27.5938 29.3564C27.6014 29.2723 27.6107 29.1878 27.6152 29.1025C27.7625 26.4015 26.5324 23.9714 25.0908 21.8271ZM14.9492 43.6152L14.8184 43.5488C6.15229 39.1111 0.241211 30.3064 0.241211 20.1973C0.241398 19.6198 0.727925 19.1377 1.3457 19.1377H37.0811L37.1533 19.0332L44.2871 8.63867L44.3066 8.61133L44.3174 8.5791L46.5674 1.86719C46.6694 1.56339 46.9103 1.31758 47.2256 1.20215H47.2266C47.5421 1.08686 47.8949 1.11665 48.1846 1.28223L56.2207 5.88086C56.5096 6.04626 56.7017 6.32726 56.748 6.64258V6.64355C56.7939 6.95892 56.6898 7.27885 56.4609 7.51367L51.4541 12.6475L51.4307 12.6719L51.4141 12.7012L48.1104 18.7822L47.918 19.1377H53.8105C54.4283 19.1377 54.9149 19.6198 54.915 20.1973C54.915 30.3058 49.0044 39.1102 40.3389 43.5479L40.208 43.6152V44.0576C40.2079 45.7333 38.8003 47.1045 37.0459 47.1045H18.1104C16.3573 47.1045 14.9494 45.7333 14.9492 44.0576V43.6152Z" fill="#007E3C" stroke="#007E3C" stroke-width="0.48167"/>
</svg>
