<svg width="63" height="53" viewBox="0 0 63 53" fill="none" xmlns="http://www.w3.org/2000/svg">
<path d="M38.0178 9.63498C40.9307 11.4025 42.9733 14.3936 43.3452 17.8656C44.5332 18.4028 45.8517 18.7117 47.2496 18.7117C52.353 18.7117 56.4893 14.7086 56.4893 9.77042C56.4893 4.83144 52.353 0.828369 47.2496 0.828369C42.195 0.829891 38.0948 4.76144 38.0178 9.63498ZM31.9647 27.9437C37.068 27.9437 41.2043 23.9398 41.2043 19.0016C41.2043 14.0634 37.0672 10.0603 31.9647 10.0603C26.8621 10.0603 22.7234 14.0642 22.7234 19.0024C22.7234 23.9406 26.8621 27.9437 31.9647 27.9437ZM35.884 28.5531H28.0438C21.5205 28.5531 16.2135 33.69 16.2135 40.0031V49.2822L16.2379 49.4276L16.8983 49.6277C23.1236 51.5101 28.532 52.1379 32.9836 52.1379C41.6784 52.1379 46.7181 49.7388 47.0287 49.5858L47.6459 49.2838H47.7119V40.0031C47.7143 33.69 42.4073 28.5531 35.884 28.5531ZM51.1705 19.322H43.3908C43.3067 22.3343 41.978 25.0469 39.8764 26.9979C45.6748 28.6665 49.9173 33.8703 49.9173 40.0168V42.8763C57.5987 42.6039 62.0251 40.4969 62.3168 40.3554L62.934 40.0526H63V30.7704C63 24.458 57.693 19.322 51.1705 19.322ZM15.752 18.7132C17.5595 18.7132 19.2412 18.2027 20.6659 17.333C21.1187 14.4743 22.7022 11.9763 24.9641 10.2749C24.9736 10.1075 24.9901 9.94162 24.9901 9.7727C24.9901 4.83373 20.853 0.830652 15.752 0.830652C10.6478 0.830652 6.51228 4.83373 6.51228 9.7727C6.51228 14.7094 10.6478 18.7132 15.752 18.7132ZM24.0498 26.9979C21.9584 25.0568 20.6344 22.3587 20.5377 19.3646C20.2492 19.344 19.9638 19.322 19.6697 19.322H11.8303C5.307 19.322 0 24.458 0 30.7704V40.051L0.0243729 40.1941L0.6848 40.3957C5.67888 41.9046 10.136 42.6 14.0073 42.8192V40.0168C14.0089 33.8703 18.2498 28.668 24.0498 26.9979Z" fill="#007E3C"/>
</svg>
