<svg width="95" height="95" viewBox="0 0 95 95" fill="none" xmlns="http://www.w3.org/2000/svg">
<g filter="url(#filter0_i_410_7)">
<circle cx="47.5" cy="47.5" r="47.5" fill="#F2F2F2"/>
</g>
<path d="M55.0178 34.635C57.9307 36.4025 59.9733 39.3936 60.3452 42.8656C61.5332 43.4028 62.8517 43.7117 64.2496 43.7117C69.353 43.7117 73.4893 39.7086 73.4893 34.7704C73.4893 29.8314 69.353 25.8284 64.2496 25.8284C59.195 25.8299 55.0948 29.7614 55.0178 34.635ZM48.9647 52.9437C54.068 52.9437 58.2043 48.9398 58.2043 44.0016C58.2043 39.0634 54.0672 35.0603 48.9647 35.0603C43.8621 35.0603 39.7234 39.0642 39.7234 44.0024C39.7234 48.9406 43.8621 52.9437 48.9647 52.9437ZM52.884 53.5531H45.0438C38.5205 53.5531 33.2135 58.69 33.2135 65.0031V74.2822L33.2379 74.4276L33.8983 74.6277C40.1236 76.5101 45.532 77.1379 49.9836 77.1379C58.6784 77.1379 63.7181 74.7388 64.0287 74.5858L64.6459 74.2838H64.7119V65.0031C64.7143 58.69 59.4073 53.5531 52.884 53.5531ZM68.1705 44.322H60.3908C60.3067 47.3343 58.978 50.0469 56.8764 51.9979C62.6748 53.6665 66.9173 58.8703 66.9173 65.0168V67.8763C74.5987 67.6039 79.0251 65.4969 79.3168 65.3554L79.934 65.0526H80V55.7704C80 49.458 74.693 44.322 68.1705 44.322ZM32.752 43.7132C34.5595 43.7132 36.2412 43.2027 37.6659 42.333C38.1187 39.4743 39.7022 36.9763 41.9641 35.2749C41.9736 35.1075 41.9901 34.9416 41.9901 34.7727C41.9901 29.8337 37.853 25.8307 32.752 25.8307C27.6478 25.8307 23.5123 29.8337 23.5123 34.7727C23.5123 39.7094 27.6478 43.7132 32.752 43.7132ZM41.0498 51.9979C38.9584 50.0568 37.6344 47.3587 37.5377 44.3646C37.2492 44.344 36.9638 44.322 36.6697 44.322H28.8303C22.307 44.322 17 49.458 17 55.7704V65.051L17.0244 65.1941L17.6848 65.3957C22.6789 66.9046 27.136 67.6 31.0073 67.8192V65.0168C31.0089 58.8703 35.2498 53.668 41.0498 51.9979Z" fill="#007E3C"/>
<defs>
<filter id="filter0_i_410_7" x="0" y="0" width="95" height="99" filterUnits="userSpaceOnUse" color-interpolation-filters="sRGB">
<feFlood flood-opacity="0" result="BackgroundImageFix"/>
<feBlend mode="normal" in="SourceGraphic" in2="BackgroundImageFix" result="shape"/>
<feColorMatrix in="SourceAlpha" type="matrix" values="0 0 0 0 0 0 0 0 0 0 0 0 0 0 0 0 0 0 127 0" result="hardAlpha"/>
<feOffset dy="4"/>
<feGaussianBlur stdDeviation="2"/>
<feComposite in2="hardAlpha" operator="arithmetic" k2="-1" k3="1"/>
<feColorMatrix type="matrix" values="0 0 0 0 0 0 0 0 0 0 0 0 0 0 0 0 0 0 0.25 0"/>
<feBlend mode="normal" in2="shape" result="effect1_innerShadow_410_7"/>
</filter>
</defs>
</svg>
