<svg width="95" height="95" viewBox="0 0 95 95" fill="none" xmlns="http://www.w3.org/2000/svg">
<g filter="url(#filter0_i_410_6)">
<circle cx="47.5" cy="47.5" r="47.5" fill="#F2F2F2"/>
</g>
<path d="M32.9758 55.2285L33.6185 57.7245H33.6989L34.3569 55.2285H36.9432L34.8352 60.3912V62.3198H32.4938V60.3912L30.3857 55.2285H32.9758ZM42.3835 59.642H40.0421V60.5025H42.9114V62.3198H37.7007V55.2285H42.8502L42.5595 57.0421H40.0421V57.9953H42.3835V59.642ZM45.8267 62.3198H43.3552L45.2681 55.2285H48.8682L50.7811 62.3198H48.2943L48.0227 61.2071H46.1098L45.8382 62.3198H45.8267ZM46.9936 57.4056L46.5153 59.3898H47.5904L47.1236 57.4056H46.9936ZM57.7632 62.3198H55.1884L54.2243 60.2095H53.727V62.3198H51.3856V55.2285H55.0698C56.7481 55.2285 57.5872 56.0568 57.5872 57.7134C57.5872 58.8483 57.2046 59.5938 56.4969 59.9387L57.7632 62.3013V62.3198ZM53.727 57.0421V58.4589H54.2626C54.4714 58.4703 54.6805 58.4426 54.8785 58.3773C54.9468 58.3373 55.0013 58.2786 55.0353 58.2087C55.0694 58.1388 55.0814 58.0607 55.0698 57.9842V57.5168C55.0811 57.4409 55.0689 57.3634 55.0349 57.2941C55.0008 57.2248 54.9465 57.1668 54.8785 57.1274C54.6809 57.0604 54.4717 57.0315 54.2626 57.0421H53.727ZM58.4633 62.2011L58.7923 60.3467C59.4242 60.5102 60.0743 60.5987 60.7282 60.61C61.1922 60.6166 61.6562 60.5931 62.117 60.5395V59.9461L61.061 59.8571C60.1122 59.7718 59.458 59.553 59.1022 59.1932C58.7173 58.7491 58.5265 58.1769 58.5704 57.5984C58.5704 56.6304 58.7847 55.9665 59.217 55.5994C59.6493 55.2322 60.3877 55.0579 61.4245 55.0579C62.3698 55.0477 63.3133 55.1422 64.2365 55.3397L63.9419 57.1571C63.3657 57.0567 62.7825 56.9997 62.1973 56.9865C61.8266 56.983 61.4561 57.0016 61.0878 57.0421V57.5984L61.9295 57.6763C62.951 57.7765 63.6549 58.0138 64.049 58.3884C64.2502 58.596 64.4056 58.8412 64.5056 59.1091C64.6056 59.3769 64.6481 59.6618 64.6305 59.9461C64.6417 60.3573 64.5756 60.767 64.4354 61.1552C64.3319 61.4316 64.1704 61.6842 63.961 61.897C63.7407 62.0789 63.4781 62.2061 63.1958 62.2679C62.9077 62.352 62.6117 62.4079 62.3121 62.4348C62.0596 62.4348 61.7229 62.4607 61.3021 62.4607C60.3524 62.4683 59.4051 62.37 58.4786 62.1677L58.4633 62.2011Z" fill="#007E3C"/>
<path d="M55.6317 25.5614C55.6317 24.6936 56.5193 24 57.6059 24C58.6924 24 59.58 24.7084 59.58 25.5614V32.4228C59.58 33.2907 58.7 33.9842 57.6059 33.9842C56.5117 33.9842 55.6317 33.2795 55.6317 32.4228V25.5614ZM46.4116 50.5442H36.5333V47.2062H40.0684V41.6801L36.5525 41.9323V38.5943L41.0975 37.5113H44.2002V47.21H46.4116V50.5479V50.5442ZM48.0643 50.3328L48.619 46.8947C49.697 47.1876 50.8091 47.3459 51.9284 47.3657C52.6958 47.3691 53.4627 47.3233 54.2239 47.2285V46.1863L52.7394 46.0194C51.1058 45.8377 49.9963 45.5447 49.411 45.133C48.8256 44.7213 48.5311 43.9907 48.5311 42.9337C48.5311 42.7828 48.5974 40.9754 48.73 37.5113H57.7245L57.4299 41.0978L52.7471 40.8048V41.8692L53.8948 42.0139C55.6203 42.2401 56.8139 42.6852 57.472 43.3602C58.13 44.0352 58.459 44.9772 58.459 46.1863C58.4795 46.9413 58.3656 47.6941 58.1223 48.4116C57.9569 48.919 57.6846 49.3875 57.3228 49.7876C56.9553 50.1313 56.5037 50.3789 56.0105 50.5071C55.5254 50.6577 55.0253 50.7584 54.5184 50.8075C54.0899 50.8446 53.5199 50.8595 52.8083 50.8595C51.2105 50.8767 49.6167 50.6998 48.0643 50.3328ZM35.3512 25.5614C35.3512 24.6936 36.2426 24 37.3253 24C38.408 24 39.3032 24.7084 39.3032 25.5614V32.4228C39.3032 33.2907 38.4195 33.9842 37.3291 33.9842C36.2387 33.9842 35.355 33.2795 35.355 32.4228V25.5614H35.3512ZM26.5862 65.2795C26.5854 65.5387 26.6899 65.7878 26.877 65.973C26.9706 66.0639 27.0823 66.1354 27.2053 66.1832C27.3283 66.231 27.46 66.2541 27.5924 66.2512H67.3808C67.6464 66.2524 67.9019 66.1525 68.0924 65.973C68.1861 65.8822 68.2599 65.774 68.3092 65.6547C68.3585 65.5355 68.3824 65.4079 68.3793 65.2795V31.529C68.3803 31.4033 68.3556 31.2788 68.3066 31.1625C68.2576 31.0462 68.1853 30.9405 68.0938 30.8515C68.0024 30.7625 67.8936 30.6919 67.7738 30.644C67.6541 30.596 67.5257 30.5716 67.3961 30.5721H64.2092C63.6009 30.5721 63.115 29.7005 63.115 29.1108C63.1145 28.9714 63.1425 28.8332 63.1973 28.7043C63.2521 28.5754 63.3327 28.4582 63.4344 28.3596C63.5361 28.2611 63.6569 28.1829 63.7899 28.1298C63.9229 28.0767 64.0654 28.0496 64.2092 28.0501H67.8093C68.6537 28.0559 69.4617 28.3836 70.0588 28.9625C70.6559 29.5413 70.994 30.3247 71 31.1432V65.7134C70.994 66.5319 70.6559 67.3153 70.0588 67.8942C69.4617 68.473 68.6537 68.8007 67.8093 68.8066H27.1907C26.3437 68.8007 25.5333 68.4709 24.9358 67.8889C24.3383 67.3069 24.002 66.5197 24 65.6986V31.1284C24.0007 30.7227 24.0842 30.3211 24.2457 29.9468C24.4073 29.5725 24.6436 29.2329 24.9411 28.9476C25.5371 28.3671 26.3459 28.039 27.1907 28.0352H31.051C31.1948 28.0347 31.3373 28.0618 31.4703 28.115C31.6033 28.1681 31.7241 28.2462 31.8258 28.3448C31.9275 28.4434 32.0081 28.5605 32.0629 28.6895C32.1177 28.8184 32.1456 28.9565 32.1451 29.096C32.1451 29.6857 31.6593 30.5572 31.051 30.5572H27.6077C27.3411 30.5566 27.0846 30.6563 26.8923 30.8354C26.7984 30.9263 26.7243 31.0345 26.6744 31.1536C26.6244 31.2727 26.5997 31.4004 26.6015 31.529C26.6015 42.2141 26.6015 54.5461 26.6015 65.2795H26.5862ZM43.722 30.5424C43.1137 30.5424 42.6278 29.6708 42.6278 29.0811C42.6273 28.9417 42.6553 28.8035 42.7101 28.6746C42.7649 28.5457 42.8455 28.4286 42.9472 28.33C43.0489 28.2314 43.1697 28.1533 43.3027 28.1001C43.4357 28.047 43.5782 28.0199 43.722 28.0204H51.0714C51.2152 28.0199 51.3577 28.047 51.4907 28.1001C51.6237 28.1533 51.7445 28.2314 51.8462 28.33C51.9479 28.4286 52.0285 28.5457 52.0833 28.6746C52.1381 28.8035 52.1661 28.9417 52.1656 29.0811C52.1656 29.6708 51.6797 30.5424 51.0714 30.5424H43.722Z" fill="#007E3C"/>
<defs>
<filter id="filter0_i_410_6" x="0" y="0" width="95" height="99" filterUnits="userSpaceOnUse" color-interpolation-filters="sRGB">
<feFlood flood-opacity="0" result="BackgroundImageFix"/>
<feBlend mode="normal" in="SourceGraphic" in2="BackgroundImageFix" result="shape"/>
<feColorMatrix in="SourceAlpha" type="matrix" values="0 0 0 0 0 0 0 0 0 0 0 0 0 0 0 0 0 0 127 0" result="hardAlpha"/>
<feOffset dy="4"/>
<feGaussianBlur stdDeviation="2"/>
<feComposite in2="hardAlpha" operator="arithmetic" k2="-1" k3="1"/>
<feColorMatrix type="matrix" values="0 0 0 0 0 0 0 0 0 0 0 0 0 0 0 0 0 0 0.25 0"/>
<feBlend mode="normal" in2="shape" result="effect1_innerShadow_410_6"/>
</filter>
</defs>
</svg>
