<svg width="47" height="45" viewBox="0 0 47 45" fill="none" xmlns="http://www.w3.org/2000/svg">
<path d="M8.97581 31.2285L9.61855 33.7245H9.69889L10.3569 31.2285H12.9432L10.8352 36.3912V38.3198H8.49376V36.3912L6.38574 31.2285H8.97581ZM18.3835 35.642H16.0421V36.5025H18.9114V38.3198H13.7007V31.2285H18.8502L18.5595 33.0421H16.0421V33.9953H18.3835V35.642ZM21.8267 38.3198H19.3552L21.2681 31.2285H24.8682L26.7811 38.3198H24.2943L24.0227 37.2071H22.1098L21.8382 38.3198H21.8267ZM22.9936 33.4056L22.5153 35.3898H23.5904L23.1236 33.4056H22.9936ZM33.7632 38.3198H31.1884L30.2243 36.2095H29.727V38.3198H27.3856V31.2285H31.0698C32.7481 31.2285 33.5872 32.0568 33.5872 33.7134C33.5872 34.8483 33.2046 35.5938 32.4969 35.9387L33.7632 38.3013V38.3198ZM29.727 33.0421V34.4589H30.2626C30.4714 34.4703 30.6805 34.4426 30.8785 34.3773C30.9468 34.3373 31.0013 34.2786 31.0353 34.2087C31.0694 34.1388 31.0814 34.0607 31.0698 33.9842V33.5168C31.0811 33.4409 31.0689 33.3634 31.0349 33.2941C31.0008 33.2248 30.9465 33.1668 30.8785 33.1274C30.6809 33.0604 30.4717 33.0315 30.2626 33.0421H29.727ZM34.4633 38.2011L34.7923 36.3467C35.4242 36.5102 36.0743 36.5987 36.7282 36.61C37.1922 36.6166 37.6562 36.5931 38.117 36.5395V35.9461L37.061 35.8571C36.1122 35.7718 35.458 35.553 35.1022 35.1932C34.7173 34.7491 34.5265 34.1769 34.5704 33.5984C34.5704 32.6304 34.7847 31.9665 35.217 31.5994C35.6493 31.2322 36.3877 31.0579 37.4245 31.0579C38.3698 31.0477 39.3133 31.1422 40.2365 31.3397L39.9419 33.1571C39.3657 33.0567 38.7825 32.9997 38.1973 32.9865C37.8266 32.983 37.4561 33.0016 37.0878 33.0421V33.5984L37.9295 33.6763C38.951 33.7765 39.6549 34.0138 40.049 34.3884C40.2502 34.596 40.4056 34.8412 40.5056 35.1091C40.6056 35.3769 40.6481 35.6618 40.6305 35.9461C40.6417 36.3573 40.5756 36.767 40.4354 37.1552C40.3319 37.4316 40.1704 37.6842 39.961 37.897C39.7407 38.0789 39.4781 38.2061 39.1958 38.2679C38.9077 38.352 38.6117 38.4079 38.3121 38.4348C38.0596 38.4348 37.7229 38.4607 37.3021 38.4607C36.3524 38.4683 35.4051 38.37 34.4786 38.1677L34.4633 38.2011Z" fill="#007E3C"/>
<path d="M31.6317 1.56142C31.6317 0.693554 32.5193 0 33.6059 0C34.6924 0 35.58 0.70839 35.58 1.56142V8.42279C35.58 9.29066 34.7 9.98421 33.6059 9.98421C32.5117 9.98421 31.6317 9.27953 31.6317 8.42279V1.56142ZM22.4116 26.5442H12.5333V23.2062H16.0684V17.6801L12.5525 17.9323V14.5943L17.0975 13.5113H20.2002V23.21H22.4116V26.5479V26.5442ZM24.0643 26.3328L24.619 22.8947C25.697 23.1876 26.8091 23.3459 27.9284 23.3657C28.6958 23.3691 29.4627 23.3233 30.2239 23.2285V22.1863L28.7394 22.0194C27.1058 21.8377 25.9963 21.5447 25.411 21.133C24.8256 20.7213 24.5311 19.9907 24.5311 18.9337C24.5311 18.7828 24.5974 16.9754 24.73 13.5113H33.7245L33.4299 17.0978L28.7471 16.8048V17.8692L29.8948 18.0139C31.6203 18.2401 32.8139 18.6852 33.472 19.3602C34.13 20.0352 34.459 20.9772 34.459 22.1863C34.4795 22.9413 34.3656 23.6941 34.1223 24.4116C33.9569 24.919 33.6846 25.3875 33.3228 25.7876C32.9553 26.1313 32.5037 26.3789 32.0105 26.5071C31.5254 26.6577 31.0253 26.7584 30.5184 26.8075C30.0899 26.8446 29.5199 26.8595 28.8083 26.8595C27.2105 26.8767 25.6167 26.6998 24.0643 26.3328ZM11.3512 1.56142C11.3512 0.693554 12.2426 0 13.3253 0C14.408 0 15.3032 0.70839 15.3032 1.56142V8.42279C15.3032 9.29066 14.4195 9.98421 13.3291 9.98421C12.2387 9.98421 11.355 9.27953 11.355 8.42279V1.56142H11.3512ZM2.58624 41.2795C2.5854 41.5387 2.68985 41.7878 2.877 41.973C2.97065 42.0639 3.08233 42.1354 3.2053 42.1832C3.32827 42.231 3.45997 42.2541 3.59243 42.2512H43.3808C43.6464 42.2524 43.9019 42.1525 44.0924 41.973C44.1861 41.8822 44.2599 41.774 44.3092 41.6547C44.3585 41.5355 44.3824 41.4079 44.3793 41.2795V7.52896C44.3803 7.40334 44.3556 7.27877 44.3066 7.16247C44.2576 7.04618 44.1853 6.94047 44.0938 6.85146C44.0024 6.76246 43.8936 6.69194 43.7738 6.64398C43.6541 6.59602 43.5257 6.57158 43.3961 6.57207H40.2092C39.6009 6.57207 39.115 5.7005 39.115 5.11079C39.1145 4.97135 39.1425 4.8332 39.1973 4.70429C39.2521 4.57537 39.3327 4.45824 39.4344 4.35965C39.5361 4.26105 39.6569 4.18294 39.7899 4.1298C39.9229 4.07667 40.0654 4.04957 40.2092 4.05006H43.8093C44.6537 4.05589 45.4617 4.38364 46.0588 4.96247C46.6559 5.54129 46.994 6.32468 47 7.14324V41.7134C46.994 42.5319 46.6559 43.3153 46.0588 43.8942C45.4617 44.473 44.6537 44.8007 43.8093 44.8066H3.19072C2.34371 44.8007 1.53333 44.4709 0.935825 43.8889C0.338316 43.3069 0.00199516 42.5197 0 41.6986L0 7.1284C0.000690063 6.72268 0.084206 6.3211 0.245734 5.94681C0.407262 5.57252 0.643607 5.23293 0.941148 4.9476C1.53706 4.36708 2.34592 4.03902 3.19072 4.03522H7.05096C7.19479 4.03473 7.3373 4.06184 7.47028 4.11497C7.60326 4.1681 7.72408 4.24622 7.82579 4.34481C7.92749 4.44341 8.00807 4.56054 8.06288 4.68945C8.11769 4.81837 8.14564 4.95652 8.14514 5.09595C8.14514 5.68566 7.65926 6.55724 7.05096 6.55724H3.60773C3.34109 6.55661 3.08461 6.65634 2.89231 6.8354C2.79842 6.92625 2.72431 7.03445 2.67436 7.15359C2.62442 7.27273 2.59966 7.40037 2.60155 7.52896C2.60155 18.2141 2.60155 30.5461 2.60155 41.2795H2.58624ZM19.722 6.5424C19.1137 6.5424 18.6278 5.67083 18.6278 5.08112C18.6273 4.94168 18.6553 4.80353 18.7101 4.67462C18.7649 4.5457 18.8455 4.42857 18.9472 4.32998C19.0489 4.23138 19.1697 4.15327 19.3027 4.10013C19.4357 4.047 19.5782 4.0199 19.722 4.02039H27.0714C27.2152 4.0199 27.3577 4.047 27.4907 4.10013C27.6237 4.15327 27.7445 4.23138 27.8462 4.32998C27.9479 4.42857 28.0285 4.5457 28.0833 4.67462C28.1381 4.80353 28.1661 4.94168 28.1656 5.08112C28.1656 5.67083 27.6797 6.5424 27.0714 6.5424H19.722Z" fill="#007E3C"/>
</svg>
