<svg width="57" height="46" viewBox="0 0 57 46" fill="none" xmlns="http://www.w3.org/2000/svg">
<path fill-rule="evenodd" clip-rule="evenodd" d="M26.8394 7.33371C30.3741 3.76881 32.8465 0.692681 38.2923 0.0873201C48.5159 -1.04717 57.9185 9.06908 52.7556 19.0284C52.6768 19.1808 52.5886 19.3378 52.5005 19.4947H48.7386V13.764C48.7386 12.3201 48.1309 11.0107 47.1475 10.0601C46.1687 9.11392 44.8096 8.52201 43.316 8.52201H36.4786C34.9942 8.52201 33.6351 9.11392 32.6517 10.069C31.6729 11.0197 31.0653 12.3246 31.0653 13.7595V19.4902H25.1278C23.6341 19.4902 22.2796 20.0777 21.2962 21.0283C20.3128 21.9789 19.7052 23.2883 19.7052 24.7277V31.3463C19.7052 32.7902 20.3128 34.0996 21.2962 35.0503C22.2796 36.0009 23.6341 36.5883 25.1278 36.5883H31.056V41.7585L26.8394 45.7988L20.4984 39.9021C12.8678 32.7992 0.417626 23.8533 0.00942389 12.773C-0.278173 5.01092 6.05824 0.0379944 13.3456 0.127677C19.8583 0.212876 22.5997 3.34281 26.8394 7.33371Z" fill="#007E3C"/>
<path fill-rule="evenodd" clip-rule="evenodd" d="M36.4785 11.5176H43.3251C44.6054 11.5176 45.6491 12.531 45.6491 13.7641V22.4903H54.676C55.9562 22.4903 56.9999 23.5037 56.9999 24.7369V31.351C56.9999 32.5886 55.9516 33.602 54.676 33.602H45.6491V42.1354C45.6491 43.373 44.6008 44.3819 43.3251 44.3819H36.4785C35.1982 44.3819 34.1545 43.3685 34.1545 42.1354V33.602H25.1277C23.8474 33.602 22.8037 32.5886 22.8037 31.351V24.7324C22.8037 23.4947 23.852 22.4858 25.1277 22.4858H34.1545V13.7641C34.1545 12.5265 35.1982 11.5176 36.4785 11.5176Z" fill="#007E3C"/>
</svg>
