<svg width="95" height="95" viewBox="0 0 95 95" fill="none" xmlns="http://www.w3.org/2000/svg">
<g filter="url(#filter0_i_410_4)">
<circle cx="47.5" cy="47.5" r="47.5" fill="#F2F2F2"/>
</g>
<path fill-rule="evenodd" clip-rule="evenodd" d="M44.8394 35.3337C48.3741 31.7688 50.8465 28.6927 56.2923 28.0873C66.5159 26.9528 75.9185 37.0691 70.7556 47.0284C70.6768 47.1808 70.5886 47.3378 70.5005 47.4947H66.7386V41.764C66.7386 40.3201 66.1309 39.0107 65.1475 38.0601C64.1687 37.1139 62.8096 36.522 61.316 36.522H54.4786C52.9942 36.522 51.6351 37.1139 50.6517 38.069C49.6729 39.0197 49.0653 40.3246 49.0653 41.7595V47.4902H43.1278C41.6341 47.4902 40.2796 48.0777 39.2962 49.0283C38.3128 49.9789 37.7052 51.2883 37.7052 52.7277V59.3463C37.7052 60.7902 38.3128 62.0996 39.2962 63.0503C40.2796 64.0009 41.6341 64.5883 43.1278 64.5883H49.056V69.7585L44.8394 73.7988L38.4984 67.9021C30.8678 60.7992 18.4176 51.8533 18.0094 40.773C17.7218 33.0109 24.0582 28.038 31.3456 28.1277C37.8583 28.2129 40.5997 31.3428 44.8394 35.3337Z" fill="#007E3C"/>
<path fill-rule="evenodd" clip-rule="evenodd" d="M54.4785 39.5176H61.3251C62.6054 39.5176 63.6491 40.531 63.6491 41.7641V50.4903H72.676C73.9562 50.4903 74.9999 51.5037 74.9999 52.7369V59.351C74.9999 60.5886 73.9516 61.602 72.676 61.602H63.6491V70.1354C63.6491 71.373 62.6008 72.3819 61.3251 72.3819H54.4785C53.1982 72.3819 52.1545 71.3685 52.1545 70.1354V61.602H43.1277C41.8474 61.602 40.8037 60.5886 40.8037 59.351V52.7324C40.8037 51.4947 41.852 50.4858 43.1277 50.4858H52.1545V41.7641C52.1545 40.5265 53.1982 39.5176 54.4785 39.5176Z" fill="#007E3C"/>
<defs>
<filter id="filter0_i_410_4" x="0" y="0" width="95" height="99" filterUnits="userSpaceOnUse" color-interpolation-filters="sRGB">
<feFlood flood-opacity="0" result="BackgroundImageFix"/>
<feBlend mode="normal" in="SourceGraphic" in2="BackgroundImageFix" result="shape"/>
<feColorMatrix in="SourceAlpha" type="matrix" values="0 0 0 0 0 0 0 0 0 0 0 0 0 0 0 0 0 0 127 0" result="hardAlpha"/>
<feOffset dy="4"/>
<feGaussianBlur stdDeviation="2"/>
<feComposite in2="hardAlpha" operator="arithmetic" k2="-1" k3="1"/>
<feColorMatrix type="matrix" values="0 0 0 0 0 0 0 0 0 0 0 0 0 0 0 0 0 0 0.25 0"/>
<feBlend mode="normal" in2="shape" result="effect1_innerShadow_410_4"/>
</filter>
</defs>
</svg>
