<svg width="95" height="95" viewBox="0 0 95 95" fill="none" xmlns="http://www.w3.org/2000/svg">
<g filter="url(#filter0_i_410_8)">
<circle cx="47.5" cy="47.5" r="47.5" fill="#F2F2F2"/>
</g>
<circle cx="47.2282" cy="47.9747" r="32.5392" stroke="#007E3C" stroke-width="2"/>
<mask id="path-3-outside-1_410_8" maskUnits="userSpaceOnUse" x="21.8034" y="9.96034" width="53.7391" height="50.0788" fill="black">
<rect fill="white" x="21.8034" y="9.96034" width="53.7391" height="50.0788"/>
<path d="M28.8907 38.5945L28.4318 39.7066L24.1059 37.9216L24.0641 38.9651L23.0364 38.9467L23.1093 37.2442L23.4743 36.3595L28.8907 38.5945ZM30.6147 35.8908C30.3759 36.2574 30.0698 36.5102 29.6964 36.6492C29.3208 36.7869 28.8949 36.8062 28.4185 36.7072C27.9414 36.6047 27.4312 36.3764 26.8879 36.0225C26.3468 35.67 25.934 35.2969 25.6496 34.9034C25.3666 34.5077 25.2132 34.111 25.1895 33.7132C25.1636 33.3141 25.27 32.9312 25.5088 32.5646C25.749 32.1959 26.0569 31.9427 26.4325 31.8051C26.8059 31.666 27.2301 31.6471 27.705 31.7482C28.1813 31.8472 28.6901 32.0729 29.2312 32.4254C29.7745 32.7794 30.1895 33.1538 30.4761 33.5488C30.7605 33.9423 30.915 34.3397 30.9395 34.7411C30.9632 35.1388 30.8549 35.5221 30.6147 35.8908ZM29.7343 35.3173C29.8935 35.0729 29.8702 34.7889 29.6646 34.4653C29.4603 34.1396 29.0931 33.804 28.5628 33.4586C28.0304 33.1117 27.575 32.9114 27.1967 32.8577C26.8176 32.8003 26.5485 32.8938 26.3893 33.1382C26.2329 33.3782 26.2568 33.6611 26.4611 33.9868C26.6632 34.3112 27.0304 34.6468 27.5628 34.9936C28.0931 35.339 28.5484 35.5393 28.929 35.5945C29.3095 35.6497 29.5779 35.5573 29.7343 35.3173ZM33.6573 32.2135C33.342 32.5168 32.9868 32.6941 32.5916 32.7453C32.1947 32.7947 31.7754 32.7175 31.3336 32.5137C30.8919 32.3063 30.4463 31.9689 29.9968 31.5015C29.549 31.0361 29.231 30.5796 29.0426 30.1321C28.8561 29.6828 28.7961 29.2617 28.8626 28.8688C28.9274 28.4741 29.1174 28.1251 29.4327 27.8218C29.7499 27.5167 30.107 27.3394 30.5039 27.29C30.899 27.2388 31.3165 27.3159 31.7564 27.5215C32.1982 27.7253 32.6429 28.06 33.0906 28.5254C33.5402 28.9927 33.86 29.4511 34.0502 29.9005C34.2386 30.348 34.2995 30.77 34.2329 31.1665C34.1663 31.5594 33.9745 31.9084 33.6573 32.2135ZM32.9288 31.4562C33.139 31.254 33.1804 30.9721 33.053 30.6105C32.9274 30.247 32.6453 29.8373 32.2066 29.3812C31.7661 28.9233 31.3676 28.6255 31.0111 28.4878C30.6547 28.3465 30.3714 28.3769 30.1612 28.5791C29.9547 28.7777 29.9143 29.0587 30.0399 29.4221C30.1636 29.7836 30.4457 30.1934 30.8863 30.6513C31.325 31.1074 31.7235 31.4052 32.0817 31.5447C32.44 31.6843 32.7224 31.6548 32.9288 31.4562ZM35.0132 26.7309C34.6663 26.9214 34.3297 26.9741 34.0036 26.8887C33.6797 26.8022 33.4269 26.5934 33.2452 26.2625C33.0621 25.9292 33.021 25.6027 33.1217 25.283C33.2246 24.962 33.4496 24.7062 33.7966 24.5157C34.1458 24.3238 34.4823 24.2712 34.8062 24.3578C35.1323 24.4431 35.3869 24.6524 35.5699 24.9856C35.7517 25.3166 35.7911 25.6426 35.6881 25.9636C35.5874 26.2833 35.3625 26.5391 35.0132 26.7309ZM36.8618 29.6018L36.0504 30.0474L36.5405 23.0933L37.352 22.6476L36.8618 29.6018ZM34.7123 26.1831C34.8561 26.1041 34.9444 25.9888 34.977 25.8372C35.0083 25.6833 34.9782 25.523 34.8867 25.3564C34.7939 25.1875 34.6755 25.0773 34.5313 25.0257C34.3859 24.9719 34.2412 24.9845 34.0974 25.0635C33.9536 25.1424 33.8654 25.2577 33.8328 25.4093C33.8012 25.5574 33.8318 25.7159 33.9246 25.8848C34.0161 26.0514 34.1341 26.1634 34.2785 26.2208C34.4239 26.2746 34.5685 26.262 34.7123 26.1831ZM39.5841 28.2047C39.2371 28.3952 38.9006 28.4479 38.5744 28.3625C38.2493 28.2737 37.9959 28.0638 37.8141 27.7328C37.6311 27.3996 37.5899 27.0731 37.6906 26.7533C37.7936 26.4324 38.0186 26.1766 38.3655 25.986C38.7148 25.7942 39.0513 25.7416 39.3752 25.8282C39.699 25.9147 39.9525 26.1246 40.1355 26.4579C40.3173 26.7888 40.3573 27.116 40.2555 27.4392C40.1548 27.759 39.931 28.0141 39.5841 28.2047ZM39.2813 27.6534C39.4251 27.5745 39.5122 27.4598 39.5425 27.3094C39.5751 27.1578 39.5457 26.9987 39.4541 26.8321C39.3614 26.6632 39.2423 26.5518 39.0968 26.498C38.9537 26.4429 38.8102 26.4549 38.6664 26.5338C38.5203 26.6141 38.4321 26.7294 38.4018 26.8797C38.3715 27.0301 38.4027 27.1897 38.4955 27.3586C38.587 27.5252 38.7043 27.6361 38.8475 27.6912C38.9906 27.7462 39.1352 27.7337 39.2813 27.6534ZM44.2497 26.622L43.0574 26.7834L42.2714 20.9769L43.4637 20.8155L43.7922 23.2426L46.3045 22.9025L45.9759 20.4755L47.1682 20.3141L47.9542 26.1205L46.7619 26.2819L46.4454 23.9438L43.9332 24.2839L44.2497 26.622ZM48.8847 26.1111L49.5295 20.2873L53.2878 20.7035L53.1722 21.7479L50.6097 21.4641L50.4631 22.7881L52.8664 23.0542L52.7503 24.1024L50.347 23.8363L50.1961 25.1991L52.7974 25.4871L52.6818 26.5315L48.8847 26.1111ZM58.1411 28.4133L56.8896 27.9572L56.4583 25.5467L55.4086 25.1643L54.6838 27.1535L53.5533 26.7416L55.5593 21.2363L57.7908 22.0494C58.2337 22.2108 58.5875 22.4187 58.8523 22.6732C59.1172 22.9277 59.2846 23.2173 59.3547 23.5422C59.4281 23.8655 59.398 24.2107 59.2643 24.5777C59.127 24.9545 58.9204 25.2438 58.6446 25.4454C58.3722 25.6454 58.0479 25.7518 57.6719 25.7645L58.1411 28.4133ZM55.7362 24.2651L56.7529 24.6355C57.0881 24.7577 57.3704 24.7815 57.5999 24.7071C57.8326 24.6312 57.9967 24.4623 58.0921 24.2005C58.1875 23.9387 58.1701 23.7051 58.0398 23.4997C57.9129 23.2927 57.6819 23.1281 57.3467 23.0059L56.33 22.6355L55.7362 24.2651ZM58.6744 28.7298L61.9478 23.8701L63.7459 25.0812C64.2686 25.4333 64.5987 25.8173 64.7361 26.2333C64.8771 26.6485 64.8131 27.056 64.5439 27.4555C64.3795 27.6996 64.1768 27.877 63.9358 27.9878C63.6962 28.0965 63.4464 28.1339 63.1866 28.1002C63.4078 28.3685 63.5274 28.6547 63.5454 28.9589C63.5671 29.2623 63.4805 29.5588 63.2855 29.8482C63.0993 30.1247 62.869 30.3197 62.5948 30.4332C62.3241 30.546 62.0271 30.5768 61.7037 30.5254C61.384 30.4733 61.0589 30.336 60.7285 30.1134L58.6744 28.7298ZM61.5752 26.5768L62.3204 27.0787C62.5429 27.2286 62.7545 27.2942 62.9554 27.2757C63.1563 27.2572 63.3178 27.1572 63.44 26.9757C63.5593 26.7986 63.5873 26.6149 63.5239 26.4247C63.4642 26.2337 63.3187 26.0604 63.0876 25.9047L62.3587 25.4137L61.5752 26.5768ZM60.2593 28.5304L61.066 29.0738C61.2431 29.1931 61.4132 29.2716 61.5763 29.3092C61.7408 29.3446 61.8889 29.3392 62.0206 29.2929C62.1559 29.2459 62.2657 29.1597 62.3501 29.0344C62.4344 28.9092 62.4741 28.7804 62.4689 28.6482C62.4659 28.5175 62.4192 28.3887 62.3288 28.2619C62.2399 28.1329 62.1123 28.0124 61.9459 27.9004L61.0777 27.3155L60.2593 28.5304ZM63.36 32.3056L62.5296 31.3556L68.4786 29.2582L69.3141 30.2141L66.4372 35.8261L65.6068 34.8761L66.2376 33.6865L64.6232 31.8395L63.36 32.3056ZM65.6769 31.4425L66.7747 32.6983L67.8598 30.6396L65.6769 31.4425ZM68.4528 39.707L66.7016 36.3029L71.912 33.6225L72.4623 34.6924L68.1863 36.8921L69.3872 39.2263L68.4528 39.707Z"/>
</mask>
<path d="M28.8907 38.5945L28.4318 39.7066L24.1059 37.9216L24.0641 38.9651L23.0364 38.9467L23.1093 37.2442L23.4743 36.3595L28.8907 38.5945ZM30.6147 35.8908C30.3759 36.2574 30.0698 36.5102 29.6964 36.6492C29.3208 36.7869 28.8949 36.8062 28.4185 36.7072C27.9414 36.6047 27.4312 36.3764 26.8879 36.0225C26.3468 35.67 25.934 35.2969 25.6496 34.9034C25.3666 34.5077 25.2132 34.111 25.1895 33.7132C25.1636 33.3141 25.27 32.9312 25.5088 32.5646C25.749 32.1959 26.0569 31.9427 26.4325 31.8051C26.8059 31.666 27.2301 31.6471 27.705 31.7482C28.1813 31.8472 28.6901 32.0729 29.2312 32.4254C29.7745 32.7794 30.1895 33.1538 30.4761 33.5488C30.7605 33.9423 30.915 34.3397 30.9395 34.7411C30.9632 35.1388 30.8549 35.5221 30.6147 35.8908ZM29.7343 35.3173C29.8935 35.0729 29.8702 34.7889 29.6646 34.4653C29.4603 34.1396 29.0931 33.804 28.5628 33.4586C28.0304 33.1117 27.575 32.9114 27.1967 32.8577C26.8176 32.8003 26.5485 32.8938 26.3893 33.1382C26.2329 33.3782 26.2568 33.6611 26.4611 33.9868C26.6632 34.3112 27.0304 34.6468 27.5628 34.9936C28.0931 35.339 28.5484 35.5393 28.929 35.5945C29.3095 35.6497 29.5779 35.5573 29.7343 35.3173ZM33.6573 32.2135C33.342 32.5168 32.9868 32.6941 32.5916 32.7453C32.1947 32.7947 31.7754 32.7175 31.3336 32.5137C30.8919 32.3063 30.4463 31.9689 29.9968 31.5015C29.549 31.0361 29.231 30.5796 29.0426 30.1321C28.8561 29.6828 28.7961 29.2617 28.8626 28.8688C28.9274 28.4741 29.1174 28.1251 29.4327 27.8218C29.7499 27.5167 30.107 27.3394 30.5039 27.29C30.899 27.2388 31.3165 27.3159 31.7564 27.5215C32.1982 27.7253 32.6429 28.06 33.0906 28.5254C33.5402 28.9927 33.86 29.4511 34.0502 29.9005C34.2386 30.348 34.2995 30.77 34.2329 31.1665C34.1663 31.5594 33.9745 31.9084 33.6573 32.2135ZM32.9288 31.4562C33.139 31.254 33.1804 30.9721 33.053 30.6105C32.9274 30.247 32.6453 29.8373 32.2066 29.3812C31.7661 28.9233 31.3676 28.6255 31.0111 28.4878C30.6547 28.3465 30.3714 28.3769 30.1612 28.5791C29.9547 28.7777 29.9143 29.0587 30.0399 29.4221C30.1636 29.7836 30.4457 30.1934 30.8863 30.6513C31.325 31.1074 31.7235 31.4052 32.0817 31.5447C32.44 31.6843 32.7224 31.6548 32.9288 31.4562ZM35.0132 26.7309C34.6663 26.9214 34.3297 26.9741 34.0036 26.8887C33.6797 26.8022 33.4269 26.5934 33.2452 26.2625C33.0621 25.9292 33.021 25.6027 33.1217 25.283C33.2246 24.962 33.4496 24.7062 33.7966 24.5157C34.1458 24.3238 34.4823 24.2712 34.8062 24.3578C35.1323 24.4431 35.3869 24.6524 35.5699 24.9856C35.7517 25.3166 35.7911 25.6426 35.6881 25.9636C35.5874 26.2833 35.3625 26.5391 35.0132 26.7309ZM36.8618 29.6018L36.0504 30.0474L36.5405 23.0933L37.352 22.6476L36.8618 29.6018ZM34.7123 26.1831C34.8561 26.1041 34.9444 25.9888 34.977 25.8372C35.0083 25.6833 34.9782 25.523 34.8867 25.3564C34.7939 25.1875 34.6755 25.0773 34.5313 25.0257C34.3859 24.9719 34.2412 24.9845 34.0974 25.0635C33.9536 25.1424 33.8654 25.2577 33.8328 25.4093C33.8012 25.5574 33.8318 25.7159 33.9246 25.8848C34.0161 26.0514 34.1341 26.1634 34.2785 26.2208C34.4239 26.2746 34.5685 26.262 34.7123 26.1831ZM39.5841 28.2047C39.2371 28.3952 38.9006 28.4479 38.5744 28.3625C38.2493 28.2737 37.9959 28.0638 37.8141 27.7328C37.6311 27.3996 37.5899 27.0731 37.6906 26.7533C37.7936 26.4324 38.0186 26.1766 38.3655 25.986C38.7148 25.7942 39.0513 25.7416 39.3752 25.8282C39.699 25.9147 39.9525 26.1246 40.1355 26.4579C40.3173 26.7888 40.3573 27.116 40.2555 27.4392C40.1548 27.759 39.931 28.0141 39.5841 28.2047ZM39.2813 27.6534C39.4251 27.5745 39.5122 27.4598 39.5425 27.3094C39.5751 27.1578 39.5457 26.9987 39.4541 26.8321C39.3614 26.6632 39.2423 26.5518 39.0968 26.498C38.9537 26.4429 38.8102 26.4549 38.6664 26.5338C38.5203 26.6141 38.4321 26.7294 38.4018 26.8797C38.3715 27.0301 38.4027 27.1897 38.4955 27.3586C38.587 27.5252 38.7043 27.6361 38.8475 27.6912C38.9906 27.7462 39.1352 27.7337 39.2813 27.6534ZM44.2497 26.622L43.0574 26.7834L42.2714 20.9769L43.4637 20.8155L43.7922 23.2426L46.3045 22.9025L45.9759 20.4755L47.1682 20.3141L47.9542 26.1205L46.7619 26.2819L46.4454 23.9438L43.9332 24.2839L44.2497 26.622ZM48.8847 26.1111L49.5295 20.2873L53.2878 20.7035L53.1722 21.7479L50.6097 21.4641L50.4631 22.7881L52.8664 23.0542L52.7503 24.1024L50.347 23.8363L50.1961 25.1991L52.7974 25.4871L52.6818 26.5315L48.8847 26.1111ZM58.1411 28.4133L56.8896 27.9572L56.4583 25.5467L55.4086 25.1643L54.6838 27.1535L53.5533 26.7416L55.5593 21.2363L57.7908 22.0494C58.2337 22.2108 58.5875 22.4187 58.8523 22.6732C59.1172 22.9277 59.2846 23.2173 59.3547 23.5422C59.4281 23.8655 59.398 24.2107 59.2643 24.5777C59.127 24.9545 58.9204 25.2438 58.6446 25.4454C58.3722 25.6454 58.0479 25.7518 57.6719 25.7645L58.1411 28.4133ZM55.7362 24.2651L56.7529 24.6355C57.0881 24.7577 57.3704 24.7815 57.5999 24.7071C57.8326 24.6312 57.9967 24.4623 58.0921 24.2005C58.1875 23.9387 58.1701 23.7051 58.0398 23.4997C57.9129 23.2927 57.6819 23.1281 57.3467 23.0059L56.33 22.6355L55.7362 24.2651ZM58.6744 28.7298L61.9478 23.8701L63.7459 25.0812C64.2686 25.4333 64.5987 25.8173 64.7361 26.2333C64.8771 26.6485 64.8131 27.056 64.5439 27.4555C64.3795 27.6996 64.1768 27.877 63.9358 27.9878C63.6962 28.0965 63.4464 28.1339 63.1866 28.1002C63.4078 28.3685 63.5274 28.6547 63.5454 28.9589C63.5671 29.2623 63.4805 29.5588 63.2855 29.8482C63.0993 30.1247 62.869 30.3197 62.5948 30.4332C62.3241 30.546 62.0271 30.5768 61.7037 30.5254C61.384 30.4733 61.0589 30.336 60.7285 30.1134L58.6744 28.7298ZM61.5752 26.5768L62.3204 27.0787C62.5429 27.2286 62.7545 27.2942 62.9554 27.2757C63.1563 27.2572 63.3178 27.1572 63.44 26.9757C63.5593 26.7986 63.5873 26.6149 63.5239 26.4247C63.4642 26.2337 63.3187 26.0604 63.0876 25.9047L62.3587 25.4137L61.5752 26.5768ZM60.2593 28.5304L61.066 29.0738C61.2431 29.1931 61.4132 29.2716 61.5763 29.3092C61.7408 29.3446 61.8889 29.3392 62.0206 29.2929C62.1559 29.2459 62.2657 29.1597 62.3501 29.0344C62.4344 28.9092 62.4741 28.7804 62.4689 28.6482C62.4659 28.5175 62.4192 28.3887 62.3288 28.2619C62.2399 28.1329 62.1123 28.0124 61.9459 27.9004L61.0777 27.3155L60.2593 28.5304ZM63.36 32.3056L62.5296 31.3556L68.4786 29.2582L69.3141 30.2141L66.4372 35.8261L65.6068 34.8761L66.2376 33.6865L64.6232 31.8395L63.36 32.3056ZM65.6769 31.4425L66.7747 32.6983L67.8598 30.6396L65.6769 31.4425ZM68.4528 39.707L66.7016 36.3029L71.912 33.6225L72.4623 34.6924L68.1863 36.8921L69.3872 39.2263L68.4528 39.707Z" fill="#007E3C"/>
<path d="M28.8907 38.5945L29.0412 38.6566L29.1033 38.5061L28.9528 38.4439L28.8907 38.5945ZM28.4318 39.7066L28.3697 39.8572L28.5202 39.9193L28.5823 39.7688L28.4318 39.7066ZM24.1059 37.9217L24.168 37.7711L23.9525 37.6822L23.9432 37.9151L24.1059 37.9217ZM24.0641 38.9651L24.0612 39.1279L24.2205 39.1307L24.2268 38.9716L24.0641 38.9651ZM23.0364 38.9467L22.8737 38.9397L22.8666 39.1065L23.0335 39.1095L23.0364 38.9467ZM23.1093 37.2442L22.9587 37.1821L22.9478 37.2086L22.9466 37.2372L23.1093 37.2442ZM23.4743 36.3595L23.5364 36.209L23.3859 36.1469L23.3238 36.2974L23.4743 36.3595ZM28.8907 38.5945L28.7401 38.5324L28.2812 39.6445L28.4318 39.7066L28.5823 39.7688L29.0412 38.6566L28.8907 38.5945ZM28.4318 39.7066L28.4939 39.5561L24.168 37.7711L24.1059 37.9217L24.0438 38.0722L28.3697 39.8572L28.4318 39.7066ZM24.1059 37.9217L23.9432 37.9151L23.9014 38.9586L24.0641 38.9651L24.2268 38.9716L24.2686 37.9282L24.1059 37.9217ZM24.0641 38.9651L24.067 38.8022L23.0393 38.7838L23.0364 38.9467L23.0335 39.1095L24.0612 39.1279L24.0641 38.9651ZM23.0364 38.9467L23.1991 38.9536L23.272 37.2512L23.1093 37.2442L22.9466 37.2372L22.8737 38.9397L23.0364 38.9467ZM23.1093 37.2442L23.2598 37.3063L23.6248 36.4216L23.4743 36.3595L23.3238 36.2974L22.9587 37.1821L23.1093 37.2442ZM23.4743 36.3595L23.4122 36.5101L28.8286 38.745L28.8907 38.5945L28.9528 38.4439L23.5364 36.209L23.4743 36.3595ZM29.6964 36.6492L29.7524 36.8022L29.7532 36.8019L29.6964 36.6492ZM28.4185 36.7072L28.3843 36.8664L28.3854 36.8667L28.4185 36.7072ZM25.6496 34.9034L25.5171 34.9981L25.5176 34.9988L25.6496 34.9034ZM25.1895 33.7132L25.352 33.7035L25.352 33.7027L25.1895 33.7132ZM25.5088 32.5646L25.3724 32.4757L25.5088 32.5646ZM26.4325 31.8051L26.4886 31.958L26.4894 31.9577L26.4325 31.8051ZM27.705 31.7482L27.6711 31.9075L27.6719 31.9077L27.705 31.7482ZM30.4761 33.5488L30.6081 33.4534L30.6079 33.4531L30.4761 33.5488ZM30.9395 34.7411L31.102 34.7314L31.102 34.7312L30.9395 34.7411ZM29.6646 34.4653L29.5266 34.5518L29.5271 34.5527L29.6646 34.4653ZM28.5628 33.4586L28.4739 33.595L28.5628 33.4586ZM27.1967 32.8577L27.1723 33.0187L27.1738 33.0189L27.1967 32.8577ZM26.3893 33.1382L26.2528 33.0493L26.3893 33.1382ZM26.4611 33.9868L26.5993 33.9007L26.5991 33.9003L26.4611 33.9868ZM30.6147 35.8908L30.4783 35.8019C30.2565 36.1423 29.9771 36.371 29.6396 36.4966L29.6964 36.6492L29.7532 36.8019C30.1625 36.6495 30.4953 36.3725 30.7512 35.9797L30.6147 35.8908ZM29.6964 36.6492L29.6404 36.4963C29.2989 36.6214 28.9047 36.6419 28.4517 36.5478L28.4185 36.7072L28.3854 36.8667C28.885 36.9705 29.3427 36.9523 29.7524 36.8022L29.6964 36.6492ZM28.4185 36.7072L28.4528 36.548C28.0004 36.4508 27.5086 36.2325 26.9768 35.886L26.8879 36.0225L26.799 36.1589C27.3539 36.5204 27.8825 36.7586 28.3843 36.8664L28.4185 36.7072ZM26.8879 36.0225L26.9768 35.886C26.4472 35.541 26.0511 35.1809 25.7816 34.808L25.6496 34.9034L25.5176 34.9988C25.8169 35.4129 26.2463 35.7989 26.799 36.1589L26.8879 36.0225ZM25.6496 34.9034L25.782 34.8087C25.5129 34.4324 25.3736 34.0645 25.352 33.7035L25.1895 33.7132L25.0269 33.7229C25.0528 34.1574 25.2202 34.583 25.5171 34.9981L25.6496 34.9034ZM25.1895 33.7132L25.352 33.7027C25.3286 33.3419 25.4238 32.9935 25.6453 32.6535L25.5088 32.5646L25.3724 32.4757C25.1163 32.8689 24.9986 33.2862 25.027 33.7238L25.1895 33.7132ZM25.5088 32.5646L25.6453 32.6535C25.8683 32.3111 26.1493 32.0823 26.4886 31.958L26.4325 31.8051L26.3765 31.6522C25.9646 31.8031 25.6298 32.0806 25.3724 32.4757L25.5088 32.5646ZM26.4325 31.8051L26.4894 31.9577C26.828 31.8316 27.2198 31.8114 27.6711 31.9075L27.705 31.7482L27.7389 31.5889C27.2404 31.4828 26.7839 31.5005 26.3757 31.6524L26.4325 31.8051ZM27.705 31.7482L27.6719 31.9077C28.123 32.0014 28.6129 32.217 29.1423 32.5619L29.2312 32.4254L29.3201 32.289C28.7672 31.9288 28.2396 31.693 27.7381 31.5888L27.705 31.7482ZM29.2312 32.4254L29.1423 32.5619C29.6741 32.9083 30.0725 33.2699 30.3443 33.6444L30.4761 33.5488L30.6079 33.4531C30.3064 33.0377 29.8749 32.6504 29.3201 32.289L29.2312 32.4254ZM30.4761 33.5488L30.3441 33.6442C30.6142 34.0179 30.7547 34.3863 30.7769 34.751L30.9395 34.7411L31.102 34.7312C31.0753 34.2931 30.9068 33.8667 30.6081 33.4534L30.4761 33.5488ZM30.9395 34.7411L30.7769 34.7508C30.7983 35.1101 30.7015 35.4592 30.4783 35.8019L30.6147 35.8908L30.7512 35.9797C31.0083 35.585 31.128 35.1676 31.102 34.7314L30.9395 34.7411ZM29.7343 35.3173L29.8707 35.4062C30.0762 35.0907 30.029 34.7351 29.802 34.378L29.6646 34.4653L29.5271 34.5527C29.7114 34.8427 29.7107 35.055 29.5978 35.2284L29.7343 35.3173ZM29.6646 34.4653L29.8025 34.3788C29.5802 34.0242 29.1905 33.6731 28.6517 33.3221L28.5628 33.4586L28.4739 33.595C28.9956 33.9348 29.3404 34.255 29.5266 34.5518L29.6646 34.4653ZM28.5628 33.4586L28.6517 33.3221C28.1109 32.9698 27.6321 32.7551 27.2196 32.6964L27.1967 32.8577L27.1738 33.0189C27.518 33.0678 27.9499 33.2536 28.4739 33.595L28.5628 33.4586ZM27.1967 32.8577L27.2211 32.6966C26.8026 32.6333 26.4583 32.7339 26.2528 33.0493L26.3893 33.1382L26.5257 33.2271C26.6386 33.0537 26.8326 32.9673 27.1723 33.0187L27.1967 32.8577ZM26.3893 33.1382L26.2528 33.0493C26.0497 33.3611 26.0988 33.7156 26.3231 34.0734L26.4611 33.9868L26.5991 33.9003C26.4149 33.6066 26.4161 33.3953 26.5257 33.2271L26.3893 33.1382ZM26.4611 33.9868L26.3229 34.073C26.5432 34.4266 26.9332 34.7778 27.4739 35.1301L27.5628 34.9936L27.6517 34.8572C27.1277 34.5158 26.7832 34.1958 26.5993 33.9007L26.4611 33.9868ZM27.5628 34.9936L27.4739 35.1301C28.0127 35.4811 28.4913 35.6956 28.9056 35.7557L28.929 35.5945L28.9523 35.4333C28.6055 35.3831 28.1734 35.197 27.6517 34.8572L27.5628 34.9936ZM28.929 35.5945L28.9056 35.7557C29.3235 35.8163 29.6676 35.718 29.8707 35.4062L29.7343 35.3173L29.5978 35.2284C29.4882 35.3966 29.2955 35.4831 28.9523 35.4333L28.929 35.5945ZM32.5916 32.7453L32.6117 32.9069L32.6126 32.9068L32.5916 32.7453ZM31.3336 32.5137L31.2644 32.6611L31.2654 32.6616L31.3336 32.5137ZM29.0426 30.1321L28.8922 30.1945L28.8925 30.1953L29.0426 30.1321ZM28.8626 28.8688L29.0232 28.896L29.0234 28.8952L28.8626 28.8688ZM29.4327 27.8218L29.3198 27.7044L29.4327 27.8218ZM30.5039 27.29L30.524 27.4517L30.5249 27.4515L30.5039 27.29ZM31.7564 27.5215L31.6875 27.6691L31.6882 27.6694L31.7564 27.5215ZM34.0502 29.9005L34.2003 29.8373L34.2002 29.837L34.0502 29.9005ZM34.2329 31.1665L34.3935 31.1937L34.3935 31.1935L34.2329 31.1665ZM33.053 30.6105L32.899 30.6636L32.8994 30.6646L33.053 30.6105ZM31.0111 28.4878L30.9511 28.6392L30.9524 28.6397L31.0111 28.4878ZM30.0399 29.4221L30.1939 29.3694L30.1938 29.3689L30.0399 29.4221ZM33.6573 32.2135L33.5444 32.0961C33.2516 32.3777 32.9278 32.5375 32.5707 32.5838L32.5916 32.7453L32.6126 32.9068C33.0457 32.8506 33.4324 32.6558 33.7702 32.3308L33.6573 32.2135ZM32.5916 32.7453L32.5715 32.5837C32.2107 32.6286 31.822 32.5597 31.4018 32.3659L31.3336 32.5137L31.2654 32.6616C31.7287 32.8754 32.1787 32.9608 32.6117 32.9069L32.5916 32.7453ZM31.3336 32.5137L31.4028 32.3663C30.984 32.1696 30.5541 31.8461 30.1141 31.3886L29.9968 31.5015L29.8794 31.6144C30.3385 32.0917 30.7998 32.4429 31.2644 32.6611L31.3336 32.5137ZM29.9968 31.5015L30.1141 31.3886C29.676 30.9331 29.3712 30.493 29.1927 30.0689L29.0426 30.1321L28.8925 30.1953C29.0907 30.6662 29.4221 31.1391 29.8794 31.6144L29.9968 31.5015ZM29.0426 30.1321L29.193 30.0697C29.0156 29.6424 28.9628 29.2526 29.0232 28.896L28.8626 28.8688L28.7021 28.8416C28.6294 29.2708 28.6965 29.7232 28.8922 30.1945L29.0426 30.1321ZM28.8626 28.8688L29.0234 28.8952C29.0819 28.5385 29.2532 28.2205 29.5456 27.9392L29.4327 27.8218L29.3198 27.7044C28.9817 28.0297 28.7729 28.4098 28.7019 28.8425L28.8626 28.8688ZM29.4327 27.8218L29.5456 27.9392C29.8401 27.6559 30.1655 27.4963 30.524 27.4516L30.5039 27.29L30.4838 27.1284C30.0484 27.1826 29.6597 27.3775 29.3198 27.7044L29.4327 27.8218ZM30.5039 27.29L30.5249 27.4515C30.8832 27.405 31.2695 27.4737 31.6875 27.6691L31.7564 27.5215L31.8254 27.374C31.3636 27.1582 30.9149 27.0725 30.4829 27.1285L30.5039 27.29ZM31.7564 27.5215L31.6882 27.6694C32.1066 27.8624 32.5353 28.1829 32.9733 28.6383L33.0906 28.5254L33.208 28.4125C32.7506 27.937 32.2898 27.5882 31.8246 27.3737L31.7564 27.5215ZM33.0906 28.5254L32.9733 28.6383C33.4133 29.0957 33.7199 29.5378 33.9003 29.9639L34.0502 29.9005L34.2002 29.837C34.0002 29.3643 33.6671 28.8897 33.208 28.4125L33.0906 28.5254ZM34.0502 29.9005L33.9001 29.9637C34.0791 30.3887 34.1328 30.7793 34.0723 31.1396L34.2329 31.1665L34.3935 31.1935C34.4662 30.7608 34.3982 30.3073 34.2003 29.8373L34.0502 29.9005ZM34.2329 31.1665L34.0723 31.1393C34.0122 31.4942 33.8392 31.8125 33.5444 32.0961L33.6573 32.2135L33.7702 32.3308C34.1097 32.0042 34.3205 31.6246 34.3935 31.1937L34.2329 31.1665ZM32.9288 31.4562L33.0417 31.5736C33.313 31.3126 33.3472 30.9555 33.2066 30.5563L33.053 30.6105L32.8994 30.6646C33.0136 30.9887 32.965 31.1954 32.8159 31.3388L32.9288 31.4562ZM33.053 30.6105L33.2069 30.5573C33.0702 30.1616 32.7697 29.7318 32.3239 29.2683L32.2066 29.3812L32.0892 29.4941C32.5208 29.9428 32.7846 30.3324 32.899 30.6636L33.053 30.6105ZM32.2066 29.3812L32.3239 29.2683C31.8765 28.8032 31.4584 28.486 31.0698 28.3359L31.0111 28.4878L30.9524 28.6397C31.2767 28.765 31.6556 29.0434 32.0892 29.4941L32.2066 29.3812ZM31.0111 28.4878L31.0711 28.3364C30.6777 28.1804 30.3196 28.2007 30.0483 28.4617L30.1612 28.5791L30.2741 28.6964C30.4232 28.553 30.6317 28.5125 30.9511 28.6392L31.0111 28.4878ZM30.1612 28.5791L30.0483 28.4617C29.7801 28.7197 29.748 29.0762 29.8859 29.4753L30.0399 29.4221L30.1938 29.3689C30.0806 29.0412 30.1294 28.8356 30.2741 28.6964L30.1612 28.5791ZM30.0399 29.4221L29.8858 29.4748C30.0207 29.869 30.3214 30.2991 30.7689 30.7642L30.8863 30.6513L31.0036 30.5384C30.57 30.0877 30.3065 29.6983 30.1939 29.3694L30.0399 29.4221ZM30.8863 30.6513L30.7689 30.7642C31.2147 31.2277 31.6326 31.5446 32.0226 31.6965L32.0817 31.5447L32.1408 31.393C31.8143 31.2658 31.4352 30.9871 31.0036 30.5384L30.8863 30.6513ZM32.0817 31.5447L32.0226 31.6965C32.4161 31.8498 32.7735 31.8316 33.0417 31.5736L32.9288 31.4562L32.8159 31.3388C32.6712 31.478 32.4639 31.5189 32.1408 31.393L32.0817 31.5447ZM34.0036 26.8887L33.9615 27.0461L33.9624 27.0463L34.0036 26.8887ZM33.1217 25.283L32.9666 25.2332L32.9663 25.234L33.1217 25.283ZM34.8062 24.3578L34.7641 24.5151L34.765 24.5153L34.8062 24.3578ZM35.5699 24.9856L35.4272 25.064L35.5699 24.9856ZM35.6881 25.9636L35.5331 25.9138L35.5328 25.9146L35.6881 25.9636ZM36.8618 29.6018L36.9402 29.7445L37.018 29.7018L37.0243 29.6132L36.8618 29.6018ZM36.0504 30.0474L35.8879 30.036L35.8669 30.334L36.1288 30.1902L36.0504 30.0474ZM36.5405 23.0933L36.4622 22.9505L36.3843 22.9933L36.3781 23.0818L36.5405 23.0933ZM37.352 22.6476L37.5144 22.659L37.5355 22.361L37.2736 22.5049L37.352 22.6476ZM34.977 25.8372L35.1362 25.8714L35.1365 25.8697L34.977 25.8372ZM34.8867 25.3564L34.744 25.4348L34.8867 25.3564ZM34.5313 25.0257L34.4748 25.1785L34.4765 25.1791L34.5313 25.0257ZM33.8328 25.4093L33.6736 25.3751L33.6736 25.3754L33.8328 25.4093ZM33.9246 25.8848L34.0674 25.8064L33.9246 25.8848ZM34.2785 26.2208L34.2184 26.3722L34.222 26.3735L34.2785 26.2208ZM38.5744 28.3625L38.5315 28.5196L38.5332 28.5201L38.5744 28.3625ZM37.8141 27.7328L37.6714 27.8112L37.8141 27.7328ZM37.6906 26.7533L37.5356 26.7036L37.5353 26.7044L37.6906 26.7533ZM38.3655 25.986L38.2871 25.8433L38.3655 25.986ZM39.3752 25.8282L39.3331 25.9855L39.3752 25.8282ZM40.1355 26.4579L39.9927 26.5363L40.1355 26.4579ZM40.2555 27.4392L40.4109 27.4882L40.4109 27.4881L40.2555 27.4392ZM39.5425 27.3094L39.3833 27.2752L39.3829 27.2772L39.5425 27.3094ZM39.0968 26.498L39.0384 26.65L39.0403 26.6507L39.0968 26.498ZM35.0132 26.7309L34.9348 26.5881C34.6176 26.7624 34.3237 26.8041 34.0448 26.7312L34.0036 26.8887L33.9624 27.0463C34.3357 27.144 34.715 27.0805 35.0916 26.8736L35.0132 26.7309ZM34.0036 26.8887L34.0456 26.7314C33.7703 26.6578 33.5513 26.4815 33.3879 26.1841L33.2452 26.2625L33.1024 26.3408C33.3026 26.7054 33.5891 26.9465 33.9615 27.0461L34.0036 26.8887ZM33.2452 26.2625L33.3879 26.1841C33.2231 25.884 33.1915 25.6034 33.277 25.3319L33.1217 25.283L32.9663 25.234C32.8504 25.602 32.9011 25.9744 33.1024 26.3408L33.2452 26.2625ZM33.1217 25.283L33.2767 25.3327C33.3648 25.0582 33.5577 24.8326 33.875 24.6584L33.7966 24.5157L33.7182 24.3729C33.3415 24.5798 33.0845 24.8657 32.9666 25.2332L33.1217 25.283ZM33.7966 24.5157L33.875 24.6584C34.1948 24.4827 34.4883 24.4414 34.7641 24.5151L34.8062 24.3578L34.8482 24.2005C34.4764 24.1011 34.0968 24.165 33.7182 24.3729L33.7966 24.5157ZM34.8062 24.3578L34.765 24.5153C35.0421 24.5878 35.2627 24.7645 35.4272 25.064L35.5699 24.9856L35.7127 24.9072C35.5111 24.5403 35.2225 24.2984 34.8474 24.2002L34.8062 24.3578ZM35.5699 24.9856L35.4272 25.064C35.5903 25.361 35.6207 25.6407 35.5331 25.9138L35.6881 25.9636L35.8432 26.0133C35.9616 25.6444 35.9131 25.2722 35.7127 24.9072L35.5699 24.9856ZM35.6881 25.9636L35.5328 25.9146C35.447 26.187 35.2547 26.4125 34.9348 26.5881L35.0132 26.7309L35.0916 26.8736C35.4702 26.6657 35.7278 26.3796 35.8435 26.0125L35.6881 25.9636ZM36.8618 29.6018L36.7834 29.459L35.972 29.9047L36.0504 30.0474L36.1288 30.1902L36.9402 29.7445L36.8618 29.6018ZM36.0504 30.0474L36.2128 30.0589L36.703 23.1047L36.5405 23.0933L36.3781 23.0818L35.8879 30.036L36.0504 30.0474ZM36.5405 23.0933L36.6189 23.236L37.4304 22.7903L37.352 22.6476L37.2736 22.5049L36.4622 22.9505L36.5405 23.0933ZM37.352 22.6476L37.1895 22.6361L36.6994 29.5903L36.8618 29.6018L37.0243 29.6132L37.5144 22.659L37.352 22.6476ZM34.7123 26.1831L34.7907 26.3258C34.9732 26.2256 35.093 26.0722 35.1362 25.8714L34.977 25.8372L34.8177 25.8029C34.7957 25.9054 34.7391 25.9826 34.634 26.0403L34.7123 26.1831ZM34.977 25.8372L35.1365 25.8697C35.1771 25.6705 35.1355 25.471 35.0295 25.278L34.8867 25.3564L34.744 25.4348C34.821 25.575 34.8395 25.6961 34.8174 25.8047L34.977 25.8372ZM34.8867 25.3564L35.0295 25.278C34.9227 25.0835 34.7767 24.9405 34.5861 24.8724L34.5313 25.0257L34.4765 25.1791C34.5742 25.214 34.6652 25.2914 34.744 25.4348L34.8867 25.3564ZM34.5313 25.0257L34.5878 24.873C34.3952 24.8017 34.2015 24.8205 34.019 24.9207L34.0974 25.0635L34.1758 25.2062C34.281 25.1485 34.3765 25.1421 34.4748 25.1785L34.5313 25.0257ZM34.0974 25.0635L34.019 24.9207C33.8366 25.0209 33.7168 25.1744 33.6736 25.3751L33.8328 25.4093L33.992 25.4436C34.0141 25.3411 34.0707 25.2639 34.1758 25.2062L34.0974 25.0635ZM33.8328 25.4093L33.6736 25.3754C33.6318 25.5712 33.6756 25.7696 33.7819 25.9632L33.9246 25.8848L34.0674 25.8064C33.9881 25.6622 33.9707 25.5437 33.9921 25.4433L33.8328 25.4093ZM33.9246 25.8848L33.7819 25.9632C33.8874 26.1553 34.0314 26.2979 34.2184 26.3721L34.2785 26.2208L34.3386 26.0694C34.2367 26.029 34.1449 25.9475 34.0674 25.8064L33.9246 25.8848ZM34.2785 26.2208L34.222 26.3735C34.4145 26.4448 34.6083 26.426 34.7907 26.3258L34.7123 26.1831L34.634 26.0403C34.5288 26.0981 34.4333 26.1044 34.335 26.0681L34.2785 26.2208ZM39.5841 28.2047L39.5057 28.0619C39.1884 28.2362 38.8946 28.278 38.6157 28.205L38.5744 28.3625L38.5332 28.5201C38.9066 28.6178 39.2858 28.5543 39.6625 28.3474L39.5841 28.2047ZM38.5744 28.3625L38.6174 28.2055C38.3401 28.1297 38.1202 27.9518 37.9569 27.6544L37.8141 27.7328L37.6714 27.8112C37.8716 28.1758 38.1585 28.4177 38.5315 28.5196L38.5744 28.3625ZM37.8141 27.7328L37.9569 27.6544C37.7921 27.3544 37.7604 27.0738 37.846 26.8023L37.6906 26.7533L37.5353 26.7044C37.4194 27.0724 37.4701 27.4448 37.6714 27.8112L37.8141 27.7328ZM37.6906 26.7533L37.8457 26.8031C37.9338 26.5286 38.1267 26.303 38.4439 26.1288L38.3655 25.986L38.2871 25.8433C37.9105 26.0502 37.6535 26.3361 37.5356 26.7036L37.6906 26.7533ZM38.3655 25.986L38.4439 26.1288C38.7638 25.9531 39.0573 25.9118 39.3331 25.9855L39.3752 25.8282L39.4172 25.6708C39.0453 25.5714 38.6657 25.6353 38.2871 25.8433L38.3655 25.986ZM39.3752 25.8282L39.3331 25.9855C39.6081 26.059 39.828 26.2362 39.9927 26.5363L40.1355 26.4579L40.2782 26.3795C40.0769 26.013 39.7899 25.7704 39.4172 25.6708L39.3752 25.8282ZM40.1355 26.4579L39.9927 26.5363C40.1558 26.8332 40.187 27.1145 40.1002 27.3904L40.2555 27.4392L40.4109 27.4881C40.5275 27.1174 40.4787 26.7445 40.2782 26.3795L40.1355 26.4579ZM40.2555 27.4392L40.1002 27.3903C40.0144 27.6629 39.823 27.8877 39.5057 28.0619L39.5841 28.2047L39.6625 28.3474C40.0391 28.1406 40.2953 27.855 40.4109 27.4882L40.2555 27.4392ZM39.2813 27.6534L39.3597 27.7962C39.5422 27.6959 39.6616 27.5426 39.7021 27.3416L39.5425 27.3094L39.3829 27.2772C39.3628 27.377 39.308 27.453 39.2029 27.5107L39.2813 27.6534ZM39.5425 27.3094L39.7017 27.3437C39.7443 27.1456 39.7028 26.9466 39.5969 26.7537L39.4541 26.8321L39.3114 26.9105C39.3885 27.0508 39.4059 27.17 39.3833 27.2752L39.5425 27.3094ZM39.4541 26.8321L39.5969 26.7537C39.49 26.5591 39.3438 26.4158 39.1534 26.3453L39.0968 26.498L39.0403 26.6507C39.1407 26.6879 39.2327 26.7673 39.3114 26.9105L39.4541 26.8321ZM39.0968 26.498L39.1553 26.346C38.964 26.2724 38.7705 26.2909 38.588 26.3911L38.6664 26.5338L38.7448 26.6766C38.8499 26.6189 38.9434 26.6134 39.0384 26.65L39.0968 26.498ZM38.6664 26.5338L38.588 26.3911C38.404 26.4922 38.2829 26.6457 38.2422 26.8475L38.4018 26.8797L38.5614 26.9119C38.5814 26.813 38.6366 26.736 38.7448 26.6766L38.6664 26.5338ZM38.4018 26.8797L38.2422 26.8475C38.2024 27.0445 38.2463 27.2433 38.3527 27.437L38.4955 27.3586L38.6382 27.2802C38.5591 27.1361 38.5405 27.0157 38.5614 26.9119L38.4018 26.8797ZM38.4955 27.3586L38.3527 27.437C38.4582 27.629 38.602 27.7712 38.789 27.8432L38.8475 27.6912L38.9059 27.5392C38.8067 27.501 38.7158 27.4215 38.6382 27.2802L38.4955 27.3586ZM38.8475 27.6912L38.789 27.8432C38.9811 27.9171 39.1757 27.8972 39.3597 27.7962L39.2813 27.6534L39.2029 27.5107C39.0947 27.5701 39.0001 27.5754 38.9059 27.5392L38.8475 27.6912ZM44.2497 26.622L44.2715 26.7833L44.4329 26.7615L44.4111 26.6001L44.2497 26.622ZM43.0574 26.7834L42.8961 26.8052L42.9179 26.9666L43.0793 26.9447L43.0574 26.7834ZM42.2714 20.9769L42.2496 20.8156L42.0882 20.8374L42.11 20.9988L42.2714 20.9769ZM43.4637 20.8155L43.625 20.7937L43.6032 20.6323L43.4418 20.6542L43.4637 20.8155ZM43.7922 23.2426L43.6308 23.2645L43.6527 23.4258L43.8141 23.404L43.7922 23.2426ZM46.3045 22.9025L46.3263 23.0639L46.4877 23.0421L46.4658 22.8807L46.3045 22.9025ZM45.9759 20.4755L45.9541 20.3141L45.7927 20.3359L45.8145 20.4973L45.9759 20.4755ZM47.1682 20.3141L47.3295 20.2922L47.3077 20.1308L47.1463 20.1527L47.1682 20.3141ZM47.9542 26.1205L47.976 26.2818L48.1374 26.26L48.1156 26.0986L47.9542 26.1205ZM46.7619 26.2819L46.6006 26.3037L46.6224 26.4651L46.7838 26.4432L46.7619 26.2819ZM46.4454 23.9438L46.6068 23.922L46.585 23.7606L46.4236 23.7824L46.4454 23.9438ZM43.9332 24.2839L43.9113 24.1225L43.75 24.1444L43.7718 24.3058L43.9332 24.2839ZM44.2497 26.622L44.2278 26.4606L43.0356 26.622L43.0574 26.7834L43.0793 26.9447L44.2715 26.7833L44.2497 26.622ZM43.0574 26.7834L43.2188 26.7615L42.4328 20.9551L42.2714 20.9769L42.11 20.9988L42.8961 26.8052L43.0574 26.7834ZM42.2714 20.9769L42.2933 21.1383L43.4855 20.9769L43.4637 20.8155L43.4418 20.6542L42.2496 20.8156L42.2714 20.9769ZM43.4637 20.8155L43.3023 20.8374L43.6308 23.2645L43.7922 23.2426L43.9536 23.2208L43.625 20.7937L43.4637 20.8155ZM43.7922 23.2426L43.8141 23.404L46.3263 23.0639L46.3045 22.9025L46.2826 22.7412L43.7704 23.0812L43.7922 23.2426ZM46.3045 22.9025L46.4658 22.8807L46.1373 20.4536L45.9759 20.4755L45.8145 20.4973L46.1431 22.9244L46.3045 22.9025ZM45.9759 20.4755L45.9977 20.6368L47.19 20.4754L47.1682 20.3141L47.1463 20.1527L45.9541 20.3141L45.9759 20.4755ZM47.1682 20.3141L47.0068 20.3359L47.7928 26.1423L47.9542 26.1205L48.1156 26.0986L47.3295 20.2922L47.1682 20.3141ZM47.9542 26.1205L47.9323 25.9591L46.7401 26.1205L46.7619 26.2819L46.7838 26.4432L47.976 26.2818L47.9542 26.1205ZM46.7619 26.2819L46.9233 26.26L46.6068 23.922L46.4454 23.9438L46.284 23.9657L46.6006 26.3037L46.7619 26.2819ZM46.4454 23.9438L46.4236 23.7824L43.9113 24.1225L43.9332 24.2839L43.955 24.4453L46.4673 24.1052L46.4454 23.9438ZM43.9332 24.2839L43.7718 24.3058L44.0883 26.6438L44.2497 26.622L44.4111 26.6001L44.0946 24.2621L43.9332 24.2839ZM48.8847 26.1111L48.7228 26.0932L48.7049 26.255L48.8667 26.2729L48.8847 26.1111ZM49.5295 20.2873L49.5475 20.1254L49.3856 20.1075L49.3677 20.2694L49.5295 20.2873ZM53.2878 20.7035L53.4497 20.7214L53.4676 20.5595L53.3057 20.5416L53.2878 20.7035ZM53.1722 21.7479L53.1543 21.9097L53.3161 21.9276L53.334 21.7658L53.1722 21.7479ZM50.6097 21.4641L50.6276 21.3022L50.4658 21.2843L50.4478 21.4462L50.6097 21.4641ZM50.4631 22.7881L50.3012 22.7701L50.2833 22.932L50.4452 22.9499L50.4631 22.7881ZM52.8664 23.0542L53.0283 23.0721L53.0462 22.9102L52.8843 22.8923L52.8664 23.0542ZM52.7503 24.1024L52.7324 24.2643L52.8942 24.2822L52.9122 24.1204L52.7503 24.1024ZM50.347 23.8363L50.365 23.6745L50.2031 23.6565L50.1852 23.8184L50.347 23.8363ZM50.1961 25.1991L50.0343 25.1812L50.0163 25.343L50.1782 25.361L50.1961 25.1991ZM52.7974 25.4871L52.9593 25.5051L52.9772 25.3432L52.8153 25.3253L52.7974 25.4871ZM52.6818 26.5315L52.6638 26.6934L52.8257 26.7113L52.8436 26.5495L52.6818 26.5315ZM48.8847 26.1111L49.0465 26.129L49.6914 20.3052L49.5295 20.2873L49.3677 20.2694L48.7228 26.0932L48.8847 26.1111ZM49.5295 20.2873L49.5116 20.4492L53.2699 20.8653L53.2878 20.7035L53.3057 20.5416L49.5475 20.1254L49.5295 20.2873ZM53.2878 20.7035L53.126 20.6855L53.0103 21.7299L53.1722 21.7479L53.334 21.7658L53.4497 20.7214L53.2878 20.7035ZM53.1722 21.7479L53.1901 21.586L50.6276 21.3022L50.6097 21.4641L50.5918 21.626L53.1543 21.9097L53.1722 21.7479ZM50.6097 21.4641L50.4478 21.4462L50.3012 22.7701L50.4631 22.7881L50.625 22.806L50.7716 21.482L50.6097 21.4641ZM50.4631 22.7881L50.4452 22.9499L52.8485 23.216L52.8664 23.0542L52.8843 22.8923L50.481 22.6262L50.4631 22.7881ZM52.8664 23.0542L52.7045 23.0362L52.5884 24.0845L52.7503 24.1024L52.9122 24.1204L53.0283 23.0721L52.8664 23.0542ZM52.7503 24.1024L52.7682 23.9406L50.365 23.6745L50.347 23.8363L50.3291 23.9982L52.7324 24.2643L52.7503 24.1024ZM50.347 23.8363L50.1852 23.8184L50.0343 25.1812L50.1961 25.1991L50.358 25.217L50.5089 23.8543L50.347 23.8363ZM50.1961 25.1991L50.1782 25.361L52.7795 25.649L52.7974 25.4871L52.8153 25.3253L50.2141 25.0372L50.1961 25.1991ZM52.7974 25.4871L52.6356 25.4692L52.5199 26.5136L52.6818 26.5315L52.8436 26.5495L52.9593 25.5051L52.7974 25.4871ZM52.6818 26.5315L52.6997 26.3697L48.9026 25.9492L48.8847 26.1111L48.8667 26.2729L52.6638 26.6934L52.6818 26.5315ZM58.1411 28.4133L58.0853 28.5663L58.3507 28.663L58.3014 28.3849L58.1411 28.4133ZM56.8896 27.9572L56.7292 27.9859L56.7458 28.0782L56.8338 28.1103L56.8896 27.9572ZM56.4583 25.5467L56.6186 25.5181L56.6021 25.4258L56.514 25.3937L56.4583 25.5467ZM55.4086 25.1643L55.4643 25.0113L55.3113 24.9555L55.2556 25.1085L55.4086 25.1643ZM54.6838 27.1535L54.628 27.3065L54.781 27.3623L54.8368 27.2093L54.6838 27.1535ZM53.5533 26.7416L53.4003 26.6859L53.3446 26.8389L53.4976 26.8946L53.5533 26.7416ZM55.5593 21.2363L55.6151 21.0833L55.4621 21.0276L55.4063 21.1806L55.5593 21.2363ZM57.7908 22.0494L57.8466 21.8964L57.7908 22.0494ZM59.3547 23.5422L59.1955 23.5766L59.1959 23.5783L59.3547 23.5422ZM59.2643 24.5777L59.4173 24.6335L59.2643 24.5777ZM58.6446 25.4454L58.5485 25.3139L58.5482 25.3141L58.6446 25.4454ZM57.6719 25.7645L57.6664 25.6017L57.4788 25.608L57.5116 25.7929L57.6719 25.7645ZM55.7362 24.2651L55.5832 24.2093L55.5275 24.3623L55.6805 24.4181L55.7362 24.2651ZM57.5999 24.7071L57.6501 24.8621L57.6504 24.862L57.5999 24.7071ZM58.0398 23.4997L57.901 23.5848L57.9023 23.5868L58.0398 23.4997ZM57.3467 23.0059L57.4024 22.8529L57.3467 23.0059ZM56.33 22.6355L56.3858 22.4825L56.2328 22.4267L56.177 22.5797L56.33 22.6355ZM58.1411 28.4133L58.1968 28.2603L56.9453 27.8042L56.8896 27.9572L56.8338 28.1103L58.0853 28.5663L58.1411 28.4133ZM56.8896 27.9572L57.0499 27.9286L56.6186 25.5181L56.4583 25.5467L56.298 25.5754L56.7292 27.9859L56.8896 27.9572ZM56.4583 25.5467L56.514 25.3937L55.4643 25.0113L55.4086 25.1643L55.3528 25.3173L56.4025 25.6998L56.4583 25.5467ZM55.4086 25.1643L55.2556 25.1085L54.5308 27.0978L54.6838 27.1535L54.8368 27.2093L55.5616 25.22L55.4086 25.1643ZM54.6838 27.1535L54.7395 27.0005L53.6091 26.5886L53.5533 26.7416L53.4976 26.8946L54.628 27.3065L54.6838 27.1535ZM53.5533 26.7416L53.7064 26.7974L55.7123 21.2921L55.5593 21.2363L55.4063 21.1806L53.4003 26.6859L53.5533 26.7416ZM55.5593 21.2363L55.5036 21.3893L57.7351 22.2024L57.7908 22.0494L57.8466 21.8964L55.6151 21.0833L55.5593 21.2363ZM57.7908 22.0494L57.7351 22.2024C58.1624 22.3582 58.495 22.5556 58.7395 22.7906L58.8523 22.6732L58.9652 22.5558C58.6801 22.2818 58.3049 22.0634 57.8466 21.8964L57.7908 22.0494ZM58.8523 22.6732L58.7395 22.7906C58.9835 23.0251 59.133 23.2867 59.1955 23.5766L59.3547 23.5422L59.5139 23.5079C59.4363 23.148 59.2508 22.8302 58.9652 22.5558L58.8523 22.6732ZM59.3547 23.5422L59.1959 23.5783C59.2613 23.866 59.2362 24.179 59.1113 24.522L59.2643 24.5777L59.4173 24.6335C59.5598 24.2424 59.595 23.8651 59.5135 23.5062L59.3547 23.5422ZM59.2643 24.5777L59.1113 24.522C58.983 24.8739 58.794 25.1345 58.5485 25.3139L58.6446 25.4454L58.7407 25.5768C59.0469 25.3531 59.2709 25.0352 59.4173 24.6335L59.2643 24.5777ZM58.6446 25.4454L58.5482 25.3141C58.3052 25.4926 58.0135 25.59 57.6664 25.6017L57.6719 25.7645L57.6774 25.9272C58.0823 25.9136 58.4392 25.7983 58.741 25.5766L58.6446 25.4454ZM57.6719 25.7645L57.5116 25.7929L57.9807 28.4417L58.1411 28.4133L58.3014 28.3849L57.8323 25.7361L57.6719 25.7645ZM55.7362 24.2651L55.6805 24.4181L56.6971 24.7885L56.7529 24.6355L56.8086 24.4825L55.792 24.1121L55.7362 24.2651ZM56.7529 24.6355L56.6971 24.7885C57.0508 24.9174 57.373 24.9519 57.6501 24.8621L57.5999 24.7071L57.5496 24.5522C57.3678 24.6112 57.1254 24.5979 56.8086 24.4825L56.7529 24.6355ZM57.5999 24.7071L57.6504 24.862C57.9377 24.7682 58.1353 24.5577 58.2451 24.2563L58.0921 24.2005L57.9391 24.1448C57.8582 24.3669 57.7276 24.4942 57.5493 24.5523L57.5999 24.7071ZM58.0921 24.2005L58.2451 24.2563C58.355 23.9548 58.3388 23.6672 58.1774 23.4125L58.0398 23.4997L57.9023 23.5868C58.0013 23.743 58.0201 23.9226 57.9391 24.1448L58.0921 24.2005ZM58.0398 23.4997L58.1787 23.4145C58.0253 23.1644 57.7565 22.982 57.4024 22.8529L57.3467 23.0059L57.2909 23.159C57.6072 23.2742 57.8005 23.4209 57.901 23.5848L58.0398 23.4997ZM57.3467 23.0059L57.4024 22.8529L56.3858 22.4825L56.33 22.6355L56.2743 22.7885L57.2909 23.159L57.3467 23.0059ZM56.33 22.6355L56.177 22.5797L55.5832 24.2093L55.7362 24.2651L55.8893 24.3208L56.483 22.6913L56.33 22.6355ZM58.6744 28.7298L58.5394 28.6388L58.4484 28.7739L58.5834 28.8649L58.6744 28.7298ZM61.9478 23.8701L62.0388 23.735L61.9037 23.644L61.8128 23.7791L61.9478 23.8701ZM64.7361 26.2333L64.5815 26.2844L64.5819 26.2857L64.7361 26.2333ZM64.5439 27.4555L64.679 27.5465L64.5439 27.4555ZM63.9358 27.9878L64.003 28.1362L64.0038 28.1358L63.9358 27.9878ZM63.1866 28.1002L63.2075 27.9387L62.7986 27.8856L63.0609 28.2038L63.1866 28.1002ZM63.5454 28.9589L63.3829 28.9685L63.383 28.9705L63.5454 28.9589ZM63.2855 29.8482L63.1504 29.7572L63.2855 29.8482ZM62.5948 30.4332L62.5325 30.2827L62.5321 30.2829L62.5948 30.4332ZM61.7037 30.5254L61.6776 30.6861L61.6782 30.6862L61.7037 30.5254ZM61.5752 26.5768L61.4402 26.4858L61.3492 26.6209L61.4842 26.7119L61.5752 26.5768ZM62.3204 27.0787L62.2294 27.2138L62.3204 27.0787ZM63.44 26.9757L63.305 26.8848L63.44 26.9757ZM63.5239 26.4247L63.3685 26.4733L63.3694 26.4762L63.5239 26.4247ZM63.0876 25.9047L62.9966 26.0398L63.0876 25.9047ZM62.3587 25.4137L62.4496 25.2787L62.3146 25.1877L62.2236 25.3227L62.3587 25.4137ZM60.2593 28.5304L60.1242 28.4395L60.0333 28.5745L60.1683 28.6655L60.2593 28.5304ZM61.5763 29.3092L61.5397 29.4679L61.542 29.4684L61.5763 29.3092ZM62.0206 29.2929L61.9671 29.1391L61.9665 29.1393L62.0206 29.2929ZM62.4689 28.6482L62.3061 28.652L62.3062 28.6546L62.4689 28.6482ZM62.3288 28.2619L62.1947 28.3543L62.1962 28.3564L62.3288 28.2619ZM61.0777 27.3155L61.1686 27.1804L61.0336 27.0895L60.9426 27.2245L61.0777 27.3155ZM58.6744 28.7298L58.8095 28.8208L62.0829 23.9611L61.9478 23.8701L61.8128 23.7791L58.5394 28.6388L58.6744 28.7298ZM61.9478 23.8701L61.8568 24.0051L63.6549 25.2163L63.7459 25.0812L63.8369 24.9462L62.0388 23.735L61.9478 23.8701ZM63.7459 25.0812L63.6549 25.2163C64.1604 25.5568 64.4594 25.9149 64.5815 26.2844L64.7361 26.2333L64.8907 26.1822C64.738 25.7198 64.3768 25.3098 63.8369 24.9462L63.7459 25.0812ZM64.7361 26.2333L64.5819 26.2857C64.7048 26.6475 64.6528 27.0024 64.4088 27.3646L64.5439 27.4555L64.679 27.5465C64.9733 27.1095 65.0494 26.6495 64.8903 26.1809L64.7361 26.2333ZM64.5439 27.4555L64.4088 27.3646C64.2593 27.5866 64.0787 27.7429 63.8677 27.8399L63.9358 27.9878L64.0038 28.1358C64.2749 28.0112 64.4998 27.8126 64.679 27.5465L64.5439 27.4555ZM63.9358 27.9878L63.8685 27.8395C63.6564 27.9357 63.4372 27.9685 63.2075 27.9387L63.1866 28.1002L63.1656 28.2617C63.4557 28.2994 63.7359 28.2573 64.003 28.1362L63.9358 27.9878ZM63.1866 28.1002L63.0609 28.2038C63.2634 28.4494 63.3671 28.7035 63.3829 28.9685L63.5454 28.9589L63.708 28.9492C63.6876 28.6059 63.5521 28.2876 63.3122 27.9966L63.1866 28.1002ZM63.5454 28.9589L63.383 28.9705C63.4017 29.2324 63.3282 29.4933 63.1504 29.7572L63.2855 29.8482L63.4206 29.9392C63.6327 29.6242 63.7325 29.2923 63.7079 28.9473L63.5454 28.9589ZM63.2855 29.8482L63.1504 29.7572C62.9798 30.0105 62.7736 30.1829 62.5325 30.2827L62.5948 30.4332L62.657 30.5837C62.9645 30.4564 63.2187 30.2388 63.4206 29.9392L63.2855 29.8482ZM62.5948 30.4332L62.5321 30.2829C62.2924 30.3828 62.0264 30.4118 61.7293 30.3646L61.7037 30.5254L61.6782 30.6862C62.0278 30.7418 62.3557 30.7093 62.6574 30.5835L62.5948 30.4332ZM61.7037 30.5254L61.7299 30.3647C61.4381 30.3171 61.1348 30.1907 60.8195 29.9783L60.7285 30.1134L60.6375 30.2484C60.9831 30.4812 61.3299 30.6295 61.6776 30.6861L61.7037 30.5254ZM60.7285 30.1134L60.8195 29.9783L58.7654 28.5948L58.6744 28.7298L58.5834 28.8649L60.6375 30.2484L60.7285 30.1134ZM61.5752 26.5768L61.4842 26.7119L62.2294 27.2138L62.3204 27.0787L62.4114 26.9437L61.6662 26.4418L61.5752 26.5768ZM62.3204 27.0787L62.2294 27.2138C62.4727 27.3777 62.7214 27.4609 62.9704 27.4379L62.9554 27.2757L62.9404 27.1135C62.7877 27.1276 62.613 27.0795 62.4114 26.9437L62.3204 27.0787ZM62.9554 27.2757L62.9704 27.4379C63.2244 27.4144 63.4282 27.2848 63.5751 27.0667L63.44 26.9757L63.305 26.8848C63.2075 27.0295 63.0881 27.0999 62.9404 27.1135L62.9554 27.2757ZM63.44 26.9757L63.5751 27.0667C63.7205 26.8509 63.7589 26.6149 63.6784 26.3732L63.5239 26.4247L63.3694 26.4762C63.4157 26.615 63.3982 26.7464 63.305 26.8848L63.44 26.9757ZM63.5239 26.4247L63.6793 26.376C63.6049 26.1382 63.4285 25.938 63.1786 25.7697L63.0876 25.9047L62.9966 26.0398C63.2089 26.1828 63.3234 26.3292 63.3685 26.4733L63.5239 26.4247ZM63.0876 25.9047L63.1786 25.7697L62.4496 25.2787L62.3587 25.4137L62.2677 25.5488L62.9966 26.0398L63.0876 25.9047ZM62.3587 25.4137L62.2236 25.3227L61.4402 26.4858L61.5752 26.5768L61.7103 26.6678L62.4937 25.5047L62.3587 25.4137ZM60.2593 28.5304L60.1683 28.6655L60.9751 29.2089L61.066 29.0738L61.157 28.9388L60.3503 28.3954L60.2593 28.5304ZM61.066 29.0738L60.9751 29.2089C61.1643 29.3364 61.3527 29.4247 61.5397 29.4679L61.5763 29.3092L61.6129 29.1505C61.4738 29.1184 61.322 29.0499 61.157 28.9388L61.066 29.0738ZM61.5763 29.3092L61.542 29.4684C61.7298 29.5089 61.9092 29.5047 62.0746 29.4465L62.0206 29.2929L61.9665 29.1393C61.8686 29.1737 61.7518 29.1804 61.6106 29.15L61.5763 29.3092ZM62.0206 29.2929L62.074 29.4467C62.2445 29.3875 62.3822 29.2782 62.4851 29.1254L62.3501 29.0344L62.215 28.9435C62.1492 29.0412 62.0672 29.1043 61.9671 29.1391L62.0206 29.2929ZM62.3501 29.0344L62.4851 29.1254C62.586 28.9757 62.6383 28.8134 62.6316 28.6419L62.4689 28.6482L62.3062 28.6546C62.3098 28.7474 62.2829 28.8426 62.215 28.9435L62.3501 29.0344ZM62.4689 28.6482L62.6317 28.6445C62.6279 28.4753 62.5671 28.3156 62.4614 28.1673L62.3288 28.2619L62.1962 28.3564C62.2714 28.4618 62.304 28.5596 62.3061 28.652L62.4689 28.6482ZM62.3288 28.2619L62.4629 28.1694C62.3596 28.0197 62.2156 27.8856 62.0369 27.7653L61.9459 27.9004L61.855 28.0354C62.0089 28.1391 62.1201 28.2461 62.1948 28.3543L62.3288 28.2619ZM61.9459 27.9004L62.0369 27.7653L61.1686 27.1804L61.0777 27.3155L60.9867 27.4506L61.855 28.0354L61.9459 27.9004ZM61.0777 27.3155L60.9426 27.2245L60.1242 28.4395L60.2593 28.5304L60.3944 28.6214L61.2127 27.4065L61.0777 27.3155ZM63.36 32.3056L63.2374 32.4128L63.3112 32.4972L63.4163 32.4584L63.36 32.3056ZM62.5296 31.3556L62.4755 31.202L62.2489 31.2819L62.407 31.4628L62.5296 31.3556ZM68.4786 29.2582L68.6012 29.1511L68.5285 29.0679L68.4244 29.1046L68.4786 29.2582ZM69.3141 30.2141L69.459 30.2884L69.5094 30.1901L69.4367 30.1069L69.3141 30.2141ZM66.4372 35.8261L66.3146 35.9332L66.4726 36.114L66.5821 35.9003L66.4372 35.8261ZM65.6068 34.8761L65.463 34.7998L65.4104 34.8988L65.4842 34.9833L65.6068 34.8761ZM66.2377 33.6865L66.3815 33.7628L66.4341 33.6638L66.3603 33.5794L66.2377 33.6865ZM64.6232 31.8395L64.7458 31.7324L64.672 31.648L64.5668 31.6868L64.6232 31.8395ZM65.6769 31.4425L65.6207 31.2896L65.3985 31.3714L65.5543 31.5497L65.6769 31.4425ZM66.7747 32.6983L66.6521 32.8055L66.8081 32.9841L66.9187 32.7743L66.7747 32.6983ZM67.8598 30.6396L68.0038 30.7155L68.2016 30.3403L67.8035 30.4868L67.8598 30.6396ZM63.36 32.3056L63.4826 32.1984L62.6522 31.2484L62.5296 31.3556L62.407 31.4628L63.2374 32.4128L63.36 32.3056ZM62.5296 31.3556L62.5838 31.5092L68.5327 29.4118L68.4786 29.2582L68.4244 29.1046L62.4755 31.202L62.5296 31.3556ZM68.4786 29.2582L68.3559 29.3654L69.1914 30.3213L69.3141 30.2141L69.4367 30.1069L68.6012 29.1511L68.4786 29.2582ZM69.3141 30.2141L69.1691 30.1398L66.2923 35.7518L66.4372 35.8261L66.5821 35.9003L69.459 30.2884L69.3141 30.2141ZM66.4372 35.8261L66.5598 35.7189L65.7294 34.7689L65.6068 34.8761L65.4842 34.9833L66.3146 35.9332L66.4372 35.8261ZM65.6068 34.8761L65.7507 34.9524L66.3815 33.7628L66.2377 33.6865L66.0938 33.6102L65.463 34.7998L65.6068 34.8761ZM66.2377 33.6865L66.3603 33.5794L64.7458 31.7324L64.6232 31.8395L64.5006 31.9467L66.115 33.7937L66.2377 33.6865ZM64.6232 31.8395L64.5668 31.6868L63.3036 32.1528L63.36 32.3056L63.4163 32.4584L64.6796 31.9923L64.6232 31.8395ZM65.6769 31.4425L65.5543 31.5497L66.6521 32.8055L66.7747 32.6983L66.8973 32.5912L65.7996 31.3353L65.6769 31.4425ZM66.7747 32.6983L66.9187 32.7743L68.0038 30.7155L67.8598 30.6396L67.7157 30.5637L66.6306 32.6224L66.7747 32.6983ZM67.8598 30.6396L67.8035 30.4868L65.6207 31.2896L65.6769 31.4425L65.7332 31.5953L67.916 30.7924L67.8598 30.6396ZM68.4528 39.707L68.3079 39.7815L68.3824 39.9263L68.5273 39.8518L68.4528 39.707ZM66.7016 36.3029L66.6271 36.1581L66.4823 36.2326L66.5568 36.3774L66.7016 36.3029ZM71.912 33.6225L72.0568 33.548L71.9823 33.4032L71.8375 33.4777L71.912 33.6225ZM72.4623 34.6924L72.5368 34.8372L72.6816 34.7627L72.6071 34.6179L72.4623 34.6924ZM68.1863 36.8921L68.1119 36.7473L67.967 36.8218L68.0415 36.9666L68.1863 36.8921ZM69.3872 39.2263L69.4616 39.3712L69.6065 39.2967L69.532 39.1518L69.3872 39.2263ZM68.4528 39.707L68.5976 39.6325L66.8464 36.2284L66.7016 36.3029L66.5568 36.3774L68.3079 39.7815L68.4528 39.707ZM66.7016 36.3029L66.7761 36.4477L71.9864 33.7674L71.912 33.6225L71.8375 33.4777L66.6271 36.1581L66.7016 36.3029ZM71.912 33.6225L71.7671 33.697L72.3175 34.7669L72.4623 34.6924L72.6071 34.6179L72.0568 33.548L71.912 33.6225ZM72.4623 34.6924L72.3878 34.5476L68.1119 36.7473L68.1863 36.8921L68.2608 37.0369L72.5368 34.8372L72.4623 34.6924ZM68.1863 36.8921L68.0415 36.9666L69.2423 39.3008L69.3872 39.2263L69.532 39.1518L68.3312 36.8176L68.1863 36.8921ZM69.3872 39.2263L69.3127 39.0815L68.3783 39.5622L68.4528 39.707L68.5273 39.8518L69.4616 39.3712L69.3872 39.2263Z" fill="#007E3C" mask="url(#path-3-outside-1_410_8)"/>
<mask id="path-5-inside-2_410_8" fill="white">
<path d="M50.1506 56.9709C48.8584 57.4391 47.6001 57.5483 46.2261 57.5559C47.4273 58.0581 49.1919 57.8701 50.1506 56.9709Z"/>
</mask>
<path d="M50.1506 56.9709C48.8584 57.4391 47.6001 57.5483 46.2261 57.5559C47.4273 58.0581 49.1919 57.8701 50.1506 56.9709Z" fill="#007E3C"/>
<path d="M50.1506 56.9709L50.4434 57.2832L50.0048 56.5685L50.1506 56.9709ZM46.2261 57.5559L46.2237 57.1279L46.061 57.9508L46.2261 57.5559ZM50.1506 56.9709L50.0048 56.5685C48.7792 57.0125 47.5771 57.1204 46.2237 57.1279L46.2261 57.5559L46.2284 57.984C47.6231 57.9763 48.9375 57.8657 50.2964 57.3734L50.1506 56.9709ZM46.2261 57.5559L46.061 57.9508C46.7421 58.2356 47.5621 58.3184 48.3369 58.2131C49.1105 58.108 49.8826 57.8092 50.4434 57.2832L50.1506 56.9709L49.8577 56.6587C49.4599 57.0319 48.8703 57.2767 48.2217 57.3648C47.5742 57.4528 46.9112 57.3784 46.3912 57.161L46.2261 57.5559Z" fill="#007E3C" mask="url(#path-5-inside-2_410_8)"/>
<mask id="path-7-inside-3_410_8" fill="white">
<path d="M44.6676 54.9399C44.137 56.1726 43.3585 57.1366 42.4243 58.1123C43.6232 57.6064 44.6893 56.2301 44.6676 54.9399Z"/>
</mask>
<path d="M44.6676 54.9399C44.137 56.1726 43.3585 57.1366 42.4243 58.1123C43.6232 57.6064 44.6893 56.2301 44.6676 54.9399Z" fill="#007E3C"/>
<path d="M44.6676 54.9399L45.0956 54.9327L44.2745 54.7707L44.6676 54.9399ZM42.4243 58.1123L42.1151 57.8163L42.5907 58.5067L42.4243 58.1123ZM44.6676 54.9399L44.2745 54.7707C43.7733 55.9351 43.0347 56.8559 42.1151 57.8163L42.4243 58.1123L42.7335 58.4084C43.6822 57.4174 44.5008 56.4101 45.0608 55.1092L44.6676 54.9399ZM42.4243 58.1123L42.5907 58.5067C43.271 58.2196 43.8965 57.6952 44.3498 57.0721C44.8023 56.4502 45.1084 55.6946 45.0956 54.9327L44.6676 54.9399L44.2397 54.9471C44.2485 55.4755 44.0325 56.0531 43.6576 56.5684C43.2835 57.0825 42.7765 57.4991 42.2579 57.718L42.4243 58.1123Z" fill="#007E3C" mask="url(#path-7-inside-3_410_8)"/>
<path d="M45.0679 54.4844L44.6284 54.6494C44.6621 54.9128 44.7041 55.1414 44.7192 55.3809C44.7516 55.8955 44.5209 56.3796 44.1353 56.7734C43.8566 57.0489 43.5286 57.2294 43.1655 57.3975C42.8128 57.5607 42.4036 57.7217 42.0288 57.9463C40.5048 58.8593 39.7238 60.8194 40.3657 62.4971L40.3667 62.5C40.5607 62.9868 40.7065 63.2953 40.8052 63.4844C40.8545 63.5789 40.8926 63.6442 40.9194 63.6875C40.9328 63.7091 40.9436 63.7256 40.9517 63.7373C40.9556 63.743 40.9588 63.7483 40.9614 63.752C40.9627 63.7537 40.9644 63.7555 40.9653 63.7568L40.9663 63.7588H40.9673V63.7598L41.0132 63.8193L41.0845 63.8428H41.0854H41.0864L41.0874 63.8438C41.0886 63.8441 41.0906 63.8442 41.0923 63.8447C41.0956 63.8457 41.1 63.8472 41.105 63.8486C41.1154 63.8515 41.1294 63.8552 41.147 63.8594C41.1826 63.8678 41.2334 63.878 41.2983 63.8877C41.4282 63.907 41.6161 63.9239 41.8599 63.917C42.3483 63.9031 43.0585 63.7944 43.978 63.4297C44.2786 63.3105 44.5496 63.1573 44.7437 63.0352C44.8013 62.9989 44.8513 62.9632 44.895 62.9336C45.2601 63.2776 46.0408 63.9531 47.063 64.3145C48.7339 64.9045 50.5217 64.578 51.8813 63.4688C53.3376 62.2813 54.011 60.5592 54.438 58.8818L54.022 58.666C53.474 59.3033 53.0224 59.7475 52.1997 59.7734C51.7732 59.7869 51.3929 59.6826 50.9995 59.5381C50.6183 59.3981 50.1921 59.2057 49.7446 59.0889C48.7489 58.8289 47.6687 58.9813 46.7739 59.4561C46.7744 59.4472 46.7764 59.4385 46.7769 59.4297C46.8773 57.5854 46.0392 55.9312 45.0679 54.4844ZM38.2651 69.1455L38.1343 69.0781C32.3345 66.1039 28.3804 60.2038 28.3804 53.4316C28.3806 53.0887 28.6697 52.7979 29.0435 52.7979H53.1021L53.1733 52.6934L57.9683 45.6973L57.9878 45.6689L57.9985 45.6377L59.5103 41.1201C59.571 40.9388 59.7155 40.7913 59.9058 40.7217C60.0959 40.6521 60.3085 40.6698 60.4829 40.7695L65.8833 43.8643C66.0573 43.9639 66.1723 44.1333 66.1997 44.3213C66.2235 44.4856 66.1791 44.6526 66.0757 44.7861L66.0278 44.8408L62.6626 48.2959L62.6392 48.3203L62.6235 48.3496L60.4038 52.4424L60.2104 52.7979H64.3032C64.6769 52.7979 64.967 53.0887 64.9673 53.4316C64.9673 60.2034 61.0127 66.1029 55.2134 69.0771L55.0825 69.1445V69.4902C55.0825 70.5724 54.1744 71.4629 53.0366 71.4629H40.3101C39.1734 71.4627 38.2651 70.5724 38.2651 69.4902V69.1455Z" fill="#007E3C" stroke="#007E3C" stroke-width="0.48167"/>
<defs>
<filter id="filter0_i_410_8" x="0" y="0" width="95" height="99" filterUnits="userSpaceOnUse" color-interpolation-filters="sRGB">
<feFlood flood-opacity="0" result="BackgroundImageFix"/>
<feBlend mode="normal" in="SourceGraphic" in2="BackgroundImageFix" result="shape"/>
<feColorMatrix in="SourceAlpha" type="matrix" values="0 0 0 0 0 0 0 0 0 0 0 0 0 0 0 0 0 0 127 0" result="hardAlpha"/>
<feOffset dy="4"/>
<feGaussianBlur stdDeviation="2"/>
<feComposite in2="hardAlpha" operator="arithmetic" k2="-1" k3="1"/>
<feColorMatrix type="matrix" values="0 0 0 0 0 0 0 0 0 0 0 0 0 0 0 0 0 0 0.25 0"/>
<feBlend mode="normal" in2="shape" result="effect1_innerShadow_410_8"/>
</filter>
</defs>
</svg>
