<svg width="81" height="81" viewBox="0 0 81 81" fill="none" xmlns="http://www.w3.org/2000/svg">
<circle cx="39.2282" cy="40.9747" r="32.5392" stroke="#007E3C" stroke-width="2"/>
<mask id="path-2-outside-1_38_148" maskUnits="userSpaceOnUse" x="13.8034" y="2.96034" width="53.7391" height="50.0788" fill="black">
<rect fill="white" x="13.8034" y="2.96034" width="53.7391" height="50.0788"/>
<path d="M20.8907 31.5945L20.4318 32.7066L16.1059 30.9216L16.0641 31.9651L15.0364 31.9467L15.1093 30.2442L15.4743 29.3595L20.8907 31.5945ZM22.6147 28.8908C22.3759 29.2574 22.0698 29.5102 21.6964 29.6492C21.3208 29.7869 20.8949 29.8062 20.4185 29.7072C19.9414 29.6047 19.4312 29.3764 18.8879 29.0225C18.3468 28.67 17.934 28.2969 17.6496 27.9034C17.3666 27.5077 17.2132 27.111 17.1895 26.7132C17.1636 26.3141 17.27 25.9312 17.5088 25.5646C17.749 25.1959 18.0569 24.9427 18.4325 24.8051C18.8059 24.666 19.2301 24.6471 19.705 24.7482C20.1813 24.8472 20.6901 25.0729 21.2312 25.4254C21.7745 25.7794 22.1895 26.1538 22.4761 26.5488C22.7605 26.9423 22.915 27.3397 22.9395 27.7411C22.9632 28.1388 22.8549 28.5221 22.6147 28.8908ZM21.7343 28.3173C21.8935 28.0729 21.8702 27.7889 21.6646 27.4653C21.4603 27.1396 21.0931 26.804 20.5628 26.4586C20.0304 26.1117 19.575 25.9114 19.1967 25.8577C18.8176 25.8003 18.5485 25.8938 18.3893 26.1382C18.2329 26.3782 18.2568 26.6611 18.4611 26.9868C18.6632 27.3112 19.0304 27.6468 19.5628 27.9936C20.0931 28.339 20.5484 28.5393 20.929 28.5945C21.3095 28.6497 21.5779 28.5573 21.7343 28.3173ZM25.6573 25.2135C25.342 25.5168 24.9868 25.6941 24.5916 25.7453C24.1947 25.7947 23.7754 25.7175 23.3336 25.5137C22.8919 25.3063 22.4463 24.9689 21.9968 24.5015C21.549 24.0361 21.231 23.5796 21.0426 23.1321C20.8561 22.6828 20.7961 22.2617 20.8626 21.8688C20.9274 21.4741 21.1174 21.1251 21.4327 20.8218C21.7499 20.5167 22.107 20.3394 22.5039 20.29C22.899 20.2388 23.3165 20.3159 23.7564 20.5215C24.1982 20.7253 24.6429 21.06 25.0906 21.5254C25.5402 21.9927 25.86 22.4511 26.0502 22.9005C26.2386 23.348 26.2995 23.77 26.2329 24.1665C26.1663 24.5594 25.9745 24.9084 25.6573 25.2135ZM24.9288 24.4562C25.139 24.254 25.1804 23.9721 25.053 23.6105C24.9274 23.247 24.6453 22.8373 24.2066 22.3812C23.7661 21.9233 23.3676 21.6255 23.0111 21.4878C22.6547 21.3465 22.3714 21.3769 22.1612 21.5791C21.9547 21.7777 21.9143 22.0587 22.0399 22.4221C22.1636 22.7836 22.4457 23.1934 22.8863 23.6513C23.325 24.1074 23.7235 24.4052 24.0817 24.5447C24.44 24.6843 24.7224 24.6548 24.9288 24.4562ZM27.0132 19.7309C26.6663 19.9214 26.3297 19.9741 26.0036 19.8887C25.6797 19.8022 25.4269 19.5934 25.2452 19.2625C25.0621 18.9292 25.021 18.6027 25.1217 18.283C25.2246 17.962 25.4496 17.7062 25.7966 17.5157C26.1458 17.3238 26.4823 17.2712 26.8062 17.3578C27.1323 17.4431 27.3869 17.6524 27.5699 17.9856C27.7517 18.3166 27.7911 18.6426 27.6881 18.9636C27.5874 19.2833 27.3625 19.5391 27.0132 19.7309ZM28.8618 22.6018L28.0504 23.0474L28.5405 16.0933L29.352 15.6476L28.8618 22.6018ZM26.7123 19.1831C26.8561 19.1041 26.9444 18.9888 26.977 18.8372C27.0083 18.6833 26.9782 18.523 26.8867 18.3564C26.7939 18.1875 26.6755 18.0773 26.5313 18.0257C26.3859 17.9719 26.2412 17.9845 26.0974 18.0635C25.9536 18.1424 25.8654 18.2577 25.8328 18.4093C25.8012 18.5574 25.8318 18.7159 25.9246 18.8848C26.0161 19.0514 26.1341 19.1634 26.2785 19.2208C26.4239 19.2746 26.5685 19.262 26.7123 19.1831ZM31.5841 21.2047C31.2371 21.3952 30.9006 21.4479 30.5744 21.3625C30.2493 21.2737 29.9959 21.0638 29.8141 20.7328C29.6311 20.3996 29.5899 20.0731 29.6906 19.7533C29.7936 19.4324 30.0186 19.1766 30.3655 18.986C30.7148 18.7942 31.0513 18.7416 31.3752 18.8282C31.699 18.9147 31.9525 19.1246 32.1355 19.4579C32.3173 19.7888 32.3573 20.116 32.2555 20.4392C32.1548 20.759 31.931 21.0141 31.5841 21.2047ZM31.2813 20.6534C31.4251 20.5745 31.5122 20.4598 31.5425 20.3094C31.5751 20.1578 31.5457 19.9987 31.4541 19.8321C31.3614 19.6632 31.2423 19.5518 31.0968 19.498C30.9537 19.4429 30.8102 19.4549 30.6664 19.5338C30.5203 19.6141 30.4321 19.7294 30.4018 19.8797C30.3715 20.0301 30.4027 20.1897 30.4955 20.3586C30.587 20.5252 30.7043 20.6361 30.8475 20.6912C30.9906 20.7462 31.1352 20.7337 31.2813 20.6534ZM36.2497 19.622L35.0574 19.7834L34.2714 13.9769L35.4637 13.8155L35.7922 16.2426L38.3045 15.9025L37.9759 13.4755L39.1682 13.3141L39.9542 19.1205L38.7619 19.2819L38.4454 16.9438L35.9332 17.2839L36.2497 19.622ZM40.8847 19.1111L41.5295 13.2873L45.2878 13.7035L45.1722 14.7479L42.6097 14.4641L42.4631 15.7881L44.8664 16.0542L44.7503 17.1024L42.347 16.8363L42.1961 18.1991L44.7974 18.4871L44.6818 19.5315L40.8847 19.1111ZM50.1411 21.4133L48.8896 20.9572L48.4583 18.5467L47.4086 18.1643L46.6838 20.1535L45.5533 19.7416L47.5593 14.2363L49.7908 15.0494C50.2337 15.2108 50.5875 15.4187 50.8523 15.6732C51.1172 15.9277 51.2846 16.2173 51.3547 16.5422C51.4281 16.8655 51.398 17.2107 51.2643 17.5777C51.127 17.9545 50.9204 18.2438 50.6446 18.4454C50.3722 18.6454 50.0479 18.7518 49.6719 18.7645L50.1411 21.4133ZM47.7362 17.2651L48.7529 17.6355C49.0881 17.7577 49.3704 17.7815 49.5999 17.7071C49.8326 17.6312 49.9967 17.4623 50.0921 17.2005C50.1875 16.9387 50.1701 16.7051 50.0398 16.4997C49.9129 16.2927 49.6819 16.1281 49.3467 16.0059L48.33 15.6355L47.7362 17.2651ZM50.6744 21.7298L53.9478 16.8701L55.7459 18.0812C56.2686 18.4333 56.5987 18.8173 56.7361 19.2333C56.8771 19.6485 56.8131 20.056 56.5439 20.4555C56.3795 20.6996 56.1768 20.877 55.9358 20.9878C55.6962 21.0965 55.4464 21.1339 55.1866 21.1002C55.4078 21.3685 55.5274 21.6547 55.5454 21.9589C55.5671 22.2623 55.4805 22.5588 55.2855 22.8482C55.0993 23.1247 54.869 23.3197 54.5948 23.4332C54.3241 23.546 54.0271 23.5768 53.7037 23.5254C53.384 23.4733 53.0589 23.336 52.7285 23.1134L50.6744 21.7298ZM53.5752 19.5768L54.3204 20.0787C54.5429 20.2286 54.7545 20.2942 54.9554 20.2757C55.1563 20.2572 55.3178 20.1572 55.44 19.9757C55.5593 19.7986 55.5873 19.6149 55.5239 19.4247C55.4642 19.2337 55.3187 19.0604 55.0876 18.9047L54.3587 18.4137L53.5752 19.5768ZM52.2593 21.5304L53.066 22.0738C53.2431 22.1931 53.4132 22.2716 53.5763 22.3092C53.7408 22.3446 53.8889 22.3392 54.0206 22.2929C54.1559 22.2459 54.2657 22.1597 54.3501 22.0344C54.4344 21.9092 54.4741 21.7804 54.4689 21.6482C54.4659 21.5175 54.4192 21.3887 54.3288 21.2619C54.2399 21.1329 54.1123 21.0124 53.9459 20.9004L53.0777 20.3155L52.2593 21.5304ZM55.36 25.3056L54.5296 24.3556L60.4786 22.2582L61.3141 23.2141L58.4372 28.8261L57.6068 27.8761L58.2376 26.6865L56.6232 24.8395L55.36 25.3056ZM57.6769 24.4425L58.7747 25.6983L59.8598 23.6396L57.6769 24.4425ZM60.4528 32.707L58.7016 29.3029L63.912 26.6225L64.4623 27.6924L60.1863 29.8921L61.3872 32.2263L60.4528 32.707Z"/>
</mask>
<path d="M20.8907 31.5945L20.4318 32.7066L16.1059 30.9216L16.0641 31.9651L15.0364 31.9467L15.1093 30.2442L15.4743 29.3595L20.8907 31.5945ZM22.6147 28.8908C22.3759 29.2574 22.0698 29.5102 21.6964 29.6492C21.3208 29.7869 20.8949 29.8062 20.4185 29.7072C19.9414 29.6047 19.4312 29.3764 18.8879 29.0225C18.3468 28.67 17.934 28.2969 17.6496 27.9034C17.3666 27.5077 17.2132 27.111 17.1895 26.7132C17.1636 26.3141 17.27 25.9312 17.5088 25.5646C17.749 25.1959 18.0569 24.9427 18.4325 24.8051C18.8059 24.666 19.2301 24.6471 19.705 24.7482C20.1813 24.8472 20.6901 25.0729 21.2312 25.4254C21.7745 25.7794 22.1895 26.1538 22.4761 26.5488C22.7605 26.9423 22.915 27.3397 22.9395 27.7411C22.9632 28.1388 22.8549 28.5221 22.6147 28.8908ZM21.7343 28.3173C21.8935 28.0729 21.8702 27.7889 21.6646 27.4653C21.4603 27.1396 21.0931 26.804 20.5628 26.4586C20.0304 26.1117 19.575 25.9114 19.1967 25.8577C18.8176 25.8003 18.5485 25.8938 18.3893 26.1382C18.2329 26.3782 18.2568 26.6611 18.4611 26.9868C18.6632 27.3112 19.0304 27.6468 19.5628 27.9936C20.0931 28.339 20.5484 28.5393 20.929 28.5945C21.3095 28.6497 21.5779 28.5573 21.7343 28.3173ZM25.6573 25.2135C25.342 25.5168 24.9868 25.6941 24.5916 25.7453C24.1947 25.7947 23.7754 25.7175 23.3336 25.5137C22.8919 25.3063 22.4463 24.9689 21.9968 24.5015C21.549 24.0361 21.231 23.5796 21.0426 23.1321C20.8561 22.6828 20.7961 22.2617 20.8626 21.8688C20.9274 21.4741 21.1174 21.1251 21.4327 20.8218C21.7499 20.5167 22.107 20.3394 22.5039 20.29C22.899 20.2388 23.3165 20.3159 23.7564 20.5215C24.1982 20.7253 24.6429 21.06 25.0906 21.5254C25.5402 21.9927 25.86 22.4511 26.0502 22.9005C26.2386 23.348 26.2995 23.77 26.2329 24.1665C26.1663 24.5594 25.9745 24.9084 25.6573 25.2135ZM24.9288 24.4562C25.139 24.254 25.1804 23.9721 25.053 23.6105C24.9274 23.247 24.6453 22.8373 24.2066 22.3812C23.7661 21.9233 23.3676 21.6255 23.0111 21.4878C22.6547 21.3465 22.3714 21.3769 22.1612 21.5791C21.9547 21.7777 21.9143 22.0587 22.0399 22.4221C22.1636 22.7836 22.4457 23.1934 22.8863 23.6513C23.325 24.1074 23.7235 24.4052 24.0817 24.5447C24.44 24.6843 24.7224 24.6548 24.9288 24.4562ZM27.0132 19.7309C26.6663 19.9214 26.3297 19.9741 26.0036 19.8887C25.6797 19.8022 25.4269 19.5934 25.2452 19.2625C25.0621 18.9292 25.021 18.6027 25.1217 18.283C25.2246 17.962 25.4496 17.7062 25.7966 17.5157C26.1458 17.3238 26.4823 17.2712 26.8062 17.3578C27.1323 17.4431 27.3869 17.6524 27.5699 17.9856C27.7517 18.3166 27.7911 18.6426 27.6881 18.9636C27.5874 19.2833 27.3625 19.5391 27.0132 19.7309ZM28.8618 22.6018L28.0504 23.0474L28.5405 16.0933L29.352 15.6476L28.8618 22.6018ZM26.7123 19.1831C26.8561 19.1041 26.9444 18.9888 26.977 18.8372C27.0083 18.6833 26.9782 18.523 26.8867 18.3564C26.7939 18.1875 26.6755 18.0773 26.5313 18.0257C26.3859 17.9719 26.2412 17.9845 26.0974 18.0635C25.9536 18.1424 25.8654 18.2577 25.8328 18.4093C25.8012 18.5574 25.8318 18.7159 25.9246 18.8848C26.0161 19.0514 26.1341 19.1634 26.2785 19.2208C26.4239 19.2746 26.5685 19.262 26.7123 19.1831ZM31.5841 21.2047C31.2371 21.3952 30.9006 21.4479 30.5744 21.3625C30.2493 21.2737 29.9959 21.0638 29.8141 20.7328C29.6311 20.3996 29.5899 20.0731 29.6906 19.7533C29.7936 19.4324 30.0186 19.1766 30.3655 18.986C30.7148 18.7942 31.0513 18.7416 31.3752 18.8282C31.699 18.9147 31.9525 19.1246 32.1355 19.4579C32.3173 19.7888 32.3573 20.116 32.2555 20.4392C32.1548 20.759 31.931 21.0141 31.5841 21.2047ZM31.2813 20.6534C31.4251 20.5745 31.5122 20.4598 31.5425 20.3094C31.5751 20.1578 31.5457 19.9987 31.4541 19.8321C31.3614 19.6632 31.2423 19.5518 31.0968 19.498C30.9537 19.4429 30.8102 19.4549 30.6664 19.5338C30.5203 19.6141 30.4321 19.7294 30.4018 19.8797C30.3715 20.0301 30.4027 20.1897 30.4955 20.3586C30.587 20.5252 30.7043 20.6361 30.8475 20.6912C30.9906 20.7462 31.1352 20.7337 31.2813 20.6534ZM36.2497 19.622L35.0574 19.7834L34.2714 13.9769L35.4637 13.8155L35.7922 16.2426L38.3045 15.9025L37.9759 13.4755L39.1682 13.3141L39.9542 19.1205L38.7619 19.2819L38.4454 16.9438L35.9332 17.2839L36.2497 19.622ZM40.8847 19.1111L41.5295 13.2873L45.2878 13.7035L45.1722 14.7479L42.6097 14.4641L42.4631 15.7881L44.8664 16.0542L44.7503 17.1024L42.347 16.8363L42.1961 18.1991L44.7974 18.4871L44.6818 19.5315L40.8847 19.1111ZM50.1411 21.4133L48.8896 20.9572L48.4583 18.5467L47.4086 18.1643L46.6838 20.1535L45.5533 19.7416L47.5593 14.2363L49.7908 15.0494C50.2337 15.2108 50.5875 15.4187 50.8523 15.6732C51.1172 15.9277 51.2846 16.2173 51.3547 16.5422C51.4281 16.8655 51.398 17.2107 51.2643 17.5777C51.127 17.9545 50.9204 18.2438 50.6446 18.4454C50.3722 18.6454 50.0479 18.7518 49.6719 18.7645L50.1411 21.4133ZM47.7362 17.2651L48.7529 17.6355C49.0881 17.7577 49.3704 17.7815 49.5999 17.7071C49.8326 17.6312 49.9967 17.4623 50.0921 17.2005C50.1875 16.9387 50.1701 16.7051 50.0398 16.4997C49.9129 16.2927 49.6819 16.1281 49.3467 16.0059L48.33 15.6355L47.7362 17.2651ZM50.6744 21.7298L53.9478 16.8701L55.7459 18.0812C56.2686 18.4333 56.5987 18.8173 56.7361 19.2333C56.8771 19.6485 56.8131 20.056 56.5439 20.4555C56.3795 20.6996 56.1768 20.877 55.9358 20.9878C55.6962 21.0965 55.4464 21.1339 55.1866 21.1002C55.4078 21.3685 55.5274 21.6547 55.5454 21.9589C55.5671 22.2623 55.4805 22.5588 55.2855 22.8482C55.0993 23.1247 54.869 23.3197 54.5948 23.4332C54.3241 23.546 54.0271 23.5768 53.7037 23.5254C53.384 23.4733 53.0589 23.336 52.7285 23.1134L50.6744 21.7298ZM53.5752 19.5768L54.3204 20.0787C54.5429 20.2286 54.7545 20.2942 54.9554 20.2757C55.1563 20.2572 55.3178 20.1572 55.44 19.9757C55.5593 19.7986 55.5873 19.6149 55.5239 19.4247C55.4642 19.2337 55.3187 19.0604 55.0876 18.9047L54.3587 18.4137L53.5752 19.5768ZM52.2593 21.5304L53.066 22.0738C53.2431 22.1931 53.4132 22.2716 53.5763 22.3092C53.7408 22.3446 53.8889 22.3392 54.0206 22.2929C54.1559 22.2459 54.2657 22.1597 54.3501 22.0344C54.4344 21.9092 54.4741 21.7804 54.4689 21.6482C54.4659 21.5175 54.4192 21.3887 54.3288 21.2619C54.2399 21.1329 54.1123 21.0124 53.9459 20.9004L53.0777 20.3155L52.2593 21.5304ZM55.36 25.3056L54.5296 24.3556L60.4786 22.2582L61.3141 23.2141L58.4372 28.8261L57.6068 27.8761L58.2376 26.6865L56.6232 24.8395L55.36 25.3056ZM57.6769 24.4425L58.7747 25.6983L59.8598 23.6396L57.6769 24.4425ZM60.4528 32.707L58.7016 29.3029L63.912 26.6225L64.4623 27.6924L60.1863 29.8921L61.3872 32.2263L60.4528 32.707Z" fill="#007E3C"/>
<path d="M20.8907 31.5945L21.0412 31.6566L21.1033 31.5061L20.9528 31.4439L20.8907 31.5945ZM20.4318 32.7066L20.3697 32.8572L20.5202 32.9193L20.5823 32.7688L20.4318 32.7066ZM16.1059 30.9217L16.168 30.7711L15.9525 30.6822L15.9432 30.9151L16.1059 30.9217ZM16.0641 31.9651L16.0612 32.1279L16.2205 32.1307L16.2268 31.9716L16.0641 31.9651ZM15.0364 31.9467L14.8737 31.9397L14.8666 32.1065L15.0335 32.1095L15.0364 31.9467ZM15.1093 30.2442L14.9587 30.1821L14.9478 30.2086L14.9466 30.2372L15.1093 30.2442ZM15.4743 29.3595L15.5364 29.209L15.3859 29.1469L15.3238 29.2974L15.4743 29.3595ZM20.8907 31.5945L20.7401 31.5324L20.2812 32.6445L20.4318 32.7066L20.5823 32.7688L21.0412 31.6566L20.8907 31.5945ZM20.4318 32.7066L20.4939 32.5561L16.168 30.7711L16.1059 30.9217L16.0438 31.0722L20.3697 32.8572L20.4318 32.7066ZM16.1059 30.9217L15.9432 30.9151L15.9014 31.9586L16.0641 31.9651L16.2268 31.9716L16.2686 30.9282L16.1059 30.9217ZM16.0641 31.9651L16.067 31.8022L15.0393 31.7838L15.0364 31.9467L15.0335 32.1095L16.0612 32.1279L16.0641 31.9651ZM15.0364 31.9467L15.1991 31.9536L15.272 30.2512L15.1093 30.2442L14.9466 30.2372L14.8737 31.9397L15.0364 31.9467ZM15.1093 30.2442L15.2598 30.3063L15.6248 29.4216L15.4743 29.3595L15.3238 29.2974L14.9587 30.1821L15.1093 30.2442ZM15.4743 29.3595L15.4122 29.5101L20.8286 31.745L20.8907 31.5945L20.9528 31.4439L15.5364 29.209L15.4743 29.3595ZM21.6964 29.6492L21.7524 29.8022L21.7532 29.8019L21.6964 29.6492ZM20.4185 29.7072L20.3843 29.8664L20.3854 29.8667L20.4185 29.7072ZM17.6496 27.9034L17.5171 27.9981L17.5176 27.9988L17.6496 27.9034ZM17.1895 26.7132L17.352 26.7035L17.352 26.7027L17.1895 26.7132ZM17.5088 25.5646L17.3724 25.4757L17.5088 25.5646ZM18.4325 24.8051L18.4886 24.958L18.4894 24.9577L18.4325 24.8051ZM19.705 24.7482L19.6711 24.9075L19.6719 24.9077L19.705 24.7482ZM22.4761 26.5488L22.6081 26.4534L22.6079 26.4531L22.4761 26.5488ZM22.9395 27.7411L23.102 27.7314L23.102 27.7312L22.9395 27.7411ZM21.6646 27.4653L21.5266 27.5518L21.5271 27.5527L21.6646 27.4653ZM20.5628 26.4586L20.4739 26.595L20.5628 26.4586ZM19.1967 25.8577L19.1723 26.0187L19.1738 26.0189L19.1967 25.8577ZM18.3893 26.1382L18.2528 26.0493L18.3893 26.1382ZM18.4611 26.9868L18.5993 26.9007L18.5991 26.9003L18.4611 26.9868ZM22.6147 28.8908L22.4783 28.8019C22.2565 29.1423 21.9771 29.371 21.6396 29.4966L21.6964 29.6492L21.7532 29.8019C22.1625 29.6495 22.4953 29.3725 22.7512 28.9797L22.6147 28.8908ZM21.6964 29.6492L21.6404 29.4963C21.2989 29.6214 20.9047 29.6419 20.4517 29.5478L20.4185 29.7072L20.3854 29.8667C20.885 29.9705 21.3427 29.9523 21.7524 29.8022L21.6964 29.6492ZM20.4185 29.7072L20.4528 29.548C20.0004 29.4508 19.5086 29.2325 18.9768 28.886L18.8879 29.0225L18.799 29.1589C19.3539 29.5204 19.8825 29.7586 20.3843 29.8664L20.4185 29.7072ZM18.8879 29.0225L18.9768 28.886C18.4472 28.541 18.0511 28.1809 17.7816 27.808L17.6496 27.9034L17.5176 27.9988C17.8169 28.4129 18.2463 28.7989 18.799 29.1589L18.8879 29.0225ZM17.6496 27.9034L17.782 27.8087C17.5129 27.4324 17.3736 27.0645 17.352 26.7035L17.1895 26.7132L17.0269 26.7229C17.0528 27.1574 17.2202 27.583 17.5171 27.9981L17.6496 27.9034ZM17.1895 26.7132L17.352 26.7027C17.3286 26.3419 17.4238 25.9935 17.6453 25.6535L17.5088 25.5646L17.3724 25.4757C17.1163 25.8689 16.9986 26.2862 17.027 26.7238L17.1895 26.7132ZM17.5088 25.5646L17.6453 25.6535C17.8683 25.3111 18.1493 25.0823 18.4886 24.958L18.4325 24.8051L18.3765 24.6522C17.9646 24.8031 17.6298 25.0806 17.3724 25.4757L17.5088 25.5646ZM18.4325 24.8051L18.4894 24.9577C18.828 24.8316 19.2198 24.8114 19.6711 24.9075L19.705 24.7482L19.7389 24.5889C19.2404 24.4828 18.7839 24.5005 18.3757 24.6524L18.4325 24.8051ZM19.705 24.7482L19.6719 24.9077C20.123 25.0014 20.6129 25.217 21.1423 25.5619L21.2312 25.4254L21.3201 25.289C20.7672 24.9288 20.2396 24.693 19.7381 24.5888L19.705 24.7482ZM21.2312 25.4254L21.1423 25.5619C21.6741 25.9083 22.0725 26.2699 22.3443 26.6444L22.4761 26.5488L22.6079 26.4531C22.3064 26.0377 21.8749 25.6504 21.3201 25.289L21.2312 25.4254ZM22.4761 26.5488L22.3441 26.6442C22.6142 27.0179 22.7547 27.3863 22.7769 27.751L22.9395 27.7411L23.102 27.7312C23.0753 27.2931 22.9068 26.8667 22.6081 26.4534L22.4761 26.5488ZM22.9395 27.7411L22.7769 27.7508C22.7983 28.1101 22.7015 28.4592 22.4783 28.8019L22.6147 28.8908L22.7512 28.9797C23.0083 28.585 23.128 28.1676 23.102 27.7314L22.9395 27.7411ZM21.7343 28.3173L21.8707 28.4062C22.0762 28.0907 22.029 27.7351 21.802 27.378L21.6646 27.4653L21.5271 27.5527C21.7114 27.8427 21.7107 28.055 21.5978 28.2284L21.7343 28.3173ZM21.6646 27.4653L21.8025 27.3788C21.5802 27.0242 21.1905 26.6731 20.6517 26.3221L20.5628 26.4586L20.4739 26.595C20.9956 26.9348 21.3404 27.255 21.5266 27.5518L21.6646 27.4653ZM20.5628 26.4586L20.6517 26.3221C20.1109 25.9698 19.6321 25.7551 19.2196 25.6964L19.1967 25.8577L19.1738 26.0189C19.518 26.0678 19.9499 26.2536 20.4739 26.595L20.5628 26.4586ZM19.1967 25.8577L19.2211 25.6966C18.8026 25.6333 18.4583 25.7339 18.2528 26.0493L18.3893 26.1382L18.5257 26.2271C18.6386 26.0537 18.8326 25.9673 19.1723 26.0187L19.1967 25.8577ZM18.3893 26.1382L18.2528 26.0493C18.0497 26.3611 18.0988 26.7156 18.3231 27.0734L18.4611 26.9868L18.5991 26.9003C18.4149 26.6066 18.4161 26.3953 18.5257 26.2271L18.3893 26.1382ZM18.4611 26.9868L18.3229 27.073C18.5432 27.4266 18.9332 27.7778 19.4739 28.1301L19.5628 27.9936L19.6517 27.8572C19.1277 27.5158 18.7832 27.1958 18.5993 26.9007L18.4611 26.9868ZM19.5628 27.9936L19.4739 28.1301C20.0127 28.4811 20.4913 28.6956 20.9056 28.7557L20.929 28.5945L20.9523 28.4333C20.6055 28.3831 20.1734 28.197 19.6517 27.8572L19.5628 27.9936ZM20.929 28.5945L20.9056 28.7557C21.3235 28.8163 21.6676 28.718 21.8707 28.4062L21.7343 28.3173L21.5978 28.2284C21.4882 28.3966 21.2955 28.4831 20.9523 28.4333L20.929 28.5945ZM24.5916 25.7453L24.6117 25.9069L24.6126 25.9068L24.5916 25.7453ZM23.3336 25.5137L23.2644 25.6611L23.2654 25.6616L23.3336 25.5137ZM21.0426 23.1321L20.8922 23.1945L20.8925 23.1953L21.0426 23.1321ZM20.8626 21.8688L21.0232 21.896L21.0234 21.8952L20.8626 21.8688ZM21.4327 20.8218L21.3198 20.7044L21.4327 20.8218ZM22.5039 20.29L22.524 20.4517L22.5249 20.4515L22.5039 20.29ZM23.7564 20.5215L23.6875 20.6691L23.6882 20.6694L23.7564 20.5215ZM26.0502 22.9005L26.2003 22.8373L26.2002 22.837L26.0502 22.9005ZM26.2329 24.1665L26.3935 24.1937L26.3935 24.1935L26.2329 24.1665ZM25.053 23.6105L24.899 23.6636L24.8994 23.6646L25.053 23.6105ZM23.0111 21.4878L22.9511 21.6392L22.9524 21.6397L23.0111 21.4878ZM22.0399 22.4221L22.1939 22.3694L22.1938 22.3689L22.0399 22.4221ZM25.6573 25.2135L25.5444 25.0961C25.2516 25.3777 24.9278 25.5375 24.5707 25.5838L24.5916 25.7453L24.6126 25.9068C25.0457 25.8506 25.4324 25.6558 25.7702 25.3308L25.6573 25.2135ZM24.5916 25.7453L24.5715 25.5837C24.2107 25.6286 23.822 25.5597 23.4018 25.3659L23.3336 25.5137L23.2654 25.6616C23.7287 25.8754 24.1787 25.9608 24.6117 25.9069L24.5916 25.7453ZM23.3336 25.5137L23.4028 25.3663C22.984 25.1696 22.5541 24.8461 22.1141 24.3886L21.9968 24.5015L21.8794 24.6144C22.3385 25.0917 22.7998 25.4429 23.2644 25.6611L23.3336 25.5137ZM21.9968 24.5015L22.1141 24.3886C21.676 23.9331 21.3712 23.493 21.1927 23.0689L21.0426 23.1321L20.8925 23.1953C21.0907 23.6662 21.4221 24.1391 21.8794 24.6144L21.9968 24.5015ZM21.0426 23.1321L21.193 23.0697C21.0156 22.6424 20.9628 22.2526 21.0232 21.896L20.8626 21.8688L20.7021 21.8416C20.6294 22.2708 20.6965 22.7232 20.8922 23.1945L21.0426 23.1321ZM20.8626 21.8688L21.0234 21.8952C21.0819 21.5385 21.2532 21.2205 21.5456 20.9392L21.4327 20.8218L21.3198 20.7044C20.9817 21.0297 20.7729 21.4098 20.7019 21.8425L20.8626 21.8688ZM21.4327 20.8218L21.5456 20.9392C21.8401 20.6559 22.1655 20.4963 22.524 20.4516L22.5039 20.29L22.4838 20.1284C22.0484 20.1826 21.6597 20.3775 21.3198 20.7044L21.4327 20.8218ZM22.5039 20.29L22.5249 20.4515C22.8832 20.405 23.2695 20.4737 23.6875 20.6691L23.7564 20.5215L23.8254 20.374C23.3636 20.1582 22.9149 20.0725 22.4829 20.1285L22.5039 20.29ZM23.7564 20.5215L23.6882 20.6694C24.1066 20.8624 24.5353 21.1829 24.9733 21.6383L25.0906 21.5254L25.208 21.4125C24.7506 20.937 24.2898 20.5882 23.8246 20.3737L23.7564 20.5215ZM25.0906 21.5254L24.9733 21.6383C25.4133 22.0957 25.7199 22.5378 25.9003 22.9639L26.0502 22.9005L26.2002 22.837C26.0002 22.3643 25.6671 21.8897 25.208 21.4125L25.0906 21.5254ZM26.0502 22.9005L25.9001 22.9637C26.0791 23.3887 26.1328 23.7793 26.0723 24.1396L26.2329 24.1665L26.3935 24.1935C26.4662 23.7608 26.3982 23.3073 26.2003 22.8373L26.0502 22.9005ZM26.2329 24.1665L26.0723 24.1393C26.0122 24.4942 25.8392 24.8125 25.5444 25.0961L25.6573 25.2135L25.7702 25.3308C26.1097 25.0042 26.3205 24.6246 26.3935 24.1937L26.2329 24.1665ZM24.9288 24.4562L25.0417 24.5736C25.313 24.3126 25.3472 23.9555 25.2066 23.5563L25.053 23.6105L24.8994 23.6646C25.0136 23.9887 24.965 24.1954 24.8159 24.3388L24.9288 24.4562ZM25.053 23.6105L25.2069 23.5573C25.0702 23.1616 24.7697 22.7318 24.3239 22.2683L24.2066 22.3812L24.0892 22.4941C24.5208 22.9428 24.7846 23.3324 24.899 23.6636L25.053 23.6105ZM24.2066 22.3812L24.3239 22.2683C23.8765 21.8032 23.4584 21.486 23.0698 21.3359L23.0111 21.4878L22.9524 21.6397C23.2767 21.765 23.6556 22.0434 24.0892 22.4941L24.2066 22.3812ZM23.0111 21.4878L23.0711 21.3364C22.6777 21.1804 22.3196 21.2007 22.0483 21.4617L22.1612 21.5791L22.2741 21.6964C22.4232 21.553 22.6317 21.5125 22.9511 21.6392L23.0111 21.4878ZM22.1612 21.5791L22.0483 21.4617C21.7801 21.7197 21.748 22.0762 21.8859 22.4753L22.0399 22.4221L22.1938 22.3689C22.0806 22.0412 22.1294 21.8356 22.2741 21.6964L22.1612 21.5791ZM22.0399 22.4221L21.8858 22.4748C22.0207 22.869 22.3214 23.2991 22.7689 23.7642L22.8863 23.6513L23.0036 23.5384C22.57 23.0877 22.3065 22.6983 22.1939 22.3694L22.0399 22.4221ZM22.8863 23.6513L22.7689 23.7642C23.2147 24.2277 23.6326 24.5446 24.0226 24.6965L24.0817 24.5447L24.1408 24.393C23.8143 24.2658 23.4352 23.9871 23.0036 23.5384L22.8863 23.6513ZM24.0817 24.5447L24.0226 24.6965C24.4161 24.8498 24.7735 24.8316 25.0417 24.5736L24.9288 24.4562L24.8159 24.3388C24.6712 24.478 24.4639 24.5189 24.1408 24.393L24.0817 24.5447ZM26.0036 19.8887L25.9615 20.0461L25.9624 20.0463L26.0036 19.8887ZM25.1217 18.283L24.9666 18.2332L24.9663 18.234L25.1217 18.283ZM26.8062 17.3578L26.7641 17.5151L26.765 17.5153L26.8062 17.3578ZM27.5699 17.9856L27.4272 18.064L27.5699 17.9856ZM27.6881 18.9636L27.5331 18.9138L27.5328 18.9146L27.6881 18.9636ZM28.8618 22.6018L28.9402 22.7445L29.018 22.7018L29.0243 22.6132L28.8618 22.6018ZM28.0504 23.0474L27.8879 23.036L27.8669 23.334L28.1288 23.1902L28.0504 23.0474ZM28.5405 16.0933L28.4622 15.9505L28.3843 15.9933L28.3781 16.0818L28.5405 16.0933ZM29.352 15.6476L29.5144 15.659L29.5355 15.361L29.2736 15.5049L29.352 15.6476ZM26.977 18.8372L27.1362 18.8714L27.1365 18.8697L26.977 18.8372ZM26.8867 18.3564L26.744 18.4348L26.8867 18.3564ZM26.5313 18.0257L26.4748 18.1785L26.4765 18.1791L26.5313 18.0257ZM25.8328 18.4093L25.6736 18.3751L25.6736 18.3754L25.8328 18.4093ZM25.9246 18.8848L26.0674 18.8064L25.9246 18.8848ZM26.2785 19.2208L26.2184 19.3722L26.222 19.3735L26.2785 19.2208ZM30.5744 21.3625L30.5315 21.5196L30.5332 21.5201L30.5744 21.3625ZM29.8141 20.7328L29.6714 20.8112L29.8141 20.7328ZM29.6906 19.7533L29.5356 19.7036L29.5353 19.7044L29.6906 19.7533ZM30.3655 18.986L30.2871 18.8433L30.3655 18.986ZM31.3752 18.8282L31.3331 18.9855L31.3752 18.8282ZM32.1355 19.4579L31.9927 19.5363L32.1355 19.4579ZM32.2555 20.4392L32.4109 20.4882L32.4109 20.4881L32.2555 20.4392ZM31.5425 20.3094L31.3833 20.2752L31.3829 20.2772L31.5425 20.3094ZM31.0968 19.498L31.0384 19.65L31.0403 19.6507L31.0968 19.498ZM27.0132 19.7309L26.9348 19.5881C26.6176 19.7624 26.3237 19.8041 26.0448 19.7312L26.0036 19.8887L25.9624 20.0463C26.3357 20.144 26.715 20.0805 27.0916 19.8736L27.0132 19.7309ZM26.0036 19.8887L26.0456 19.7314C25.7703 19.6578 25.5513 19.4815 25.3879 19.1841L25.2452 19.2625L25.1024 19.3408C25.3026 19.7054 25.5891 19.9465 25.9615 20.0461L26.0036 19.8887ZM25.2452 19.2625L25.3879 19.1841C25.2231 18.884 25.1915 18.6034 25.277 18.3319L25.1217 18.283L24.9663 18.234C24.8504 18.602 24.9011 18.9744 25.1024 19.3408L25.2452 19.2625ZM25.1217 18.283L25.2767 18.3327C25.3648 18.0582 25.5577 17.8326 25.875 17.6584L25.7966 17.5157L25.7182 17.3729C25.3415 17.5798 25.0845 17.8657 24.9666 18.2332L25.1217 18.283ZM25.7966 17.5157L25.875 17.6584C26.1948 17.4827 26.4883 17.4414 26.7641 17.5151L26.8062 17.3578L26.8482 17.2005C26.4764 17.1011 26.0968 17.165 25.7182 17.3729L25.7966 17.5157ZM26.8062 17.3578L26.765 17.5153C27.0421 17.5878 27.2627 17.7645 27.4272 18.064L27.5699 17.9856L27.7127 17.9072C27.5111 17.5403 27.2225 17.2984 26.8474 17.2002L26.8062 17.3578ZM27.5699 17.9856L27.4272 18.064C27.5903 18.361 27.6207 18.6407 27.5331 18.9138L27.6881 18.9636L27.8432 19.0133C27.9616 18.6444 27.9131 18.2722 27.7127 17.9072L27.5699 17.9856ZM27.6881 18.9636L27.5328 18.9146C27.447 19.187 27.2547 19.4125 26.9348 19.5881L27.0132 19.7309L27.0916 19.8736C27.4702 19.6657 27.7278 19.3796 27.8435 19.0125L27.6881 18.9636ZM28.8618 22.6018L28.7834 22.459L27.972 22.9047L28.0504 23.0474L28.1288 23.1902L28.9402 22.7445L28.8618 22.6018ZM28.0504 23.0474L28.2128 23.0589L28.703 16.1047L28.5405 16.0933L28.3781 16.0818L27.8879 23.036L28.0504 23.0474ZM28.5405 16.0933L28.6189 16.236L29.4304 15.7903L29.352 15.6476L29.2736 15.5049L28.4622 15.9505L28.5405 16.0933ZM29.352 15.6476L29.1895 15.6361L28.6994 22.5903L28.8618 22.6018L29.0243 22.6132L29.5144 15.659L29.352 15.6476ZM26.7123 19.1831L26.7907 19.3258C26.9732 19.2256 27.093 19.0722 27.1362 18.8714L26.977 18.8372L26.8177 18.8029C26.7957 18.9054 26.7391 18.9826 26.634 19.0403L26.7123 19.1831ZM26.977 18.8372L27.1365 18.8697C27.1771 18.6705 27.1355 18.471 27.0295 18.278L26.8867 18.3564L26.744 18.4348C26.821 18.575 26.8395 18.6961 26.8174 18.8047L26.977 18.8372ZM26.8867 18.3564L27.0295 18.278C26.9227 18.0835 26.7767 17.9405 26.5861 17.8724L26.5313 18.0257L26.4765 18.1791C26.5742 18.214 26.6652 18.2914 26.744 18.4348L26.8867 18.3564ZM26.5313 18.0257L26.5878 17.873C26.3952 17.8017 26.2015 17.8205 26.019 17.9207L26.0974 18.0635L26.1758 18.2062C26.281 18.1485 26.3765 18.1421 26.4748 18.1785L26.5313 18.0257ZM26.0974 18.0635L26.019 17.9207C25.8366 18.0209 25.7168 18.1744 25.6736 18.3751L25.8328 18.4093L25.992 18.4436C26.0141 18.3411 26.0707 18.2639 26.1758 18.2062L26.0974 18.0635ZM25.8328 18.4093L25.6736 18.3754C25.6318 18.5712 25.6756 18.7696 25.7819 18.9632L25.9246 18.8848L26.0674 18.8064C25.9881 18.6622 25.9707 18.5437 25.9921 18.4433L25.8328 18.4093ZM25.9246 18.8848L25.7819 18.9632C25.8874 19.1553 26.0314 19.2979 26.2184 19.3721L26.2785 19.2208L26.3386 19.0694C26.2367 19.029 26.1449 18.9475 26.0674 18.8064L25.9246 18.8848ZM26.2785 19.2208L26.222 19.3735C26.4145 19.4448 26.6083 19.426 26.7907 19.3258L26.7123 19.1831L26.634 19.0403C26.5288 19.0981 26.4333 19.1044 26.335 19.0681L26.2785 19.2208ZM31.5841 21.2047L31.5057 21.0619C31.1884 21.2362 30.8946 21.278 30.6157 21.205L30.5744 21.3625L30.5332 21.5201C30.9066 21.6178 31.2858 21.5543 31.6625 21.3474L31.5841 21.2047ZM30.5744 21.3625L30.6174 21.2055C30.3401 21.1297 30.1202 20.9518 29.9569 20.6544L29.8141 20.7328L29.6714 20.8112C29.8716 21.1758 30.1585 21.4177 30.5315 21.5196L30.5744 21.3625ZM29.8141 20.7328L29.9569 20.6544C29.7921 20.3544 29.7604 20.0738 29.846 19.8023L29.6906 19.7533L29.5353 19.7044C29.4194 20.0724 29.4701 20.4448 29.6714 20.8112L29.8141 20.7328ZM29.6906 19.7533L29.8457 19.8031C29.9338 19.5286 30.1267 19.303 30.4439 19.1288L30.3655 18.986L30.2871 18.8433C29.9105 19.0502 29.6535 19.3361 29.5356 19.7036L29.6906 19.7533ZM30.3655 18.986L30.4439 19.1288C30.7638 18.9531 31.0573 18.9118 31.3331 18.9855L31.3752 18.8282L31.4172 18.6708C31.0453 18.5714 30.6657 18.6353 30.2871 18.8433L30.3655 18.986ZM31.3752 18.8282L31.3331 18.9855C31.6081 19.059 31.828 19.2362 31.9927 19.5363L32.1355 19.4579L32.2782 19.3795C32.0769 19.013 31.7899 18.7704 31.4172 18.6708L31.3752 18.8282ZM32.1355 19.4579L31.9927 19.5363C32.1558 19.8332 32.187 20.1145 32.1002 20.3904L32.2555 20.4392L32.4109 20.4881C32.5275 20.1174 32.4787 19.7445 32.2782 19.3795L32.1355 19.4579ZM32.2555 20.4392L32.1002 20.3903C32.0144 20.6629 31.823 20.8877 31.5057 21.0619L31.5841 21.2047L31.6625 21.3474C32.0391 21.1406 32.2953 20.855 32.4109 20.4882L32.2555 20.4392ZM31.2813 20.6534L31.3597 20.7962C31.5422 20.6959 31.6616 20.5426 31.7021 20.3416L31.5425 20.3094L31.3829 20.2772C31.3628 20.377 31.308 20.453 31.2029 20.5107L31.2813 20.6534ZM31.5425 20.3094L31.7017 20.3437C31.7443 20.1456 31.7028 19.9466 31.5969 19.7537L31.4541 19.8321L31.3114 19.9105C31.3885 20.0508 31.4059 20.17 31.3833 20.2752L31.5425 20.3094ZM31.4541 19.8321L31.5969 19.7537C31.49 19.5591 31.3438 19.4158 31.1534 19.3453L31.0968 19.498L31.0403 19.6507C31.1407 19.6879 31.2327 19.7673 31.3114 19.9105L31.4541 19.8321ZM31.0968 19.498L31.1553 19.346C30.964 19.2724 30.7705 19.2909 30.588 19.3911L30.6664 19.5338L30.7448 19.6766C30.8499 19.6189 30.9434 19.6134 31.0384 19.65L31.0968 19.498ZM30.6664 19.5338L30.588 19.3911C30.404 19.4922 30.2829 19.6457 30.2422 19.8475L30.4018 19.8797L30.5614 19.9119C30.5814 19.813 30.6366 19.736 30.7448 19.6766L30.6664 19.5338ZM30.4018 19.8797L30.2422 19.8475C30.2024 20.0445 30.2463 20.2433 30.3527 20.437L30.4955 20.3586L30.6382 20.2802C30.5591 20.1361 30.5405 20.0157 30.5614 19.9119L30.4018 19.8797ZM30.4955 20.3586L30.3527 20.437C30.4582 20.629 30.602 20.7712 30.789 20.8432L30.8475 20.6912L30.9059 20.5392C30.8067 20.501 30.7158 20.4215 30.6382 20.2802L30.4955 20.3586ZM30.8475 20.6912L30.789 20.8432C30.9811 20.9171 31.1757 20.8972 31.3597 20.7962L31.2813 20.6534L31.2029 20.5107C31.0947 20.5701 31.0001 20.5754 30.9059 20.5392L30.8475 20.6912ZM36.2497 19.622L36.2715 19.7833L36.4329 19.7615L36.4111 19.6001L36.2497 19.622ZM35.0574 19.7834L34.8961 19.8052L34.9179 19.9666L35.0793 19.9447L35.0574 19.7834ZM34.2714 13.9769L34.2496 13.8156L34.0882 13.8374L34.11 13.9988L34.2714 13.9769ZM35.4637 13.8155L35.625 13.7937L35.6032 13.6323L35.4418 13.6542L35.4637 13.8155ZM35.7922 16.2426L35.6308 16.2645L35.6527 16.4258L35.8141 16.404L35.7922 16.2426ZM38.3045 15.9025L38.3263 16.0639L38.4877 16.0421L38.4658 15.8807L38.3045 15.9025ZM37.9759 13.4755L37.9541 13.3141L37.7927 13.3359L37.8145 13.4973L37.9759 13.4755ZM39.1682 13.3141L39.3295 13.2922L39.3077 13.1308L39.1463 13.1527L39.1682 13.3141ZM39.9542 19.1205L39.976 19.2818L40.1374 19.26L40.1156 19.0986L39.9542 19.1205ZM38.7619 19.2819L38.6006 19.3037L38.6224 19.4651L38.7838 19.4432L38.7619 19.2819ZM38.4454 16.9438L38.6068 16.922L38.585 16.7606L38.4236 16.7824L38.4454 16.9438ZM35.9332 17.2839L35.9113 17.1225L35.75 17.1444L35.7718 17.3058L35.9332 17.2839ZM36.2497 19.622L36.2278 19.4606L35.0356 19.622L35.0574 19.7834L35.0793 19.9447L36.2715 19.7833L36.2497 19.622ZM35.0574 19.7834L35.2188 19.7615L34.4328 13.9551L34.2714 13.9769L34.11 13.9988L34.8961 19.8052L35.0574 19.7834ZM34.2714 13.9769L34.2933 14.1383L35.4855 13.9769L35.4637 13.8155L35.4418 13.6542L34.2496 13.8156L34.2714 13.9769ZM35.4637 13.8155L35.3023 13.8374L35.6308 16.2645L35.7922 16.2426L35.9536 16.2208L35.625 13.7937L35.4637 13.8155ZM35.7922 16.2426L35.8141 16.404L38.3263 16.0639L38.3045 15.9025L38.2826 15.7412L35.7704 16.0812L35.7922 16.2426ZM38.3045 15.9025L38.4658 15.8807L38.1373 13.4536L37.9759 13.4755L37.8145 13.4973L38.1431 15.9244L38.3045 15.9025ZM37.9759 13.4755L37.9977 13.6368L39.19 13.4754L39.1682 13.3141L39.1463 13.1527L37.9541 13.3141L37.9759 13.4755ZM39.1682 13.3141L39.0068 13.3359L39.7928 19.1423L39.9542 19.1205L40.1156 19.0986L39.3295 13.2922L39.1682 13.3141ZM39.9542 19.1205L39.9323 18.9591L38.7401 19.1205L38.7619 19.2819L38.7838 19.4432L39.976 19.2818L39.9542 19.1205ZM38.7619 19.2819L38.9233 19.26L38.6068 16.922L38.4454 16.9438L38.284 16.9657L38.6006 19.3037L38.7619 19.2819ZM38.4454 16.9438L38.4236 16.7824L35.9113 17.1225L35.9332 17.2839L35.955 17.4453L38.4673 17.1052L38.4454 16.9438ZM35.9332 17.2839L35.7718 17.3058L36.0883 19.6438L36.2497 19.622L36.4111 19.6001L36.0946 17.2621L35.9332 17.2839ZM40.8847 19.1111L40.7228 19.0932L40.7049 19.255L40.8667 19.2729L40.8847 19.1111ZM41.5295 13.2873L41.5475 13.1254L41.3856 13.1075L41.3677 13.2694L41.5295 13.2873ZM45.2878 13.7035L45.4497 13.7214L45.4676 13.5595L45.3057 13.5416L45.2878 13.7035ZM45.1722 14.7479L45.1543 14.9097L45.3161 14.9276L45.334 14.7658L45.1722 14.7479ZM42.6097 14.4641L42.6276 14.3022L42.4658 14.2843L42.4478 14.4462L42.6097 14.4641ZM42.4631 15.7881L42.3012 15.7701L42.2833 15.932L42.4452 15.9499L42.4631 15.7881ZM44.8664 16.0542L45.0283 16.0721L45.0462 15.9102L44.8843 15.8923L44.8664 16.0542ZM44.7503 17.1024L44.7324 17.2643L44.8942 17.2822L44.9122 17.1204L44.7503 17.1024ZM42.347 16.8363L42.365 16.6745L42.2031 16.6565L42.1852 16.8184L42.347 16.8363ZM42.1961 18.1991L42.0343 18.1812L42.0163 18.343L42.1782 18.361L42.1961 18.1991ZM44.7974 18.4871L44.9593 18.5051L44.9772 18.3432L44.8153 18.3253L44.7974 18.4871ZM44.6818 19.5315L44.6638 19.6934L44.8257 19.7113L44.8436 19.5495L44.6818 19.5315ZM40.8847 19.1111L41.0465 19.129L41.6914 13.3052L41.5295 13.2873L41.3677 13.2694L40.7228 19.0932L40.8847 19.1111ZM41.5295 13.2873L41.5116 13.4492L45.2699 13.8653L45.2878 13.7035L45.3057 13.5416L41.5475 13.1254L41.5295 13.2873ZM45.2878 13.7035L45.126 13.6855L45.0103 14.7299L45.1722 14.7479L45.334 14.7658L45.4497 13.7214L45.2878 13.7035ZM45.1722 14.7479L45.1901 14.586L42.6276 14.3022L42.6097 14.4641L42.5918 14.626L45.1543 14.9097L45.1722 14.7479ZM42.6097 14.4641L42.4478 14.4462L42.3012 15.7701L42.4631 15.7881L42.625 15.806L42.7716 14.482L42.6097 14.4641ZM42.4631 15.7881L42.4452 15.9499L44.8485 16.216L44.8664 16.0542L44.8843 15.8923L42.481 15.6262L42.4631 15.7881ZM44.8664 16.0542L44.7045 16.0362L44.5884 17.0845L44.7503 17.1024L44.9122 17.1204L45.0283 16.0721L44.8664 16.0542ZM44.7503 17.1024L44.7682 16.9406L42.365 16.6745L42.347 16.8363L42.3291 16.9982L44.7324 17.2643L44.7503 17.1024ZM42.347 16.8363L42.1852 16.8184L42.0343 18.1812L42.1961 18.1991L42.358 18.217L42.5089 16.8543L42.347 16.8363ZM42.1961 18.1991L42.1782 18.361L44.7795 18.649L44.7974 18.4871L44.8153 18.3253L42.2141 18.0372L42.1961 18.1991ZM44.7974 18.4871L44.6356 18.4692L44.5199 19.5136L44.6818 19.5315L44.8436 19.5495L44.9593 18.5051L44.7974 18.4871ZM44.6818 19.5315L44.6997 19.3697L40.9026 18.9492L40.8847 19.1111L40.8667 19.2729L44.6638 19.6934L44.6818 19.5315ZM50.1411 21.4133L50.0853 21.5663L50.3507 21.663L50.3014 21.3849L50.1411 21.4133ZM48.8896 20.9572L48.7292 20.9859L48.7458 21.0782L48.8338 21.1103L48.8896 20.9572ZM48.4583 18.5467L48.6186 18.5181L48.6021 18.4258L48.514 18.3937L48.4583 18.5467ZM47.4086 18.1643L47.4643 18.0113L47.3113 17.9555L47.2556 18.1085L47.4086 18.1643ZM46.6838 20.1535L46.628 20.3065L46.781 20.3623L46.8368 20.2093L46.6838 20.1535ZM45.5533 19.7416L45.4003 19.6859L45.3446 19.8389L45.4976 19.8946L45.5533 19.7416ZM47.5593 14.2363L47.6151 14.0833L47.4621 14.0276L47.4063 14.1806L47.5593 14.2363ZM49.7908 15.0494L49.8466 14.8964L49.7908 15.0494ZM51.3547 16.5422L51.1955 16.5766L51.1959 16.5783L51.3547 16.5422ZM51.2643 17.5777L51.4173 17.6335L51.2643 17.5777ZM50.6446 18.4454L50.5485 18.3139L50.5482 18.3141L50.6446 18.4454ZM49.6719 18.7645L49.6664 18.6017L49.4788 18.608L49.5116 18.7929L49.6719 18.7645ZM47.7362 17.2651L47.5832 17.2093L47.5275 17.3623L47.6805 17.4181L47.7362 17.2651ZM49.5999 17.7071L49.6501 17.8621L49.6504 17.862L49.5999 17.7071ZM50.0398 16.4997L49.901 16.5848L49.9023 16.5868L50.0398 16.4997ZM49.3467 16.0059L49.4024 15.8529L49.3467 16.0059ZM48.33 15.6355L48.3858 15.4825L48.2328 15.4267L48.177 15.5797L48.33 15.6355ZM50.1411 21.4133L50.1968 21.2603L48.9453 20.8042L48.8896 20.9572L48.8338 21.1103L50.0853 21.5663L50.1411 21.4133ZM48.8896 20.9572L49.0499 20.9286L48.6186 18.5181L48.4583 18.5467L48.298 18.5754L48.7292 20.9859L48.8896 20.9572ZM48.4583 18.5467L48.514 18.3937L47.4643 18.0113L47.4086 18.1643L47.3528 18.3173L48.4025 18.6998L48.4583 18.5467ZM47.4086 18.1643L47.2556 18.1085L46.5308 20.0978L46.6838 20.1535L46.8368 20.2093L47.5616 18.22L47.4086 18.1643ZM46.6838 20.1535L46.7395 20.0005L45.6091 19.5886L45.5533 19.7416L45.4976 19.8946L46.628 20.3065L46.6838 20.1535ZM45.5533 19.7416L45.7064 19.7974L47.7123 14.2921L47.5593 14.2363L47.4063 14.1806L45.4003 19.6859L45.5533 19.7416ZM47.5593 14.2363L47.5036 14.3893L49.7351 15.2024L49.7908 15.0494L49.8466 14.8964L47.6151 14.0833L47.5593 14.2363ZM49.7908 15.0494L49.7351 15.2024C50.1624 15.3582 50.495 15.5556 50.7395 15.7906L50.8523 15.6732L50.9652 15.5558C50.6801 15.2818 50.3049 15.0634 49.8466 14.8964L49.7908 15.0494ZM50.8523 15.6732L50.7395 15.7906C50.9835 16.0251 51.133 16.2867 51.1955 16.5766L51.3547 16.5422L51.5139 16.5079C51.4363 16.148 51.2508 15.8302 50.9652 15.5558L50.8523 15.6732ZM51.3547 16.5422L51.1959 16.5783C51.2613 16.866 51.2362 17.179 51.1113 17.522L51.2643 17.5777L51.4173 17.6335C51.5598 17.2424 51.595 16.8651 51.5135 16.5062L51.3547 16.5422ZM51.2643 17.5777L51.1113 17.522C50.983 17.8739 50.794 18.1345 50.5485 18.3139L50.6446 18.4454L50.7407 18.5768C51.0469 18.3531 51.2709 18.0352 51.4173 17.6335L51.2643 17.5777ZM50.6446 18.4454L50.5482 18.3141C50.3052 18.4926 50.0135 18.59 49.6664 18.6017L49.6719 18.7645L49.6774 18.9272C50.0823 18.9136 50.4392 18.7983 50.741 18.5766L50.6446 18.4454ZM49.6719 18.7645L49.5116 18.7929L49.9807 21.4417L50.1411 21.4133L50.3014 21.3849L49.8323 18.7361L49.6719 18.7645ZM47.7362 17.2651L47.6805 17.4181L48.6971 17.7885L48.7529 17.6355L48.8086 17.4825L47.792 17.1121L47.7362 17.2651ZM48.7529 17.6355L48.6971 17.7885C49.0508 17.9174 49.373 17.9519 49.6501 17.8621L49.5999 17.7071L49.5496 17.5522C49.3678 17.6112 49.1254 17.5979 48.8086 17.4825L48.7529 17.6355ZM49.5999 17.7071L49.6504 17.862C49.9377 17.7682 50.1353 17.5577 50.2451 17.2563L50.0921 17.2005L49.9391 17.1448C49.8582 17.3669 49.7276 17.4942 49.5493 17.5523L49.5999 17.7071ZM50.0921 17.2005L50.2451 17.2563C50.355 16.9548 50.3388 16.6672 50.1774 16.4125L50.0398 16.4997L49.9023 16.5868C50.0013 16.743 50.0201 16.9226 49.9391 17.1448L50.0921 17.2005ZM50.0398 16.4997L50.1787 16.4145C50.0253 16.1644 49.7565 15.982 49.4024 15.8529L49.3467 16.0059L49.2909 16.159C49.6072 16.2742 49.8005 16.4209 49.901 16.5848L50.0398 16.4997ZM49.3467 16.0059L49.4024 15.8529L48.3858 15.4825L48.33 15.6355L48.2743 15.7885L49.2909 16.159L49.3467 16.0059ZM48.33 15.6355L48.177 15.5797L47.5832 17.2093L47.7362 17.2651L47.8893 17.3208L48.483 15.6913L48.33 15.6355ZM50.6744 21.7298L50.5394 21.6388L50.4484 21.7739L50.5834 21.8649L50.6744 21.7298ZM53.9478 16.8701L54.0388 16.735L53.9037 16.644L53.8128 16.7791L53.9478 16.8701ZM56.7361 19.2333L56.5815 19.2844L56.5819 19.2857L56.7361 19.2333ZM56.5439 20.4555L56.679 20.5465L56.5439 20.4555ZM55.9358 20.9878L56.003 21.1362L56.0038 21.1358L55.9358 20.9878ZM55.1866 21.1002L55.2075 20.9387L54.7986 20.8856L55.0609 21.2038L55.1866 21.1002ZM55.5454 21.9589L55.3829 21.9685L55.383 21.9705L55.5454 21.9589ZM55.2855 22.8482L55.1504 22.7572L55.2855 22.8482ZM54.5948 23.4332L54.5325 23.2827L54.5321 23.2829L54.5948 23.4332ZM53.7037 23.5254L53.6776 23.6861L53.6782 23.6862L53.7037 23.5254ZM53.5752 19.5768L53.4402 19.4858L53.3492 19.6209L53.4842 19.7119L53.5752 19.5768ZM54.3204 20.0787L54.2294 20.2138L54.3204 20.0787ZM55.44 19.9757L55.305 19.8848L55.44 19.9757ZM55.5239 19.4247L55.3685 19.4733L55.3694 19.4762L55.5239 19.4247ZM55.0876 18.9047L54.9966 19.0398L55.0876 18.9047ZM54.3587 18.4137L54.4496 18.2787L54.3146 18.1877L54.2236 18.3227L54.3587 18.4137ZM52.2593 21.5304L52.1242 21.4395L52.0333 21.5745L52.1683 21.6655L52.2593 21.5304ZM53.5763 22.3092L53.5397 22.4679L53.542 22.4684L53.5763 22.3092ZM54.0206 22.2929L53.9671 22.1391L53.9665 22.1393L54.0206 22.2929ZM54.4689 21.6482L54.3061 21.652L54.3062 21.6546L54.4689 21.6482ZM54.3288 21.2619L54.1947 21.3543L54.1962 21.3564L54.3288 21.2619ZM53.0777 20.3155L53.1686 20.1804L53.0336 20.0895L52.9426 20.2245L53.0777 20.3155ZM50.6744 21.7298L50.8095 21.8208L54.0829 16.9611L53.9478 16.8701L53.8128 16.7791L50.5394 21.6388L50.6744 21.7298ZM53.9478 16.8701L53.8568 17.0051L55.6549 18.2163L55.7459 18.0812L55.8369 17.9462L54.0388 16.735L53.9478 16.8701ZM55.7459 18.0812L55.6549 18.2163C56.1604 18.5568 56.4594 18.9149 56.5815 19.2844L56.7361 19.2333L56.8907 19.1822C56.738 18.7198 56.3768 18.3098 55.8369 17.9462L55.7459 18.0812ZM56.7361 19.2333L56.5819 19.2857C56.7048 19.6475 56.6528 20.0024 56.4088 20.3646L56.5439 20.4555L56.679 20.5465C56.9733 20.1095 57.0494 19.6495 56.8903 19.1809L56.7361 19.2333ZM56.5439 20.4555L56.4088 20.3646C56.2593 20.5866 56.0787 20.7429 55.8677 20.8399L55.9358 20.9878L56.0038 21.1358C56.2749 21.0112 56.4998 20.8126 56.679 20.5465L56.5439 20.4555ZM55.9358 20.9878L55.8685 20.8395C55.6564 20.9357 55.4372 20.9685 55.2075 20.9387L55.1866 21.1002L55.1656 21.2617C55.4557 21.2994 55.7359 21.2573 56.003 21.1362L55.9358 20.9878ZM55.1866 21.1002L55.0609 21.2038C55.2634 21.4494 55.3671 21.7035 55.3829 21.9685L55.5454 21.9589L55.708 21.9492C55.6876 21.6059 55.5521 21.2876 55.3122 20.9966L55.1866 21.1002ZM55.5454 21.9589L55.383 21.9705C55.4017 22.2324 55.3282 22.4933 55.1504 22.7572L55.2855 22.8482L55.4206 22.9392C55.6327 22.6242 55.7325 22.2923 55.7079 21.9473L55.5454 21.9589ZM55.2855 22.8482L55.1504 22.7572C54.9798 23.0105 54.7736 23.1829 54.5325 23.2827L54.5948 23.4332L54.657 23.5837C54.9645 23.4564 55.2187 23.2388 55.4206 22.9392L55.2855 22.8482ZM54.5948 23.4332L54.5321 23.2829C54.2924 23.3828 54.0264 23.4118 53.7293 23.3646L53.7037 23.5254L53.6782 23.6862C54.0278 23.7418 54.3557 23.7093 54.6574 23.5835L54.5948 23.4332ZM53.7037 23.5254L53.7299 23.3647C53.4381 23.3171 53.1348 23.1907 52.8195 22.9783L52.7285 23.1134L52.6375 23.2484C52.9831 23.4812 53.3299 23.6295 53.6776 23.6861L53.7037 23.5254ZM52.7285 23.1134L52.8195 22.9783L50.7654 21.5948L50.6744 21.7298L50.5834 21.8649L52.6375 23.2484L52.7285 23.1134ZM53.5752 19.5768L53.4842 19.7119L54.2294 20.2138L54.3204 20.0787L54.4114 19.9437L53.6662 19.4418L53.5752 19.5768ZM54.3204 20.0787L54.2294 20.2138C54.4727 20.3777 54.7214 20.4609 54.9704 20.4379L54.9554 20.2757L54.9404 20.1135C54.7877 20.1276 54.613 20.0795 54.4114 19.9437L54.3204 20.0787ZM54.9554 20.2757L54.9704 20.4379C55.2244 20.4144 55.4282 20.2848 55.5751 20.0667L55.44 19.9757L55.305 19.8848C55.2075 20.0295 55.0881 20.0999 54.9404 20.1135L54.9554 20.2757ZM55.44 19.9757L55.5751 20.0667C55.7205 19.8509 55.7589 19.6149 55.6784 19.3732L55.5239 19.4247L55.3694 19.4762C55.4157 19.615 55.3982 19.7464 55.305 19.8848L55.44 19.9757ZM55.5239 19.4247L55.6793 19.376C55.6049 19.1382 55.4285 18.938 55.1786 18.7697L55.0876 18.9047L54.9966 19.0398C55.2089 19.1828 55.3234 19.3292 55.3685 19.4733L55.5239 19.4247ZM55.0876 18.9047L55.1786 18.7697L54.4496 18.2787L54.3587 18.4137L54.2677 18.5488L54.9966 19.0398L55.0876 18.9047ZM54.3587 18.4137L54.2236 18.3227L53.4402 19.4858L53.5752 19.5768L53.7103 19.6678L54.4937 18.5047L54.3587 18.4137ZM52.2593 21.5304L52.1683 21.6655L52.9751 22.2089L53.066 22.0738L53.157 21.9388L52.3503 21.3954L52.2593 21.5304ZM53.066 22.0738L52.9751 22.2089C53.1643 22.3364 53.3527 22.4247 53.5397 22.4679L53.5763 22.3092L53.6129 22.1505C53.4738 22.1184 53.322 22.0499 53.157 21.9388L53.066 22.0738ZM53.5763 22.3092L53.542 22.4684C53.7298 22.5089 53.9092 22.5047 54.0746 22.4465L54.0206 22.2929L53.9665 22.1393C53.8686 22.1737 53.7518 22.1804 53.6106 22.15L53.5763 22.3092ZM54.0206 22.2929L54.074 22.4467C54.2445 22.3875 54.3822 22.2782 54.4851 22.1254L54.3501 22.0344L54.215 21.9435C54.1492 22.0412 54.0672 22.1043 53.9671 22.1391L54.0206 22.2929ZM54.3501 22.0344L54.4851 22.1254C54.586 21.9757 54.6383 21.8134 54.6316 21.6419L54.4689 21.6482L54.3062 21.6546C54.3098 21.7474 54.2829 21.8426 54.215 21.9435L54.3501 22.0344ZM54.4689 21.6482L54.6317 21.6445C54.6279 21.4753 54.5671 21.3156 54.4614 21.1673L54.3288 21.2619L54.1962 21.3564C54.2714 21.4618 54.304 21.5596 54.3061 21.652L54.4689 21.6482ZM54.3288 21.2619L54.4629 21.1694C54.3596 21.0197 54.2156 20.8856 54.0369 20.7653L53.9459 20.9004L53.855 21.0354C54.0089 21.1391 54.1201 21.2461 54.1948 21.3543L54.3288 21.2619ZM53.9459 20.9004L54.0369 20.7653L53.1686 20.1804L53.0777 20.3155L52.9867 20.4506L53.855 21.0354L53.9459 20.9004ZM53.0777 20.3155L52.9426 20.2245L52.1242 21.4395L52.2593 21.5304L52.3944 21.6214L53.2127 20.4065L53.0777 20.3155ZM55.36 25.3056L55.2374 25.4128L55.3112 25.4972L55.4163 25.4584L55.36 25.3056ZM54.5296 24.3556L54.4755 24.202L54.2489 24.2819L54.407 24.4628L54.5296 24.3556ZM60.4786 22.2582L60.6012 22.1511L60.5285 22.0679L60.4244 22.1046L60.4786 22.2582ZM61.3141 23.2141L61.459 23.2884L61.5094 23.1901L61.4367 23.1069L61.3141 23.2141ZM58.4372 28.8261L58.3146 28.9332L58.4726 29.114L58.5821 28.9003L58.4372 28.8261ZM57.6068 27.8761L57.463 27.7998L57.4104 27.8988L57.4842 27.9833L57.6068 27.8761ZM58.2377 26.6865L58.3815 26.7628L58.4341 26.6638L58.3603 26.5794L58.2377 26.6865ZM56.6232 24.8395L56.7458 24.7324L56.672 24.648L56.5668 24.6868L56.6232 24.8395ZM57.6769 24.4425L57.6207 24.2896L57.3985 24.3714L57.5543 24.5497L57.6769 24.4425ZM58.7747 25.6983L58.6521 25.8055L58.8081 25.9841L58.9187 25.7743L58.7747 25.6983ZM59.8598 23.6396L60.0038 23.7155L60.2016 23.3403L59.8035 23.4868L59.8598 23.6396ZM55.36 25.3056L55.4826 25.1984L54.6522 24.2484L54.5296 24.3556L54.407 24.4628L55.2374 25.4128L55.36 25.3056ZM54.5296 24.3556L54.5838 24.5092L60.5327 22.4118L60.4786 22.2582L60.4244 22.1046L54.4755 24.202L54.5296 24.3556ZM60.4786 22.2582L60.3559 22.3654L61.1914 23.3213L61.3141 23.2141L61.4367 23.1069L60.6012 22.1511L60.4786 22.2582ZM61.3141 23.2141L61.1691 23.1398L58.2923 28.7518L58.4372 28.8261L58.5821 28.9003L61.459 23.2884L61.3141 23.2141ZM58.4372 28.8261L58.5598 28.7189L57.7294 27.7689L57.6068 27.8761L57.4842 27.9833L58.3146 28.9332L58.4372 28.8261ZM57.6068 27.8761L57.7507 27.9524L58.3815 26.7628L58.2377 26.6865L58.0938 26.6102L57.463 27.7998L57.6068 27.8761ZM58.2377 26.6865L58.3603 26.5794L56.7458 24.7324L56.6232 24.8395L56.5006 24.9467L58.115 26.7937L58.2377 26.6865ZM56.6232 24.8395L56.5668 24.6868L55.3036 25.1528L55.36 25.3056L55.4163 25.4584L56.6796 24.9923L56.6232 24.8395ZM57.6769 24.4425L57.5543 24.5497L58.6521 25.8055L58.7747 25.6983L58.8973 25.5912L57.7996 24.3353L57.6769 24.4425ZM58.7747 25.6983L58.9187 25.7743L60.0038 23.7155L59.8598 23.6396L59.7157 23.5637L58.6306 25.6224L58.7747 25.6983ZM59.8598 23.6396L59.8035 23.4868L57.6207 24.2896L57.6769 24.4425L57.7332 24.5953L59.916 23.7924L59.8598 23.6396ZM60.4528 32.707L60.3079 32.7815L60.3824 32.9263L60.5273 32.8518L60.4528 32.707ZM58.7016 29.3029L58.6271 29.1581L58.4823 29.2326L58.5568 29.3774L58.7016 29.3029ZM63.912 26.6225L64.0568 26.548L63.9823 26.4032L63.8375 26.4777L63.912 26.6225ZM64.4623 27.6924L64.5368 27.8372L64.6816 27.7627L64.6071 27.6179L64.4623 27.6924ZM60.1863 29.8921L60.1119 29.7473L59.967 29.8218L60.0415 29.9666L60.1863 29.8921ZM61.3872 32.2263L61.4616 32.3712L61.6065 32.2967L61.532 32.1518L61.3872 32.2263ZM60.4528 32.707L60.5976 32.6325L58.8464 29.2284L58.7016 29.3029L58.5568 29.3774L60.3079 32.7815L60.4528 32.707ZM58.7016 29.3029L58.7761 29.4477L63.9864 26.7674L63.912 26.6225L63.8375 26.4777L58.6271 29.1581L58.7016 29.3029ZM63.912 26.6225L63.7671 26.697L64.3175 27.7669L64.4623 27.6924L64.6071 27.6179L64.0568 26.548L63.912 26.6225ZM64.4623 27.6924L64.3878 27.5476L60.1119 29.7473L60.1863 29.8921L60.2608 30.0369L64.5368 27.8372L64.4623 27.6924ZM60.1863 29.8921L60.0415 29.9666L61.2423 32.3008L61.3872 32.2263L61.532 32.1518L60.3312 29.8176L60.1863 29.8921ZM61.3872 32.2263L61.3127 32.0815L60.3783 32.5622L60.4528 32.707L60.5273 32.8518L61.4616 32.3712L61.3872 32.2263Z" fill="#007E3C" mask="url(#path-2-outside-1_38_148)"/>
<mask id="path-4-inside-2_38_148" fill="white">
<path d="M42.1506 49.9709C40.8584 50.4391 39.6001 50.5483 38.2261 50.5559C39.4273 51.0581 41.1919 50.8701 42.1506 49.9709Z"/>
</mask>
<path d="M42.1506 49.9709C40.8584 50.4391 39.6001 50.5483 38.2261 50.5559C39.4273 51.0581 41.1919 50.8701 42.1506 49.9709Z" fill="#007E3C"/>
<path d="M42.1506 49.9709L42.4434 50.2832L42.0048 49.5685L42.1506 49.9709ZM38.2261 50.5559L38.2237 50.1279L38.061 50.9508L38.2261 50.5559ZM42.1506 49.9709L42.0048 49.5685C40.7792 50.0125 39.5771 50.1204 38.2237 50.1279L38.2261 50.5559L38.2284 50.984C39.6231 50.9763 40.9375 50.8657 42.2964 50.3734L42.1506 49.9709ZM38.2261 50.5559L38.061 50.9508C38.7421 51.2356 39.5621 51.3184 40.3369 51.2131C41.1105 51.108 41.8826 50.8092 42.4434 50.2832L42.1506 49.9709L41.8577 49.6587C41.4599 50.0319 40.8703 50.2767 40.2217 50.3648C39.5742 50.4528 38.9112 50.3784 38.3912 50.161L38.2261 50.5559Z" fill="#007E3C" mask="url(#path-4-inside-2_38_148)"/>
<mask id="path-6-inside-3_38_148" fill="white">
<path d="M36.6676 47.9399C36.137 49.1726 35.3585 50.1366 34.4243 51.1123C35.6232 50.6064 36.6893 49.2301 36.6676 47.9399Z"/>
</mask>
<path d="M36.6676 47.9399C36.137 49.1726 35.3585 50.1366 34.4243 51.1123C35.6232 50.6064 36.6893 49.2301 36.6676 47.9399Z" fill="#007E3C"/>
<path d="M36.6676 47.9399L37.0956 47.9327L36.2745 47.7707L36.6676 47.9399ZM34.4243 51.1123L34.1151 50.8163L34.5907 51.5067L34.4243 51.1123ZM36.6676 47.9399L36.2745 47.7707C35.7733 48.9351 35.0347 49.8559 34.1151 50.8163L34.4243 51.1123L34.7335 51.4084C35.6822 50.4174 36.5008 49.4101 37.0608 48.1092L36.6676 47.9399ZM34.4243 51.1123L34.5907 51.5067C35.271 51.2196 35.8965 50.6952 36.3498 50.0721C36.8023 49.4502 37.1084 48.6946 37.0956 47.9327L36.6676 47.9399L36.2397 47.9471C36.2485 48.4755 36.0325 49.0531 35.6576 49.5684C35.2835 50.0825 34.7765 50.4991 34.2579 50.718L34.4243 51.1123Z" fill="#007E3C" mask="url(#path-6-inside-3_38_148)"/>
<path d="M37.0679 47.4844L36.6284 47.6494C36.6621 47.9128 36.7041 48.1414 36.7192 48.3809C36.7516 48.8955 36.5209 49.3796 36.1353 49.7734C35.8566 50.0489 35.5286 50.2294 35.1655 50.3975C34.8128 50.5607 34.4036 50.7217 34.0288 50.9463C32.5048 51.8593 31.7238 53.8194 32.3657 55.4971L32.3667 55.5C32.5607 55.9868 32.7065 56.2953 32.8052 56.4844C32.8545 56.5789 32.8926 56.6442 32.9194 56.6875C32.9328 56.7091 32.9436 56.7256 32.9517 56.7373C32.9556 56.743 32.9588 56.7483 32.9614 56.752C32.9627 56.7537 32.9644 56.7555 32.9653 56.7568L32.9663 56.7588H32.9673V56.7598L33.0132 56.8193L33.0845 56.8428H33.0854H33.0864L33.0874 56.8438C33.0886 56.8441 33.0906 56.8442 33.0923 56.8447C33.0956 56.8457 33.1 56.8472 33.105 56.8486C33.1154 56.8515 33.1294 56.8552 33.147 56.8594C33.1826 56.8678 33.2334 56.878 33.2983 56.8877C33.4282 56.907 33.6161 56.9239 33.8599 56.917C34.3483 56.9031 35.0585 56.7944 35.978 56.4297C36.2786 56.3105 36.5496 56.1573 36.7437 56.0352C36.8013 55.9989 36.8513 55.9632 36.895 55.9336C37.2601 56.2776 38.0408 56.9531 39.063 57.3145C40.7339 57.9045 42.5217 57.578 43.8813 56.4688C45.3376 55.2813 46.011 53.5592 46.438 51.8818L46.022 51.666C45.474 52.3033 45.0224 52.7475 44.1997 52.7734C43.7732 52.7869 43.3929 52.6826 42.9995 52.5381C42.6183 52.3981 42.1921 52.2057 41.7446 52.0889C40.7489 51.8289 39.6687 51.9813 38.7739 52.4561C38.7744 52.4472 38.7764 52.4385 38.7769 52.4297C38.8773 50.5854 38.0392 48.9312 37.0679 47.4844ZM30.2651 62.1455L30.1343 62.0781C24.3345 59.1039 20.3804 53.2038 20.3804 46.4316C20.3806 46.0887 20.6697 45.7979 21.0435 45.7979H45.1021L45.1733 45.6934L49.9683 38.6973L49.9878 38.6689L49.9985 38.6377L51.5103 34.1201C51.571 33.9388 51.7155 33.7913 51.9058 33.7217C52.0959 33.6521 52.3085 33.6698 52.4829 33.7695L57.8833 36.8643C58.0573 36.9639 58.1723 37.1333 58.1997 37.3213C58.2235 37.4856 58.1791 37.6526 58.0757 37.7861L58.0278 37.8408L54.6626 41.2959L54.6392 41.3203L54.6235 41.3496L52.4038 45.4424L52.2104 45.7979H56.3032C56.6769 45.7979 56.967 46.0887 56.9673 46.4316C56.9673 53.2034 53.0127 59.1029 47.2134 62.0771L47.0825 62.1445V62.4902C47.0825 63.5724 46.1744 64.4629 45.0366 64.4629H32.3101C31.1734 64.4627 30.2651 63.5724 30.2651 62.4902V62.1455Z" fill="#007E3C" stroke="#007E3C" stroke-width="0.48167"/>
</svg>
