<svg width="95" height="95" viewBox="0 0 95 95" fill="none" xmlns="http://www.w3.org/2000/svg">
<g filter="url(#filter0_i_406_2)">
<circle cx="47.5" cy="47.5" r="47.5" fill="#F2F2F2"/>
</g>
<path d="M74.576 63.5421C74.6446 63.34 74.6903 63.1235 74.6903 62.8926V34.1041C74.6903 32.9783 73.7295 32.069 72.5398 32.069H60.5518V62.3802C60.5518 62.7843 60.4756 63.174 60.3383 63.5349H58.9275C58.9961 63.3328 59.0419 63.1163 59.0419 62.8854V25.2417C59.0419 24.1159 58.081 23.2065 56.8914 23.2065H38.0858C36.8961 23.2065 35.9352 24.1159 35.9352 25.2417V62.8926C35.9352 63.1163 35.9734 63.3328 36.0496 63.5421H34.6465C34.5092 63.1813 34.4329 62.7915 34.4329 62.3874V32.0762H22.7347C21.5451 32.0762 20.5842 32.9855 20.5842 34.1114V62.8998C20.5842 63.1235 20.6223 63.34 20.6986 63.5493H17V67.7568H78V63.5493H74.576V63.5421ZM28.7592 37.1641H31.8477V40.087H28.7592V37.1641ZM28.7592 42.1222H31.8477V45.045H28.7592V42.1222ZM28.7592 47.2462H31.8477V50.1691H28.7592V47.2462ZM23.9472 37.1641H27.0358V40.087H23.9472V37.1641ZM23.9472 42.1222H27.0358V45.045H23.9472V42.1222ZM23.9472 47.2462H27.0358V50.1691H23.9472V47.2462ZM23.9472 52.1537H27.0358V55.0766H23.9472V52.1537ZM27.112 59.8398H24.0235V56.9169H27.112V59.8398ZM28.7592 52.1537H31.8477V55.0766H28.7592V52.1537ZM31.924 59.8398H28.8355V56.9169H31.924V59.8398ZM52.2777 63.405H43.218V47.6576H52.2777V63.405ZM47.4886 38.4848C43.2943 38.4848 39.9007 35.2733 39.9007 31.304C39.9007 27.3346 43.3019 24.1231 47.4886 24.1231C51.6828 24.1231 55.0764 27.3346 55.0764 31.304C55.0764 35.2733 51.6828 38.4848 47.4886 38.4848ZM68.8031 37.1641H71.8916V40.087H68.8031V37.1641ZM68.8031 42.1222H71.8916V45.045H68.8031V42.1222ZM68.8031 47.2462H71.8916V50.1691H68.8031V47.2462ZM63.9911 37.1641H67.0796V40.087H63.9911V37.1641ZM63.9911 42.1222H67.0796V45.045H63.9911V42.1222ZM63.9911 47.2462H67.0796V50.1691H63.9911V47.2462ZM63.9911 52.1537H67.0796V55.0766H63.9911V52.1537ZM67.1559 59.8398H64.0674V56.9169H67.1559V59.8398ZM68.8031 52.1537H71.8916V55.0766H68.8031V52.1537ZM71.9603 59.8398H68.8717V56.9169H71.9603V59.8398Z" fill="#007E3C"/>
<path d="M52.2774 29.5214V33.0866H49.3719V35.8362H45.6047V33.0866H42.6992V29.5214H45.6047V26.7717H49.3719V29.5214H52.2774Z" fill="#007E3C"/>
<defs>
<filter id="filter0_i_406_2" x="0" y="0" width="95" height="99" filterUnits="userSpaceOnUse" color-interpolation-filters="sRGB">
<feFlood flood-opacity="0" result="BackgroundImageFix"/>
<feBlend mode="normal" in="SourceGraphic" in2="BackgroundImageFix" result="shape"/>
<feColorMatrix in="SourceAlpha" type="matrix" values="0 0 0 0 0 0 0 0 0 0 0 0 0 0 0 0 0 0 127 0" result="hardAlpha"/>
<feOffset dy="4"/>
<feGaussianBlur stdDeviation="2"/>
<feComposite in2="hardAlpha" operator="arithmetic" k2="-1" k3="1"/>
<feColorMatrix type="matrix" values="0 0 0 0 0 0 0 0 0 0 0 0 0 0 0 0 0 0 0.25 0"/>
<feBlend mode="normal" in2="shape" result="effect1_innerShadow_406_2"/>
</filter>
</defs>
</svg>
