<svg width="61" height="45" viewBox="0 0 61 45" fill="none" xmlns="http://www.w3.org/2000/svg">
<path d="M57.576 40.5421C57.6446 40.34 57.6903 40.1235 57.6903 39.8926V11.1041C57.6903 9.9783 56.7295 9.06896 55.5398 9.06896H43.5518V39.3802C43.5518 39.7843 43.4756 40.174 43.3383 40.5349H41.9275C41.9961 40.3328 42.0419 40.1163 42.0419 39.8854V2.24172C42.0419 1.11588 41.081 0.206543 39.8914 0.206543H21.0858C19.8961 0.206543 18.9352 1.11588 18.9352 2.24172V39.8926C18.9352 40.1163 18.9734 40.3328 19.0496 40.5421H17.6465C17.5092 40.1813 17.4329 39.7915 17.4329 39.3874V9.07618H5.73472C4.54507 9.07618 3.5842 9.98552 3.5842 11.1114V39.8998C3.5842 40.1235 3.62233 40.34 3.69859 40.5493H0V44.7568H61V40.5493H57.576V40.5421ZM11.7592 14.1641H14.8477V17.087H11.7592V14.1641ZM11.7592 19.1222H14.8477V22.045H11.7592V19.1222ZM11.7592 24.2462H14.8477V27.1691H11.7592V24.2462ZM6.94724 14.1641H10.0358V17.087H6.94724V14.1641ZM6.94724 19.1222H10.0358V22.045H6.94724V19.1222ZM6.94724 24.2462H10.0358V27.1691H6.94724V24.2462ZM6.94724 29.1537H10.0358V32.0766H6.94724V29.1537ZM10.112 36.8398H7.0235V33.9169H10.112V36.8398ZM11.7592 29.1537H14.8477V32.0766H11.7592V29.1537ZM14.924 36.8398H11.8355V33.9169H14.924V36.8398ZM35.2777 40.405H26.218V24.6576H35.2777V40.405ZM30.4886 15.4848C26.2943 15.4848 22.9007 12.2733 22.9007 8.30397C22.9007 4.33464 26.3019 1.1231 30.4886 1.1231C34.6828 1.1231 38.0764 4.33464 38.0764 8.30397C38.0764 12.2733 34.6828 15.4848 30.4886 15.4848ZM51.8031 14.1641H54.8916V17.087H51.8031V14.1641ZM51.8031 19.1222H54.8916V22.045H51.8031V19.1222ZM51.8031 24.2462H54.8916V27.1691H51.8031V24.2462ZM46.9911 14.1641H50.0796V17.087H46.9911V14.1641ZM46.9911 19.1222H50.0796V22.045H46.9911V19.1222ZM46.9911 24.2462H50.0796V27.1691H46.9911V24.2462ZM46.9911 29.1537H50.0796V32.0766H46.9911V29.1537ZM50.1559 36.8398H47.0674V33.9169H50.1559V36.8398ZM51.8031 29.1537H54.8916V32.0766H51.8031V29.1537ZM54.9603 36.8398H51.8717V33.9169H54.9603V36.8398Z" fill="#007E3C"/>
<path d="M35.2774 6.52139V10.0866H32.3719V12.8362H28.6047V10.0866H25.6992V6.52139H28.6047V3.77173H32.3719V6.52139H35.2774Z" fill="#007E3C"/>
</svg>
